<svg width="16" height="16" viewBox="0 0 16 16" fill="none" xmlns="http://www.w3.org/2000/svg">
<path fill-rule="evenodd" fill="currentColor" clip-rule="evenodd" d="M12.6 2.60001H5.80005V4H10.2C10.7523 4 11.2 4.44772 11.2 5V13.4C11.2 13.9523 10.7523 14.4 10.2 14.4H3.40002C2.84774 14.4 2.40002 13.9523 2.40002 13.4V5C2.40002 4.44772 2.84774 4 3.40002 4H4.80005V2.60001C4.80005 2.04772 5.24776 1.60001 5.80005 1.60001H12.6C13.1523 1.60001 13.6 2.04772 13.6 2.60001V11C13.6 11.5523 13.1523 12 12.6 12H11.2V11H12.6L12.6 2.60001ZM3.40002 5H10.2L10.2 13.4L3.40002 13.4V5ZM7 8H5V7H7V8ZM5 11.2H8.6V10.2H5V11.2Z"  />
</svg>
