<svg viewBox="0 0 16 16" xmlns="http://www.w3.org/2000/svg">
<path fill-rule="evenodd" clip-rule="evenodd" d="M2 3H11V4V8V12V13H6.5H2V3ZM12 13C12 13.5523 11.5523 14 11 14H6.5H2C1.44772 14 1 13.5523 1 13V3C1 2.44772 1.44772 2 2 2H11C11.5523 2 12 2.44772 12 3H14C14.5523 3 15 3.44772 15 4V8V12C15 12.5523 14.5523 13 14 13H13H12ZM12 8V12H13L14 12V8V4H12V8ZM4 5.5C4 5.22386 4.22386 5 4.5 5H8.5C8.77614 5 9 5.22386 9 5.5C9 5.77614 8.77614 6 8.5 6H4.5C4.22386 6 4 5.77614 4 5.5ZM4.5 8C4.22386 8 4 8.22386 4 8.5C4 8.77614 4.22386 9 4.5 9H8.5C8.77614 9 9 8.77614 9 8.5C9 8.22386 8.77614 8 8.5 8H4.5Z" />
</svg>
