<svg viewBox="0 0 16 16" xmlns="http://www.w3.org/2000/svg">
<path fill-rule="evenodd" clip-rule="evenodd" d="M12.5112 5.62313L7.90887 2.96599L5.73579 6.72987L10.3499 9.36652L12.5112 5.62313ZM4.83903 6.21744L4.86754 6.23373L7.04285 2.46599C7.31899 1.9877 7.93058 1.82382 8.40887 2.09996L13.0112 4.7571C13.4895 5.03325 13.6533 5.64484 13.3772 6.12313L11.2182 9.86266L11.239 9.87458L10.7429 10.7428L10.7182 10.7287L9.34863 13.1008C9.27921 13.2211 9.18858 13.3214 9.08419 13.3999H13.9C14.1761 13.3999 14.4 13.6238 14.4 13.8999C14.4 14.1761 14.1761 14.3999 13.9 14.3999H2.09998C1.82383 14.3999 1.59998 14.1761 1.59998 13.8999C1.59998 13.6238 1.82383 13.3999 2.09998 13.3999H7.86674L3.3803 10.8097C2.90201 10.5336 2.73813 9.92197 3.01428 9.44368L4.36754 7.09976L4.3429 7.08568L4.83903 6.21744ZM8.48261 12.6008L9.84993 10.2326L5.23579 7.5959L3.8803 9.94368L8.48261 12.6008Z" />
</svg>
