<svg viewBox="0 0 16 16" xmlns="http://www.w3.org/2000/svg">
<path fill-rule="evenodd" clip-rule="evenodd" d="M8.61808 3.65233L10.0556 4.1194C10.4573 4.24992 10.8073 4.50425 11.0556 4.84594L11.944 6.06875C12.1923 6.41045 12.326 6.82196 12.326 7.24432V8.75579C12.326 9.17815 12.1923 9.58967 11.944 9.93136L11.0556 11.1542C10.8073 11.4959 10.4573 11.7502 10.0556 11.8807L8.61808 12.3478C8.2164 12.4783 7.7837 12.4783 7.38202 12.3478L5.94452 11.8807C5.54283 11.7502 5.19278 11.4959 4.94452 11.1542L4.0561 9.93136C3.80784 9.58967 3.67413 9.17815 3.67413 8.75579V7.24432C3.67413 6.82196 3.80784 6.41045 4.0561 6.06875L4.94452 4.84594C5.19278 4.50425 5.54283 4.24992 5.94452 4.1194L7.38202 3.65233C7.7837 3.52181 8.2164 3.52181 8.61808 3.65233ZM7.073 2.70127C7.67553 2.5055 8.32457 2.5055 8.9271 2.70127L10.3646 3.16834C10.9671 3.36412 11.4922 3.74562 11.8646 4.25816L12.753 5.48097C13.1254 5.99351 13.326 6.61078 13.326 7.24432V8.75579C13.326 9.38933 13.1254 10.0066 12.753 10.5191L11.8646 11.742C11.4922 12.2545 10.9671 12.636 10.3646 12.8318L8.9271 13.2988C8.32457 13.4946 7.67553 13.4946 7.073 13.2988L5.6355 12.8318C5.03297 12.636 4.50789 12.2545 4.1355 11.742L3.24708 10.5191C2.8747 10.0066 2.67413 9.38933 2.67413 8.75579V7.24432C2.67413 6.61078 2.8747 5.99351 3.24708 5.48097L4.1355 4.25816C4.50789 3.74562 5.03297 3.36412 5.6355 3.16834L7.073 2.70127ZM8.88418 5.93691C9.20973 5.93691 9.47365 5.673 9.47365 5.34744C9.47365 5.02188 9.20973 4.75797 8.88418 4.75797C8.55862 4.75797 8.2947 5.02188 8.2947 5.34744C8.2947 5.673 8.55862 5.93691 8.88418 5.93691ZM6.52639 6.52637C6.52639 6.85192 6.26247 7.11584 5.93691 7.11584C5.61135 7.11584 5.34744 6.85192 5.34744 6.52637C5.34744 6.20081 5.61135 5.93689 5.93691 5.93689C6.26247 5.93689 6.52639 6.20081 6.52639 6.52637ZM8.29482 8.88427C8.62038 8.88427 8.88429 8.62035 8.88429 8.2948C8.88429 7.96924 8.62038 7.70532 8.29482 7.70532C7.96926 7.70532 7.70535 7.96924 7.70535 8.2948C7.70535 8.62035 7.96926 8.88427 8.29482 8.88427ZM7.11586 10.0632C7.11586 10.3888 6.85195 10.6527 6.52639 10.6527C6.20083 10.6527 5.93691 10.3888 5.93691 10.0632C5.93691 9.73767 6.20083 9.47376 6.52639 9.47376C6.85195 9.47376 7.11586 9.73767 7.11586 10.0632ZM10.0631 11.2422C10.3887 11.2422 10.6526 10.9783 10.6526 10.6527C10.6526 10.3272 10.3887 10.0632 10.0631 10.0632C9.73757 10.0632 9.47366 10.3272 9.47366 10.6527C9.47366 10.9783 9.73757 11.2422 10.0631 11.2422Z" />
</svg>
