<svg viewBox="0 0 16 16" xmlns="http://www.w3.org/2000/svg">
<path fill-rule="evenodd" clip-rule="evenodd" d="M13 2H3V14H9V13.8665V10C9 9.44772 9.44772 9 10 9H13V2ZM3 15H9H9.35714H9.5L14 9.5V9.42857V9V2C14 1.44772 13.5523 1 13 1H3C2.44772 1 2 1.44772 2 2V14C2 14.5523 2.44772 15 3 15ZM12.2221 10H10V12.6665L12.2221 10ZM5 5.5C5 5.22386 5.22386 5 5.5 5H10.5C10.7761 5 11 5.22386 11 5.5C11 5.77614 10.7761 6 10.5 6H5.5C5.22386 6 5 5.77614 5 5.5ZM5 9.5C5 9.22386 5.22386 9 5.5 9H7.5C7.77614 9 8 9.22386 8 9.5C8 9.77614 7.77614 10 7.5 10H5.5C5.22386 10 5 9.77614 5 9.5Z" />
</svg>
