<svg viewBox="0 0 16 16" xmlns="http://www.w3.org/2000/svg">
<path fill-rule="evenodd" clip-rule="evenodd" d="M3.5 10C3.5 9.72386 3.27614 9.5 3 9.5C2.72386 9.5 2.5 9.72386 2.5 10L2.5 13C2.5 13.2761 2.72386 13.5 3 13.5L13 13.5C13.2761 13.5 13.5 13.2761 13.5 13L13.5 10C13.5 9.72386 13.2761 9.5 13 9.5C12.7239 9.5 12.5 9.72386 12.5 10L12.5 12.5L3.5 12.5L3.5 10ZM3.60192 7.39863L7.5 3.50054L7.5 10C7.5 10.2761 7.72386 10.5 8 10.5C8.27614 10.5 8.5 10.2761 8.5 10L8.5 3.5003L12.3983 7.39863C12.5936 7.59389 12.9102 7.59389 13.1054 7.39863C13.3007 7.20337 13.3007 6.88678 13.1054 6.69152L8.35367 1.93976C8.15841 1.7445 7.84183 1.7445 7.64657 1.93976L2.89481 6.69152C2.69955 6.88678 2.69955 7.20336 2.89481 7.39863C3.09007 7.59389 3.40665 7.59389 3.60192 7.39863Z" />
</svg>
