<svg viewBox="0 0 16 16" xmlns="http://www.w3.org/2000/svg">
<path fill-rule="evenodd" clip-rule="evenodd" d="M8.66688 3C8.66688 3.55228 8.21916 4 7.66687 4C7.11459 4 6.66687 3.55228 6.66687 3C6.66687 2.44772 7.11459 2 7.66687 2C8.21916 2 8.66688 2.44772 8.66688 3ZM5.55284 7.79778L7.69483 5.41916L9.7761 7.79283L10.0414 8.09539L10.3937 7.90093L12.6595 6.65019L11.6876 12.1664H3.78221L3.65071 11.3778H10.6823C10.9584 11.3778 11.1823 11.154 11.1823 10.8778C11.1823 10.6017 10.9584 10.3778 10.6823 10.3778H3.06043H2.47016L2.56724 10.9601L2.86549 12.7487L2.93515 13.1664H3.35868H12.1072H12.5268L12.5996 12.7532L13.7532 6.20579C13.8552 5.62644 13.2405 5.18721 12.7255 5.4715L10.2627 6.83099L8.22414 4.50604C7.94776 4.19082 7.45818 4.18758 7.17764 4.49911L5.07539 6.83361L2.61671 5.4764C2.0964 5.18918 1.47748 5.64012 1.5914 6.22341L2.27146 9.70538C2.32439 9.9764 2.58701 10.1532 2.85803 10.1003C3.12905 10.0473 3.30585 9.78471 3.25292 9.51369L2.69604 6.66243L4.93966 7.90093L5.2872 8.09277L5.55284 7.79778Z" />
</svg>
