<svg viewBox="0 0 16 16" xmlns="http://www.w3.org/2000/svg">
<path fill-rule="evenodd" clip-rule="evenodd" d="M3.04566 2.96002H12.6459C13.1761 2.96002 13.6059 3.38984 13.6059 3.92004V9.44033C13.6059 9.97054 13.1761 10.4004 12.6459 10.4004H3.04565C2.51545 10.4004 2.08563 9.97054 2.08563 9.44033V3.92004C2.08563 3.38984 2.51545 2.96002 3.04566 2.96002ZM1.12561 3.92004C1.12561 2.85963 1.98525 2 3.04566 2H12.6459C13.7063 2 14.5659 2.85963 14.5659 3.92004V9.44033C14.5659 10.5007 13.7063 11.3604 12.6459 11.3604H3.04565C1.98524 11.3604 1.12561 10.5007 1.12561 9.44033V3.92004ZM1.48001 13.04C1.21491 13.04 1 13.2549 1 13.52C1 13.7851 1.21491 14 1.48001 14H14.5666C14.8317 14 15.0466 13.7851 15.0466 13.52C15.0466 13.2549 14.8317 13.04 14.5666 13.04H1.48001Z" />
</svg>
