<svg viewBox="0 0 16 16" xmlns="http://www.w3.org/2000/svg">
<path fill-rule="evenodd" clip-rule="evenodd" d="M3.66663 3H12.3333L12.3333 8V13H7.99996H3.66663V3ZM2.66663 3C2.66663 2.44772 3.11434 2 3.66663 2H12.3333C12.8856 2 13.3333 2.44772 13.3333 3V8V13C13.3333 13.5523 12.8856 14 12.3333 14H7.99996H3.66663C3.11434 14 2.66663 13.5523 2.66663 13V3ZM4.66663 5.27777C4.39048 5.27777 4.16663 5.50163 4.16663 5.77777C4.16663 6.05391 4.39048 6.27777 4.66663 6.27777H7.99996C8.2761 6.27777 8.49996 6.05391 8.49996 5.77777C8.49996 5.50163 8.2761 5.27777 7.99996 5.27777H4.66663ZM4.66663 7.49999C4.39048 7.49999 4.16663 7.72385 4.16663 7.99999C4.16663 8.27614 4.39048 8.49999 4.66663 8.49999H9.33329C9.60944 8.49999 9.83329 8.27614 9.83329 7.99999C9.83329 7.72385 9.60944 7.49999 9.33329 7.49999H4.66663ZM4.66663 9.72222C4.39048 9.72222 4.16663 9.94607 4.16663 10.2222C4.16663 10.4984 4.39048 10.7222 4.66663 10.7222H10.8888C11.165 10.7222 11.3888 10.4984 11.3888 10.2222C11.3888 9.94607 11.165 9.72222 10.8888 9.72222H4.66663Z" />
</svg>
