<svg viewBox="0 0 16 16" xmlns="http://www.w3.org/2000/svg">
<path fill-rule="evenodd" clip-rule="evenodd" d="M4.3335 2H14.3334L14.3334 11.9999H13.3335L13.3332 12.0393V7.66663V6.66663V4C13.3332 3.44772 12.8855 3 12.3332 3H4.32154L4.3335 2.99998V2ZM12.3332 6.66663V4H2.33337V6.66663H12.3332ZM1.33337 7.66663V6.66663V4C1.33337 3.44772 1.78109 3 2.33337 3H3.3335V2C3.3335 1.44772 3.78121 1 4.3335 1H14.3334C14.8856 1 15.3334 1.44772 15.3334 2V11.9999C15.3334 12.5521 14.8856 12.9999 14.3334 12.9999H13.3332V13.9999C13.3332 14.5521 12.8855 14.9999 12.3332 14.9999H2.33337C1.78109 14.9999 1.33337 14.5521 1.33337 13.9999V7.66663ZM2.33337 7.66663H12.3332L12.3332 13.9999L2.33337 13.9999V7.66663Z" />
</svg>
