<svg viewBox="0 0 16 16" xmlns="http://www.w3.org/2000/svg">
<path fill-rule="evenodd" clip-rule="evenodd" d="M12.4409 3.73763C12.4193 3.46233 12.1787 3.25662 11.9034 3.27816C11.6281 3.2997 11.4224 3.54034 11.4439 3.81564L11.5161 4.73793C9.70242 3.1115 6.93906 2.91511 4.89244 4.40894C2.541 6.12526 2.02614 9.42282 3.74245 11.7743C5.45877 14.1257 8.75633 14.6405 11.1078 12.9242C11.3308 12.7614 11.3796 12.4486 11.2168 12.2256C11.054 12.0025 10.7413 11.9537 10.5182 12.1165C8.61287 13.5072 5.94089 13.09 4.55018 11.1847C3.15947 9.27935 3.57666 6.60738 5.482 5.21667C7.25747 3.92074 9.69864 4.19467 11.1485 5.77973L9.6553 5.611C9.38091 5.57999 9.13333 5.77729 9.10232 6.05169C9.07131 6.32608 9.26861 6.57366 9.54301 6.60467L12.0912 6.89264C12.2395 6.90939 12.3875 6.85906 12.4948 6.75539C12.6021 6.65172 12.6575 6.50554 12.6458 6.35679L12.4409 3.73763Z" />
</svg>
