<svg viewBox="0 0 16 16" xmlns="http://www.w3.org/2000/svg">
<path fill-rule="evenodd" clip-rule="evenodd" d="M3.40002 3.3999L12.6 3.3999V4.8999L3.40002 4.8999L3.40002 3.3999ZM2.40002 5.8999V4.8999V3.3999C2.40002 2.84762 2.84774 2.3999 3.40002 2.3999H12.6C13.1523 2.3999 13.6 2.84762 13.6 3.3999V4.8999V5.8999V12.5999C13.6 13.1522 13.1523 13.5999 12.6 13.5999H3.40002C2.84774 13.5999 2.40002 13.1522 2.40002 12.5999V5.8999ZM12.6 5.8999L12.6 12.5999L3.40002 12.5999L3.40002 5.8999L12.6 5.8999ZM5.90707 9.39992L6.95353 8.35346L6.24642 7.64636L4.84641 9.04636L4.49286 9.39992L4.84641 9.75347L6.24642 11.1535L6.95353 10.4464L5.90707 9.39992ZM9.04647 8.35346L10.0929 9.39992L9.04647 10.4464L9.75358 11.1535L11.1536 9.75347L11.5071 9.39992L11.1536 9.04636L9.75358 7.64636L9.04647 8.35346Z" />
</svg>
