<svg viewBox="0 0 16 16" xmlns="http://www.w3.org/2000/svg">
<path fill-rule="evenodd" clip-rule="evenodd" d="M3.00065 7.74844L3.00064 7.74867C2.95548 10.7172 5.31573 13.0661 8.26645 13.0661H8.3277C11.288 13.0332 13.6667 10.6683 13.6667 7.73203V7.73163C13.6679 4.78806 11.2787 2.39941 8.333 2.39941C5.40156 2.39941 3.04515 4.77694 3.00065 7.74844ZM8.333 14.0661H8.26645C4.76758 14.0661 1.94695 11.2702 2.00076 7.73346C2.05315 4.23536 4.83554 1.39941 8.333 1.39941C11.8305 1.39941 14.6681 4.23536 14.6667 7.73203C14.6667 11.2316 11.8305 14.0303 8.333 14.0661ZM8.35815 4.31433C8.6343 4.31433 8.85815 4.53819 8.85815 4.81433V7.22028H11.2255C11.5016 7.22028 11.7255 7.44413 11.7255 7.72028C11.7255 7.99642 11.5016 8.22028 11.2255 8.22028H8.36347C8.3617 8.22029 8.35993 8.2203 8.35815 8.2203C8.08201 8.2203 7.85815 7.99645 7.85815 7.7203V7.72028V4.81433C7.85815 4.53819 8.08201 4.31433 8.35815 4.31433Z" />
</svg>
