<svg viewBox="0 0 16 16" xmlns="http://www.w3.org/2000/svg">
<path fill-rule="evenodd" clip-rule="evenodd" d="M8.50009 2C8.50009 1.72386 8.27623 1.5 8.00009 1.5C7.72394 1.5 7.50009 1.72386 7.50009 2V5.33337C7.50009 5.60952 7.72394 5.83337 8.00009 5.83337C8.27623 5.83337 8.50009 5.60952 8.50009 5.33337V2ZM2.66811 9.94168C2.96526 11.1566 3.66761 12.2339 4.65932 12.996C5.65103 13.7581 6.87286 14.1594 8.12331 14.1338C9.37376 14.1082 10.5781 13.6571 11.5378 12.855C12.4974 12.053 13.1551 10.9478 13.4022 9.72171C13.6493 8.49566 13.4712 7.22199 12.8972 6.11078C12.3232 4.99957 11.3876 4.11718 10.2447 3.60914C9.99237 3.49697 9.69688 3.6106 9.58471 3.86294C9.47255 4.11527 9.58617 4.41076 9.83851 4.52293C10.7736 4.93859 11.5391 5.66055 12.0087 6.56972C12.4784 7.4789 12.6241 8.52098 12.4219 9.52412C12.2197 10.5272 11.6817 11.4315 10.8965 12.0878C10.1113 12.744 9.12591 13.113 8.10282 13.134C7.07973 13.155 6.08004 12.8266 5.26865 12.2031C4.45725 11.5796 3.8826 10.6981 3.63948 9.70409C3.39635 8.71009 3.49928 7.6629 3.93127 6.73525C4.36327 5.8076 5.09853 5.05489 6.0158 4.60127C6.26333 4.47885 6.36476 4.17896 6.24234 3.93143C6.11993 3.6839 5.82004 3.58248 5.57251 3.70489C4.4514 4.25932 3.55275 5.1793 3.02475 6.3131C2.49675 7.44689 2.37096 8.72678 2.66811 9.94168Z" />
</svg>
