<svg viewBox="0 0 16 16" xmlns="http://www.w3.org/2000/svg">
<path fill-rule="evenodd" clip-rule="evenodd" d="M6 1.5C6.27614 1.5 6.5 1.72386 6.5 2V6.5H2C1.72386 6.5 1.5 6.27614 1.5 6C1.5 5.72386 1.72386 5.5 2 5.5H5.5V2C5.5 1.72386 5.72386 1.5 6 1.5Z" />
<path fill-rule="evenodd" clip-rule="evenodd" d="M1.5 10C1.5 9.72386 1.72386 9.5 2 9.5H6.5V14C6.5 14.2761 6.27614 14.5 6 14.5C5.72386 14.5 5.5 14.2761 5.5 14V10.5H2C1.72386 10.5 1.5 10.2761 1.5 10Z" />
<path fill-rule="evenodd" clip-rule="evenodd" d="M10 1.5C10.2761 1.5 10.5 1.72386 10.5 2V5.5H14C14.2761 5.5 14.5 5.72386 14.5 6C14.5 6.27614 14.2761 6.5 14 6.5H9.5V2C9.5 1.72386 9.72386 1.5 10 1.5Z" />
<path fill-rule="evenodd" clip-rule="evenodd" d="M9.5 9.5H14C14.2761 9.5 14.5 9.72386 14.5 10C14.5 10.2761 14.2761 10.5 14 10.5H10.5V14C10.5 14.2761 10.2761 14.5 10 14.5C9.72386 14.5 9.5 14.2761 9.5 14V9.5Z" />
</svg>
