<svg width="16" height="16" viewBox="0 0 16 16" fill="none" xmlns="http://www.w3.org/2000/svg">
<path fill-rule="evenodd" clip-rule="evenodd" d="M8 16C12.4183 16 16 12.4183 16 8C16 3.58172 12.4183 0 8 0C3.58172 0 0 3.58172 0 8C0 12.4183 3.58172 16 8 16ZM7.238 3.238C7.406 3.07 7.602 3 7.84 3C8.078 3 8.274 3.07 8.442 3.238C8.61 3.378 8.694 3.574 8.694 3.826C8.694 4.064 8.61 4.26 8.442 4.428C8.274 4.582 8.078 4.666 7.84 4.666C7.602 4.666 7.406 4.582 7.238 4.428C7.07 4.26 7 4.064 7 3.826C7 3.574 7.07 3.378 7.238 3.238ZM7.28 12.968V5.73H8.4V12.968H7.28Z" fill="#5D88F1"/>
</svg>
