<svg width="16" height="16" viewBox="0 0 16 16" fill="none" xmlns="http://www.w3.org/2000/svg">
<path fill-rule="evenodd" clip-rule="evenodd" d="M8 16C12.4183 16 16 12.4183 16 8C16 3.58172 12.4183 0 8 0C3.58172 0 0 3.58172 0 8C0 12.4183 3.58172 16 8 16ZM7.238 12.73C7.406 12.898 7.602 12.968 7.84 12.968C8.078 12.968 8.274 12.898 8.442 12.73C8.61 12.59 8.694 12.394 8.694 12.142C8.694 11.904 8.61 11.708 8.442 11.54C8.274 11.386 8.078 11.302 7.84 11.302C7.602 11.302 7.406 11.386 7.238 11.54C7.07 11.708 7 11.904 7 12.142C7 12.394 7.07 12.59 7.238 12.73ZM7.28 3V10.238H8.4V3H7.28Z" fill="#DFBB00"/>
</svg>
