<svg viewBox="0 0 16 16" xmlns="http://www.w3.org/2000/svg">
<path fill-rule="evenodd" clip-rule="evenodd" d="M8.66663 2.5C8.66663 2.22386 8.44277 2 8.16663 2C7.89048 2 7.66663 2.22386 7.66663 2.5L7.66663 7.33331L2.5 7.33331C2.22386 7.33331 2 7.55717 2 7.83331C2 8.10946 2.22386 8.33331 2.5 8.33331L7.66663 8.33331L7.66663 13.5C7.66663 13.7761 7.89048 14 8.16663 14C8.44277 14 8.66663 13.7761 8.66663 13.5L8.66663 8.33331L13.5 8.33331C13.7761 8.33331 14 8.10945 14 7.83331C14 7.55717 13.7761 7.33331 13.5 7.33331L8.66663 7.33331L8.66663 2.5Z" />
</svg>
