<svg viewBox="0 0 16 16" xmlns="http://www.w3.org/2000/svg">
<path fill-rule="evenodd" clip-rule="evenodd" d="M13.6667 7.99992C13.6667 11.1295 11.1297 13.6666 8.00004 13.6666C4.87043 13.6666 2.33337 11.1295 2.33337 7.99992C2.33337 4.87031 4.87043 2.33325 8.00004 2.33325C11.1297 2.33325 13.6667 4.87031 13.6667 7.99992ZM14.6667 7.99992C14.6667 11.6818 11.6819 14.6666 8.00004 14.6666C4.31814 14.6666 1.33337 11.6818 1.33337 7.99992C1.33337 4.31802 4.31814 1.33325 8.00004 1.33325C11.6819 1.33325 14.6667 4.31802 14.6667 7.99992ZM8.1825 3.87292C8.45864 3.87292 8.6825 4.09678 8.6825 4.37292V7.31738H11.6269C11.903 7.31738 12.1269 7.54124 12.1269 7.81738C12.1269 8.09353 11.903 8.31738 11.6269 8.31738H8.68249V11.6269C8.68249 11.903 8.45864 12.1269 8.18249 12.1269C7.90635 12.1269 7.68249 11.903 7.68249 11.6269V8.31738H4.37292C4.09678 8.31738 3.87292 8.09353 3.87292 7.81738C3.87292 7.54124 4.09678 7.31738 4.37292 7.31738H7.6825V4.37292C7.6825 4.09678 7.90635 3.87292 8.1825 3.87292Z" />
</svg>
