<svg viewBox="0 0 16 16" xmlns="http://www.w3.org/2000/svg">
<path fill-rule="evenodd" clip-rule="evenodd" d="M3.16663 4.19995C3.16663 3.92381 3.39048 3.69995 3.66663 3.69995H10.112V2.69995H3.66663C2.8382 2.69995 2.16663 3.37153 2.16663 4.19995V11.9964C2.16663 12.8249 2.8382 13.4964 3.66663 13.4964H12.0074C12.8358 13.4964 13.5074 12.8249 13.5074 11.9964V5.69906H12.5074V11.9964C12.5074 12.2726 12.2835 12.4964 12.0074 12.4964H3.66663C3.39048 12.4964 3.16663 12.2726 3.16663 11.9964V4.19995ZM13.0781 3.56405C13.2791 3.37479 13.2887 3.05836 13.0995 2.85727C12.9102 2.65618 12.5938 2.64659 12.3927 2.83585L7.76657 7.18985C7.56548 7.3791 7.55589 7.69554 7.74515 7.89663C7.93441 8.09772 8.25085 8.1073 8.45194 7.91805L13.0781 3.56405Z" />
</svg>
