<svg viewBox="0 0 16 16" xmlns="http://www.w3.org/2000/svg">
<path fill-rule="evenodd" clip-rule="evenodd" d="M6.08881 12.1348C5.97005 12.059 5.81162 12.0939 5.73572 12.2128L4.24624 14.5461C4.17035 14.665 4.20544 14.8234 4.3242 14.8992C4.44296 14.975 4.60139 14.9402 4.67729 14.8213L6.16676 12.4879C6.17159 12.4803 6.17597 12.4726 6.17991 12.4648C6.23785 12.3492 6.20001 12.2058 6.08881 12.1348ZM6.68906 12.8678C6.66499 12.8872 6.64386 12.9113 6.62708 12.9399L5.70299 14.5156C5.6297 14.6406 5.67138 14.7965 5.79291 14.8677C5.91444 14.939 6.07082 14.8993 6.14411 14.7743L7.0682 13.1986C7.14149 13.0736 7.09983 12.9178 6.9783 12.8465C6.88458 12.7915 6.77014 12.8026 6.68906 12.8678ZM5.0169 12.1604C5.03589 12.1341 5.04972 12.1056 5.05813 12.0761C5.06802 12.0414 5.07039 12.0054 5.06481 11.9699C5.05448 11.9043 5.01695 11.8409 4.96219 11.8013C4.90743 11.7617 4.83542 11.746 4.76993 11.7567C4.70443 11.7675 4.64545 11.8047 4.60407 11.8619L3.62143 13.2211C3.58006 13.2784 3.56319 13.346 3.57352 13.4116C3.58385 13.4772 3.62137 13.5406 3.67613 13.5802C3.7309 13.6198 3.8029 13.6355 3.8684 13.6248C3.93389 13.614 3.99288 13.5768 4.03425 13.5196L5.0169 12.1604Z" />
<path fill-rule="evenodd" clip-rule="evenodd" d="M5.65146 12.1588C5.7571 11.9934 5.97738 11.9449 6.14264 12.0504C6.29748 12.1493 6.35 12.3486 6.26934 12.5095C6.26386 12.5204 6.25778 12.5311 6.25108 12.5416L4.76161 14.875C4.65597 15.0405 4.43569 15.0889 4.27043 14.9834C4.10516 14.8779 4.05634 14.6577 4.16198 14.4922L5.65146 12.1588ZM5.02327 12.1649L5.09797 12.2189L4.11533 13.5781C4.05942 13.6554 3.97771 13.7081 3.88461 13.7234C3.79387 13.7382 3.69476 13.7169 3.61758 13.6611C3.5404 13.6053 3.48908 13.5179 3.47477 13.4271C3.46008 13.3339 3.48451 13.2398 3.54042 13.1624L4.52306 11.8032C4.57897 11.7259 4.66066 11.6732 4.75377 11.6579C4.84451 11.643 4.94363 11.6644 5.02081 11.7202C5.09799 11.776 5.14931 11.8634 5.16362 11.9542C5.17152 12.0044 5.1681 12.0551 5.15432 12.1035C5.14264 12.1445 5.12358 12.1834 5.09797 12.2189L5.02327 12.1649ZM6.54085 12.8892C6.56379 12.8501 6.59293 12.8167 6.62641 12.7898C6.73904 12.6992 6.89848 12.6836 7.02891 12.7601C7.19834 12.8595 7.25557 13.0767 7.15449 13.2491L6.2304 14.8248C6.12932 14.9972 5.91178 15.0533 5.74235 14.9539C5.57293 14.8545 5.51568 14.6373 5.61676 14.4649L6.54085 12.8892ZM5.73575 12.2127C5.81165 12.0938 5.97008 12.0589 6.08884 12.1347C6.20004 12.2057 6.23788 12.3491 6.17994 12.4647C6.17601 12.4725 6.17163 12.4802 6.16679 12.4878L4.67732 14.8212C4.60142 14.9401 4.44299 14.9749 4.32423 14.8991C4.20548 14.8233 4.17038 14.6649 4.24627 14.546L5.73575 12.2127ZM6.62711 12.9398C6.64389 12.9112 6.66502 12.8871 6.68909 12.8677C6.77017 12.8025 6.88461 12.7914 6.97833 12.8464C7.09986 12.9177 7.14152 13.0735 7.06823 13.1985L6.14414 14.7742C6.07085 14.8992 5.91447 14.9389 5.79294 14.8676C5.67141 14.7964 5.62973 14.6405 5.70302 14.5155L6.62711 12.9398ZM5.05816 12.076C5.04975 12.1055 5.03592 12.134 5.01693 12.1603L4.03429 13.5195C3.99291 13.5767 3.93392 13.6139 3.86843 13.6247C3.80293 13.6354 3.73093 13.6197 3.67617 13.5801C3.6214 13.5405 3.58388 13.4771 3.57355 13.4115C3.56322 13.3459 3.58009 13.2783 3.62146 13.221L4.6041 11.8618C4.64548 11.8046 4.70446 11.7674 4.76996 11.7566C4.83545 11.7459 4.90746 11.7616 4.96222 11.8012C5.01698 11.8408 5.05451 11.9042 5.06484 11.9698C5.07042 12.0052 5.06806 12.0413 5.05816 12.076Z" />
<path fill-rule="evenodd" clip-rule="evenodd" d="M9.67895 6.9845L10.1723 13.5155C9.53411 13.7422 8.84699 13.8656 8.13104 13.8656C7.88096 13.8656 7.6344 13.8506 7.39221 13.8213L7.03003 14.4486C7.25959 14.4862 7.49303 14.5122 7.72973 14.526C7.86251 14.5338 7.99632 14.5377 8.13104 14.5377C8.86171 14.5377 9.56534 14.4219 10.2246 14.2077C10.4389 14.1381 10.6486 14.058 10.853 13.9682C13.087 12.9859 14.6891 10.8314 14.8806 8.28346C14.8934 8.1136 14.8999 7.94199 14.8999 7.76886C14.8999 4.03052 11.8694 1 8.13104 1C4.3927 1 1.36218 4.03052 1.36218 7.76886C1.36218 8.19368 1.40132 8.60936 1.47618 9.0125C1.51676 9.23102 1.56784 9.44586 1.62888 9.65647C1.90721 10.6169 2.39255 11.4893 3.03343 12.2223C3.18069 12.3907 3.33616 12.5518 3.49922 12.7048L3.84541 12.1052C3.08809 11.3567 2.52585 10.4112 2.24181 9.35192L8.43279 6.27574C8.98199 6.00285 9.63276 6.37298 9.67895 6.9845ZM2.03427 7.76886C2.03427 8.08548 2.0584 8.39647 2.10494 8.70008L8.14593 5.69843C9.10486 5.22195 10.2411 5.8682 10.3218 6.93594L10.7989 13.2525C12.829 12.2629 14.2278 10.1793 14.2278 7.76886C14.2278 4.4017 11.4982 1.67209 8.13104 1.67209C4.76389 1.67209 2.03427 4.4017 2.03427 7.76886ZM7.91847 9.78509C7.91847 10.0389 7.71276 10.2446 7.45899 10.2446C7.20522 10.2446 6.9995 10.0389 6.9995 9.78509C6.9995 9.53132 7.20522 9.3256 7.45899 9.3256C7.71276 9.3256 7.91847 9.53132 7.91847 9.78509ZM7.45899 10.8892C8.06879 10.8892 8.56313 10.3949 8.56313 9.78509C8.56313 9.17529 8.06879 8.68095 7.45899 8.68095C6.84919 8.68095 6.35485 9.17529 6.35485 9.78509C6.35485 10.3949 6.84919 10.8892 7.45899 10.8892Z" />
<path fill-rule="evenodd" clip-rule="evenodd" d="M7.39211 13.8212C7.6343 13.8505 7.88086 13.8655 8.13094 13.8655C8.84689 13.8655 9.53401 13.7421 10.1722 13.5154L9.67886 6.9844C9.63266 6.37288 8.9819 6.00275 8.43269 6.27564L2.24171 9.35182C2.52575 10.4111 3.08799 11.3566 3.84531 12.1051L3.49912 12.7047C3.47411 12.6813 3.44928 12.6576 3.42463 12.6338C3.28857 12.5021 3.15801 12.3648 3.03334 12.2222C2.39245 11.4892 1.90711 10.6168 1.62878 9.65638C1.56775 9.44577 1.51667 9.23093 1.47608 9.0124C1.40122 8.60927 1.36208 8.19358 1.36208 7.76876C1.36208 4.03042 4.39261 0.999902 8.13094 0.999902C11.8693 0.999902 14.8998 4.03042 14.8998 7.76876C14.8998 7.94189 14.8933 8.1135 14.8805 8.28337C14.689 10.8313 13.0869 12.9858 10.8529 13.9681C10.6485 14.0579 10.4388 14.138 10.2245 14.2076C9.56524 14.4218 8.86161 14.5376 8.13094 14.5376C7.99622 14.5376 7.86241 14.5337 7.72963 14.5259C7.52926 14.5142 7.33122 14.4938 7.1359 14.465C7.10049 14.4598 7.06517 14.4543 7.02994 14.4485L7.39211 13.8212ZM2.36001 9.40471C2.64571 10.4146 3.18943 11.3163 3.91561 12.034L3.97051 12.0883L3.52265 12.864L3.43068 12.7777C3.26523 12.6223 3.10747 12.4589 2.95805 12.288C2.30777 11.5443 1.81521 10.659 1.53273 9.68421C1.47079 9.47046 1.41895 9.25243 1.37777 9.03066C1.30179 8.62153 1.26208 8.19974 1.26208 7.76876C1.26208 3.97519 4.33738 0.899902 8.13094 0.899902C11.9245 0.899902 14.9998 3.97519 14.9998 7.76876C14.9998 7.9444 14.9932 8.11851 14.9803 8.29086C14.7859 10.8768 13.16 13.0629 10.8931 14.0596C10.6857 14.1508 10.4729 14.2321 10.2554 14.3028C9.58629 14.5202 8.87223 14.6376 8.13094 14.6376C7.99427 14.6376 7.85852 14.6336 7.7238 14.6258C7.48363 14.6117 7.24675 14.5853 7.01379 14.5472L6.87098 14.5239L7.33853 13.714L7.4041 13.7219C7.64232 13.7507 7.88488 13.7655 8.13094 13.7655C8.80845 13.7655 9.45953 13.6532 10.0667 13.4463L9.57914 6.99193C9.53829 6.45118 8.96284 6.12389 8.47719 6.3652L2.36001 9.40471ZM2.08979 8.5958C2.09451 8.63062 2.09953 8.66535 2.10484 8.69998L8.14584 5.69833C9.10476 5.22186 10.241 5.8681 10.3217 6.93584L10.7988 13.2524C10.8312 13.2366 10.8634 13.2205 10.8955 13.2042C12.8732 12.1963 14.2277 10.1407 14.2277 7.76876C14.2277 4.40161 11.4981 1.67199 8.13094 1.67199C4.76379 1.67199 2.03417 4.40161 2.03417 7.76876C2.03417 8.04927 2.05311 8.32535 2.08979 8.5958ZM2.18443 8.54877C2.15127 8.2935 2.13417 8.03315 2.13417 7.76876C2.13417 4.45684 4.81902 1.77199 8.13094 1.77199C11.4429 1.77199 14.1277 4.45684 14.1277 7.76876C14.1277 10.0868 12.8126 12.0978 10.8873 13.096L10.4214 6.92831C10.3354 5.7898 9.12382 5.10072 8.10134 5.60877L2.18443 8.54877ZM7.45889 10.1445C7.65743 10.1445 7.81838 9.98353 7.81838 9.78499C7.81838 9.58645 7.65743 9.4255 7.45889 9.4255C7.26035 9.4255 7.0994 9.58645 7.0994 9.78499C7.0994 9.98353 7.26035 10.1445 7.45889 10.1445ZM8.66303 9.78499C8.66303 10.45 8.12392 10.9891 7.45889 10.9891C6.79386 10.9891 6.25475 10.45 6.25475 9.78499C6.25475 9.11996 6.79386 8.58085 7.45889 8.58085C8.12392 8.58085 8.66303 9.11996 8.66303 9.78499ZM7.45889 10.2445C7.71266 10.2445 7.91838 10.0388 7.91838 9.78499C7.91838 9.53122 7.71266 9.3255 7.45889 9.3255C7.20512 9.3255 6.9994 9.53122 6.9994 9.78499C6.9994 10.0388 7.20512 10.2445 7.45889 10.2445ZM8.56303 9.78499C8.56303 10.3948 8.06869 10.8891 7.45889 10.8891C6.84909 10.8891 6.35475 10.3948 6.35475 9.78499C6.35475 9.17519 6.84909 8.68085 7.45889 8.68085C8.06869 8.68085 8.56303 9.17519 8.56303 9.78499Z" />
</svg>
