<svg viewBox="0 0 16 16" xmlns="http://www.w3.org/2000/svg">
<path fill-rule="evenodd" clip-rule="evenodd" d="M15.1316 1.18192C15.3269 0.98666 15.3269 0.670078 15.1316 0.474816C14.9364 0.279554 14.6198 0.279554 14.4245 0.474816L13.3388 1.56052C11.9679 0.532748 10.0145 0.642254 8.76773 1.88904L7.70707 2.9497C7.31654 3.34022 7.31654 3.97339 7.70707 4.36391L11.2426 7.89945C11.6331 8.28997 12.2663 8.28997 12.6568 7.89945L13.7175 6.83879C14.9643 5.59198 15.0738 3.63853 14.0459 2.26762L15.1316 1.18192ZM13.0065 2.59232C13.0078 2.5936 13.009 2.59487 13.0103 2.59614C13.0116 2.59741 13.0129 2.59867 13.0141 2.59992C13.9867 3.57653 13.9854 5.15663 13.0104 6.13168L11.9497 7.19234L8.41417 3.65681L9.47483 2.59615C10.4499 1.62111 12.0299 1.61984 13.0065 2.59232ZM5.00562 8.17714L5.01034 8.18192L5.01512 8.18664L7.83812 11.0096L7.83883 11.0104L7.83954 11.0111L8.19239 11.3639L7.13173 12.4246C6.15542 13.4009 4.57251 13.4009 3.5962 12.4246C2.61989 11.4483 2.61989 9.86535 3.5962 8.88904L4.65686 7.82838L5.00562 8.17714ZM6.07103 7.82834L8.19238 9.94969L9.25304 8.88903C9.44831 8.69377 9.76489 8.69377 9.96015 8.88903C10.1554 9.0843 10.1554 9.40088 9.96015 9.59614L8.89949 10.6568L8.8995 10.6568C9.29003 11.0473 9.29003 11.6805 8.8995 12.071L7.83884 13.1317C6.59204 14.3785 4.63859 14.488 3.26768 13.4602L2.18192 14.5459C1.98666 14.7412 1.67008 14.7412 1.47482 14.5459C1.27955 14.3506 1.27955 14.0341 1.47482 13.8388L2.56058 12.753C1.5328 11.3821 1.64231 9.42872 2.88909 8.18194L3.94975 7.12128C4.34026 6.73077 4.9734 6.73075 5.36392 7.12123L6.42455 6.0606C6.61981 5.86534 6.9364 5.86534 7.13166 6.0606C7.32692 6.25587 7.32692 6.57245 7.13166 6.76771L6.07103 7.82834Z" />
</svg>
