<svg viewBox="0 0 16 16" xmlns="http://www.w3.org/2000/svg">
<path fill-rule="evenodd" clip-rule="evenodd" d="M9 2.1001C9 1.82396 8.77614 1.6001 8.5 1.6001C8.22386 1.6001 8 1.82396 8 2.1001V2.2001H7.69995C7.42381 2.2001 7.19995 2.42396 7.19995 2.7001C7.19995 2.97625 7.42381 3.2001 7.69995 3.2001H8V3.5001C8 3.77624 8.22386 4.0001 8.5 4.0001C8.77614 4.0001 9 3.77624 9 3.5001V3.2001H9.09995C9.37609 3.2001 9.59995 2.97625 9.59995 2.7001C9.59995 2.42396 9.37609 2.2001 9.09995 2.2001H9V2.1001ZM10.0465 4.53944C9.85121 4.7347 9.85121 5.05128 10.0465 5.24654C10.2417 5.44181 10.5583 5.44181 10.7536 5.24654L11.6465 4.35365C11.8417 4.15839 11.8417 3.84181 11.6465 3.64654C11.4512 3.45128 11.1346 3.45128 10.9394 3.64654L10.0465 4.53944ZM2.04647 12.5394C1.85121 12.7347 1.85121 13.0513 2.04647 13.2465C2.24173 13.4418 2.55832 13.4418 2.75358 13.2465L9.24647 6.75365C9.44173 6.55839 9.44173 6.24181 9.24647 6.04654C9.05121 5.85128 8.73463 5.85128 8.53936 6.04654L2.04647 12.5394ZM11.2 8.30008C11.2 8.02394 11.4238 7.80008 11.7 7.80008H12V7.7001C12 7.42396 12.2239 7.2001 12.5 7.2001C12.7761 7.2001 13 7.42396 13 7.7001V7.80008H13.1C13.3761 7.80008 13.6 8.02394 13.6 8.30008C13.6 8.57622 13.3761 8.80008 13.1 8.80008H13V9.1001C13 9.37625 12.7761 9.6001 12.5 9.6001C12.2239 9.6001 12 9.37625 12 9.1001V8.80008H11.7C11.4238 8.80008 11.2 8.57622 11.2 8.30008ZM3.19995 5.1001C3.19995 4.82396 3.42381 4.6001 3.69995 4.6001H4V4.50009C4 4.22395 4.22386 4.00009 4.5 4.00009C4.77614 4.00009 5 4.22395 5 4.50009V4.6001H5.09995C5.37609 4.6001 5.59995 4.82396 5.59995 5.1001C5.59995 5.37624 5.37609 5.6001 5.09995 5.6001H5V5.90009C5 6.17623 4.77614 6.40009 4.5 6.40009C4.22386 6.40009 4 6.17623 4 5.90009V5.6001H3.69995C3.42381 5.6001 3.19995 5.37624 3.19995 5.1001Z" />
</svg>
