<svg viewBox="0 0 16 16" xmlns="http://www.w3.org/2000/svg">
<path d="M12.105 7.06505H2.8875C2.07 7.06505 1.4025 6.39755 1.4025 5.58005C1.4025 4.76255 2.07 4.09505 2.8875 4.09505H10.3425C10.5225 4.96505 11.295 5.62505 12.2175 5.62505C13.275 5.62505 14.1375 4.76255 14.1375 3.70505C14.1375 2.64755 13.2825 1.80005 12.225 1.80005C11.3025 1.80005 10.53 2.46005 10.35 3.33005H2.8875C1.6425 3.33005 0.630005 4.34255 0.630005 5.58755C0.630005 6.83255 1.6425 7.84505 2.8875 7.84505H12.0975C12.915 7.84505 13.5825 8.51255 13.5825 9.33005C13.5825 10.1475 12.915 10.815 12.0975 10.815H4.77C4.59 9.94505 3.8175 9.28505 2.895 9.28505C1.8375 9.28505 0.975005 10.1475 0.975005 11.205C0.975005 12.2625 1.8375 13.125 2.895 13.125C3.8175 13.125 4.59 12.465 4.77 11.595H12.105C13.35 11.595 14.3625 10.5825 14.3625 9.33755C14.3625 8.08505 13.35 7.06505 12.105 7.06505ZM12.225 2.58005C12.855 2.58005 13.365 3.09005 13.365 3.72005C13.365 4.35005 12.855 4.86005 12.225 4.86005C11.595 4.86005 11.085 4.35005 11.085 3.72005C11.085 3.09005 11.595 2.58005 12.225 2.58005ZM2.8875 12.3375C2.2575 12.3375 1.7475 11.8275 1.7475 11.1975C1.7475 10.5675 2.2575 10.0575 2.8875 10.0575C3.5175 10.0575 4.0275 10.5675 4.0275 11.1975C4.0275 11.8275 3.5175 12.3375 2.8875 12.3375Z" />
</svg>
