<svg viewBox="0 0 16 16" xmlns="http://www.w3.org/2000/svg">
<path fill-rule="evenodd" clip-rule="evenodd" d="M8.13282 11.4167L12.9328 13.8667V4.26675C12.9328 3.38309 12.2165 2.66675 11.3328 2.66675H4.93282C4.04917 2.66675 3.33282 3.38309 3.33282 4.26675V13.8667L8.13282 11.4167ZM4.13282 12.5602L8.13282 10.5186L12.1328 12.5602V4.26675C12.1328 3.82492 11.7747 3.46675 11.3328 3.46675H4.93282C4.491 3.46675 4.13282 3.82492 4.13282 4.26675V12.5602ZM8.13353 4.64331L8.74934 6.46425H10.7421L9.12993 7.58966L9.74574 9.4106L8.13353 8.2852L6.52132 9.4106L7.13713 7.58966L5.52491 6.46425H7.51772L8.13353 4.64331Z" />
</svg>
