<svg viewBox="0 0 16 16" xmlns="http://www.w3.org/2000/svg">
<path fill-rule="evenodd" clip-rule="evenodd" d="M6.89496 12.7137C6.88674 12.7622 6.86804 12.7881 6.8108 12.8102C6.73647 12.8389 6.60949 12.8471 6.46739 12.7973C6.3306 12.7493 6.21088 12.6579 6.13646 12.5309C6.06548 12.4097 6.01431 12.2198 6.07424 11.9309C6.33185 10.6887 6.63071 9.77547 6.73972 9.49265C6.799 9.33888 6.77869 9.16578 6.68544 9.0299C6.5922 8.89402 6.43798 8.81281 6.27318 8.81281H3.901C3.5831 8.81281 3.34592 8.52004 3.41189 8.20906L4.39747 3.56283C4.44648 3.33181 4.65043 3.16658 4.88659 3.16658L9.66663 3.16658L9.66663 8.83821C9.22595 8.934 8.78699 9.09979 8.4622 9.39384C7.49295 10.2713 7.06344 11.719 6.89496 12.7137ZM10.6666 8.7151C10.9669 8.70065 11.2668 8.70264 11.5497 8.71408C11.9009 8.72829 12.1666 8.46153 12.1666 8.17072L12.1666 3.66658C12.1666 3.39044 11.9428 3.16658 11.6666 3.16658H10.6666L10.6666 8.7151ZM5.09508 11.7278C4.99107 12.2293 5.06286 12.6766 5.27364 13.0364C5.48098 13.3903 5.80183 13.6235 6.13635 13.7409C6.46557 13.8564 6.84064 13.8707 7.17102 13.7431C7.51849 13.6089 7.80716 13.3162 7.88092 12.8807C8.04031 11.9397 8.42346 10.7778 9.13335 10.1352C9.3043 9.98038 9.61949 9.85289 10.0749 9.77828C10.5163 9.70597 11.0232 9.6936 11.5092 9.71327C12.3666 9.74795 13.1666 9.08943 13.1666 8.17072L13.1666 3.66658C13.1666 2.83815 12.4951 2.16658 11.6666 2.16658L4.88659 2.16658C4.17812 2.16658 3.56625 2.66227 3.41924 3.35532L2.43365 8.00155C2.23575 8.93449 2.9473 9.81281 3.901 9.81281H5.57935C5.43459 10.2892 5.2564 10.95 5.09508 11.7278Z" />
</svg>
