<svg viewBox="0 0 16 16" xmlns="http://www.w3.org/2000/svg">
<path fill-rule="evenodd" clip-rule="evenodd" d="M7.99998 13.4001C10.9823 13.4001 13.4 10.9824 13.4 8.0001C13.4 5.01776 10.9823 2.6001 7.99998 2.6001C5.01764 2.6001 2.59998 5.01776 2.59998 8.0001C2.59998 10.9824 5.01764 13.4001 7.99998 13.4001ZM7.99998 14.4001C11.5346 14.4001 14.4 11.5347 14.4 8.0001C14.4 4.46548 11.5346 1.6001 7.99998 1.6001C4.46535 1.6001 1.59998 4.46548 1.59998 8.0001C1.59998 11.5347 4.46535 14.4001 7.99998 14.4001ZM5.81637 5.67496C6.01163 5.4797 6.32821 5.4797 6.52348 5.67496L8.43268 7.58417L10.2004 5.8164C10.3957 5.62114 10.7123 5.62114 10.9076 5.8164C11.1028 6.01166 11.1028 6.32824 10.9076 6.52351L9.13979 8.29127L10.9075 10.059C11.1028 10.2543 11.1028 10.5709 10.9075 10.7661C10.7123 10.9614 10.3957 10.9614 10.2004 10.7661L8.43268 8.99838L6.52349 10.9076C6.32823 11.1028 6.01165 11.1028 5.81639 10.9076C5.62112 10.7123 5.62112 10.3957 5.81639 10.2005L7.72557 8.29128L5.81637 6.38207C5.62111 6.18681 5.62111 5.87023 5.81637 5.67496Z" />
</svg>
