<svg viewBox="0 0 16 16" xmlns="http://www.w3.org/2000/svg">
<path d="M12.8742 3.184L12.8242 3.18407V3.1843V3.18518V3.18871L12.8242 3.20264L12.8242 3.25696L12.8243 3.46314L12.8247 4.19904C12.8252 4.80806 12.8262 5.62009 12.8282 6.43212C12.8302 7.24414 12.8332 8.05624 12.8377 8.66537C12.84 8.96991 12.8426 9.22386 12.8457 9.40174C12.8472 9.49062 12.8488 9.5608 12.8506 9.60889C12.8515 9.63283 12.8524 9.65187 12.8534 9.66517C12.8539 9.67162 12.8545 9.67785 12.8553 9.68296C12.8555 9.68436 12.8559 9.68654 12.8565 9.68909C12.8592 9.73378 12.8818 9.7743 12.9109 9.80336C12.9419 9.83437 12.9859 9.858 13.0342 9.858H13.3862C13.4345 9.858 13.4785 9.83437 13.5096 9.80336C13.5406 9.77234 13.5642 9.72826 13.5642 9.68V3.312C13.5642 2.5476 12.933 1.95 12.2022 1.95H3.24221C2.5746 1.95 2.04021 2.48439 2.04021 3.152V12.848C2.04021 13.5156 2.5746 14.05 3.24221 14.05H6.15421C6.20247 14.05 6.24655 14.0264 6.27757 13.9954C6.30858 13.9643 6.33221 13.9203 6.33221 13.872V13.52C6.33221 13.4717 6.30858 13.4277 6.27757 13.3966C6.24655 13.3656 6.20247 13.342 6.15421 13.342H3.40221C3.01382 13.342 2.71621 13.0444 2.71621 12.656V3.312C2.71621 2.92361 3.01382 2.626 3.40221 2.626H12.4582C12.5476 2.626 12.6382 2.68395 12.7088 2.78808C12.7789 2.89134 12.8242 3.03345 12.8242 3.184H12.8742ZM10.5158 4.84373L10.5173 4.84475L10.5216 4.83181C10.5606 4.71481 10.5203 4.60064 10.4476 4.51878C10.3752 4.43741 10.2661 4.382 10.1542 4.382H4.17021C4.08403 4.382 4.0093 4.39918 3.95047 4.4384C3.89113 4.47796 3.85289 4.53668 3.83417 4.61003C3.7962 4.72638 3.83646 4.83979 3.90884 4.92122C3.98117 5.00259 4.09027 5.058 4.20221 5.058H10.1542C10.2304 5.058 10.3037 5.0296 10.3652 4.99006C10.4269 4.95044 10.4799 4.89761 10.5158 4.84373ZM12.3336 9.71536L12.34 9.70894L12.3437 9.70069C12.5059 9.34393 12.6042 8.98483 12.6042 8.592C12.6042 7.38133 11.6228 6.334 10.3462 6.334C9.13554 6.334 8.08821 7.31545 8.08821 8.592C8.08821 8.95314 8.1867 9.3123 8.34869 9.66869L8.35244 9.67694L8.35802 9.68252C8.35793 9.68292 8.35783 9.68337 8.3577 9.68387C8.35679 9.68754 8.35593 9.69008 8.35465 9.69386C8.35371 9.69663 8.35255 9.70007 8.35099 9.70509C8.34899 9.71148 8.34648 9.72018 8.34515 9.73023L6.84684 12.695C6.80364 12.7621 6.8156 12.8324 6.85474 12.8827C6.89224 12.9309 6.95482 12.962 7.01821 12.962V12.9625L7.02491 12.9615L8.20533 12.802C8.24336 12.8029 8.26238 12.8191 8.29069 12.8472L8.89558 13.8341L8.89555 13.8341L8.89661 13.8357C8.93713 13.8965 9.00018 13.93 9.06221 13.93C9.12453 13.93 9.18388 13.8954 9.20823 13.8279L10.3585 11.6231L10.3591 11.6234L10.3616 11.6158C10.3688 11.5944 10.3924 11.578 10.4262 11.578C10.46 11.578 10.4836 11.5944 10.4908 11.6158L10.4899 11.6161L10.4947 11.6246L11.7405 13.8288C11.7669 13.8998 11.8374 13.93 11.8982 13.93C11.9598 13.93 12.0313 13.8991 12.0568 13.8262L12.4998 12.8136C12.5111 12.8039 12.5272 12.7934 12.5446 12.7847C12.5547 12.7796 12.5643 12.7757 12.5724 12.7731C12.5764 12.7719 12.5797 12.771 12.5823 12.7705L12.5852 12.7701C12.5856 12.77 12.5858 12.77 12.586 12.77L13.7689 12.802L13.7689 12.802H13.7702C13.8476 12.802 13.907 12.7719 13.9379 12.7163C13.967 12.6639 13.9643 12.6002 13.9456 12.5442L13.9466 12.5439L13.9415 12.5349C13.8204 12.3258 13.6165 11.9774 13.3932 11.5959C12.9661 10.866 12.4679 10.0147 12.3421 9.78406L12.3387 9.77774L12.3336 9.77264C12.3291 9.76814 12.3242 9.75808 12.3242 9.744C12.3242 9.72992 12.3291 9.71986 12.3336 9.71536ZM12.1989 12.1726L12.1938 12.1777L12.1903 12.1841L11.849 12.8097L11.7601 12.6547C11.6787 12.5122 11.5677 12.3174 11.4498 12.1075C11.2144 11.6886 10.9526 11.2124 10.8408 10.9736C10.8285 10.935 10.8305 10.9015 10.8399 10.8803C10.848 10.862 10.8623 10.85 10.8902 10.85V10.8507L10.8984 10.8493C11.2936 10.7835 11.6533 10.5863 11.9774 10.327L11.9776 10.3273L11.9816 10.3234C12.0005 10.3045 12.0226 10.3002 12.0434 10.3048C12.0657 10.3098 12.0847 10.3247 12.0935 10.3424L12.0934 10.3424L12.0945 10.3444L13.0201 12.0039C13.0393 12.0693 12.9954 12.1252 12.9394 12.126L12.365 12.0941L12.365 12.094H12.3622C12.2775 12.094 12.2327 12.1388 12.2003 12.1712L12.1989 12.1726ZM8.45821 12.126V12.1257L8.45269 12.1263L7.87974 12.19C7.85117 12.1892 7.828 12.1751 7.81308 12.1503C7.79783 12.1248 7.78988 12.0852 7.80126 12.0343L8.75792 10.3123L8.75796 10.3123L8.75893 10.3104C8.76775 10.2927 8.78674 10.2778 8.80906 10.2728C8.82983 10.2682 8.85197 10.2725 8.87085 10.2914L8.87079 10.2914L8.87299 10.2934C9.16427 10.5523 9.52258 10.7812 9.91612 10.88C9.95561 10.8935 9.97362 10.9106 9.98149 10.9264C9.98923 10.9418 9.99216 10.966 9.97993 11.0046L9.08582 12.729L9.08527 12.7287L9.08278 12.7362C9.07564 12.7576 9.05199 12.774 9.01821 12.774C8.98443 12.774 8.96078 12.7576 8.95364 12.7362L8.95501 12.7357L8.94861 12.7255L8.62977 12.2154C8.58346 12.1258 8.49186 12.1259 8.46034 12.126L8.45821 12.126ZM5.96221 9.15H4.17021C3.98715 9.15 3.87308 9.26127 3.83478 9.37619C3.79578 9.49319 3.83608 9.60736 3.90884 9.68922C3.98117 9.77059 4.09027 9.826 4.20221 9.826H5.99421C6.08039 9.826 6.15512 9.80882 6.21394 9.7696C6.27329 9.73004 6.31153 9.67132 6.33025 9.59797C6.36822 9.48161 6.32796 9.36821 6.25558 9.28678C6.18325 9.20541 6.07415 9.15 5.96221 9.15ZM4.20221 6.75C3.95294 6.75 3.75855 6.96689 3.83417 7.19798C3.85234 7.26929 3.88925 7.33578 3.94821 7.38C4.00778 7.42467 4.08487 7.44282 4.17499 7.426H6.57021C6.65639 7.426 6.73112 7.40882 6.78995 7.3696C6.84929 7.33004 6.88753 7.27132 6.90625 7.19797C6.94422 7.08161 6.90396 6.96821 6.83158 6.88678C6.75925 6.80541 6.65015 6.75 6.53821 6.75H4.20221ZM11.5589 9.83664C11.28 10.1155 10.8766 10.302 10.4102 10.302C9.94382 10.302 9.54044 10.1155 9.26157 9.83664C8.98269 9.55777 8.79621 9.15439 8.79621 8.688C8.79621 8.28386 8.95189 7.84903 9.26157 7.53936C9.54044 7.26048 9.94382 7.074 10.4102 7.074C10.8143 7.074 11.2492 7.22968 11.5589 7.53936C11.8377 7.81823 12.0242 8.22161 12.0242 8.688C12.0242 9.09214 11.8685 9.52697 11.5589 9.83664Z"  stroke="white" stroke-width="0.1"/>
</svg>
