<svg viewBox="0 0 16 16" xmlns="http://www.w3.org/2000/svg">
<path fill-rule="evenodd" clip-rule="evenodd" d="M10.9746 6.55683L10.7876 6.08838C10.3452 4.98014 9.26247 4.19995 7.99998 4.19995C6.52719 4.19995 5.30044 5.26224 5.04779 6.66262L4.93133 7.30811L4.29289 7.45845C3.32192 7.68709 2.59998 8.56043 2.59998 9.59995C2.59998 10.815 3.58495 11.8 4.79998 11.8H10.8H10.9461L11.0901 11.784C12.389 11.6404 13.4 10.5376 13.4 9.19995C13.4 7.9941 12.5782 6.97765 11.4625 6.68486L10.9746 6.55683ZM11.2 12.778V12.8H10.8H10.2H4.79998C3.03266 12.8 1.59998 11.3673 1.59998 9.59995C1.59998 8.08603 2.65129 6.81766 4.06367 6.48507C4.4007 4.61704 6.03485 3.19995 7.99998 3.19995C9.6854 3.19995 11.1274 4.24235 11.7163 5.71761C13.2607 6.12291 14.4 7.52839 14.4 9.19995C14.4 11.053 13 12.579 11.2 12.778ZM7.69995 5.59995C7.97609 5.59995 8.19995 5.8238 8.19995 6.09995V9.23843L9.34348 8.0949C9.53874 7.89964 9.85532 7.89964 10.0506 8.0949C10.2458 8.29016 10.2458 8.60675 10.0506 8.80201L8.00206 10.8505L7.6485 11.2041L7.29495 10.8505L5.24642 8.80201C5.05116 8.60675 5.05116 8.29016 5.24642 8.0949C5.44168 7.89964 5.75827 7.89964 5.95353 8.0949L7.19995 9.34132V6.09995C7.19995 5.8238 7.42381 5.59995 7.69995 5.59995Z" />
</svg>
