<svg viewBox="0 0 16 16" xmlns="http://www.w3.org/2000/svg">
<path fill-rule="evenodd" clip-rule="evenodd" d="M7.5 3.5H8.5V6.5H7.5V3.5ZM6.5 6.5V3.5C6.5 2.94772 6.94772 2.5 7.5 2.5H8.5C9.05228 2.5 9.5 2.94772 9.5 3.5V6.5H11.5H12.5H14C14.2761 6.5 14.5 6.72386 14.5 7C14.5 7.27614 14.2761 7.5 14 7.5H12.5V12.5C12.5 13.0523 12.0523 13.5 11.5 13.5H8.5H7.5H4.5C3.94772 13.5 3.5 13.0523 3.5 12.5V7.5H2C1.72386 7.5 1.5 7.27614 1.5 7C1.5 6.72386 1.72386 6.5 2 6.5H3.5H4.5H6.5ZM9.5 7.5H8.5H7.5H6.5H4.5V12.5H7.5V10.5H8.5V12.5H11.5V7.5H9.5Z" />
</svg>
