<svg viewBox="0 0 16 16" xmlns="http://www.w3.org/2000/svg">
<path fill-rule="evenodd" clip-rule="evenodd" d="M5.80005 1.8999C4.97162 1.8999 4.30005 2.57148 4.30005 3.3999V4.7999H2.59998C2.04769 4.7999 1.59998 5.24761 1.59998 5.7999V13.3999C1.59998 13.9522 2.04769 14.3999 2.59998 14.3999H10.2C10.7523 14.3999 11.2 13.9522 11.2 13.3999V11.6583C11.2612 11.685 11.3289 11.6999 11.4 11.6999H12.6C13.4285 11.6999 14.1 11.0283 14.1 10.1999V3.3999C14.1 2.57147 13.4285 1.8999 12.6 1.8999H5.80005ZM11.2 10.7415C11.2612 10.7148 11.3289 10.6999 11.4 10.6999H12.6C12.8762 10.6999 13.1 10.476 13.1 10.1999V3.3999C13.1 3.12376 12.8762 2.8999 12.6 2.8999H5.80005C5.52391 2.8999 5.30005 3.12376 5.30005 3.3999V4.7999H10.2C10.7523 4.7999 11.2 5.24761 11.2 5.7999V10.7415ZM2.59998 5.7999H10.2V13.3999H2.59998L2.59998 5.7999Z" />
</svg>
