<svg viewBox="0 0 16 16" xmlns="http://www.w3.org/2000/svg">
<path fill-rule="evenodd" clip-rule="evenodd" d="M13 3H3L3 13H13V3ZM3 2C2.44772 2 2 2.44772 2 3V13C2 13.5523 2.44772 14 3 14H13C13.5523 14 14 13.5523 14 13V3C14 2.44772 13.5523 2 13 2H3ZM5.52518 5.38369C5.72045 5.18843 6.03703 5.18843 6.23229 5.38369L8.14143 7.29283L9.90914 5.52512C10.1044 5.32986 10.421 5.32986 10.6162 5.52512C10.8115 5.72039 10.8115 6.03697 10.6162 6.23223L8.84854 7.99994L10.6164 9.76775C10.8116 9.96302 10.8116 10.2796 10.6164 10.4749C10.4211 10.6701 10.1045 10.6701 9.90925 10.4749L8.14143 8.70705L6.23219 10.6163C6.03692 10.8116 5.72034 10.8116 5.52508 10.6163C5.32982 10.421 5.32982 10.1044 5.52508 9.90918L7.43433 7.99994L5.52518 6.0908C5.32992 5.89553 5.32992 5.57895 5.52518 5.38369Z" />
</svg>
