<svg viewBox="0 0 16 16" xmlns="http://www.w3.org/2000/svg">
<path fill-rule="evenodd" clip-rule="evenodd" d="M2.59998 2.6001H13.4L13.4 13.4001L2.59998 13.4001V2.6001ZM1.59998 2.6001C1.59998 2.04781 2.04769 1.6001 2.59998 1.6001H13.4C13.9523 1.6001 14.4 2.04781 14.4 2.6001V13.4001C14.4 13.9524 13.9523 14.4001 13.4 14.4001H2.59998C2.04769 14.4001 1.59998 13.9524 1.59998 13.4001V2.6001ZM5.70704 8.26283L7.21622 6.75364L6.50912 6.04653L4.64638 7.90927L4.29282 8.26283L4.64638 8.61638L6.50912 10.4791L7.21622 9.77202L5.70704 8.26283ZM10.3942 8.26283L8.88497 6.75364L9.59208 6.04653L11.4548 7.90927L11.8084 8.26283L11.4548 8.61638L9.59208 10.4791L8.88497 9.77202L10.3942 8.26283Z" />
</svg>
