<svg viewBox="0 0 16 16" xmlns="http://www.w3.org/2000/svg">
<path fill-rule="evenodd" clip-rule="evenodd" d="M9.33134 4.66633L8.00005 2.14307L6.66876 4.66633C6.37937 5.21482 5.85192 5.59804 5.24085 5.70377L2.42969 6.19017L4.41806 8.23603C4.85028 8.68075 5.05175 9.30081 4.96348 9.91464L4.55737 12.7385L7.11755 11.4797C7.67406 11.206 8.32603 11.206 8.88254 11.4797L11.4427 12.7385L11.0366 9.91464C10.9483 9.30081 11.1498 8.68075 11.582 8.23603L13.5704 6.19017L10.7592 5.70377C10.1482 5.59804 9.62072 5.21482 9.33134 4.66633ZM8.88449 1.67643C8.50929 0.965281 7.4908 0.965279 7.1156 1.67643L5.78431 4.19969C5.63961 4.47394 5.37589 4.66554 5.07035 4.71841L2.2592 5.20481C1.46691 5.3419 1.15218 6.31053 1.71258 6.88713L3.70095 8.93299C3.91706 9.15535 4.0178 9.46538 3.97366 9.7723L3.56756 12.5962C3.4531 13.392 4.27707 13.9907 4.99862 13.6359L7.5588 12.3771C7.83705 12.2402 8.16304 12.2402 8.44129 12.3771L11.0015 13.6359C11.723 13.9907 12.547 13.392 12.4325 12.5962L12.0264 9.7723C11.9823 9.46538 12.083 9.15535 12.2991 8.93299L14.2875 6.88713C14.8479 6.31053 14.5332 5.3419 13.7409 5.20481L10.9297 4.71841C10.6242 4.66554 10.3605 4.47394 10.2158 4.19969L8.88449 1.67643Z" />
</svg>
