<svg viewBox="0 0 16 16" xmlns="http://www.w3.org/2000/svg">
<path fill-rule="evenodd" clip-rule="evenodd" d="M1 8.50003C1 8.22389 1.22386 8.00003 1.5 8.00003H5.5C5.77614 8.00003 6 8.22389 6 8.50003C6 8.77617 5.77614 9.00003 5.5 9.00003H1.5C1.22386 9.00003 1 8.77617 1 8.50003Z" />
<path fill-rule="evenodd" clip-rule="evenodd" d="M1 13.5C1 13.2239 1.22386 13 1.5 13H5.5C5.77614 13 6 13.2239 6 13.5C6 13.7762 5.77614 14 5.5 14H1.5C1.22386 14 1 13.7762 1 13.5Z" />
<path fill-rule="evenodd" clip-rule="evenodd" d="M1 3.50003C1 3.22389 1.22386 3.00003 1.5 3.00003H5.5C5.77614 3.00003 6 3.22389 6 3.50003C6 3.77617 5.77614 4.00003 5.5 4.00003H1.5C1.22386 4.00003 1 3.77617 1 3.50003Z" />
<path fill-rule="evenodd" clip-rule="evenodd" d="M7.15035 9.65551C7.34774 9.45916 7.66431 9.46269 7.85741 9.66341L11.0515 12.9833L14.1369 9.66941C14.3268 9.46551 14.6432 9.4567 14.8437 9.64974C15.0443 9.84277 15.0529 10.1646 14.8631 10.3685L11.7777 13.6823C11.3876 14.1012 10.7334 14.1067 10.3366 13.6943L7.14258 10.3745C6.94948 10.1737 6.95295 9.85186 7.15035 9.65551Z" />
<path fill-rule="evenodd" clip-rule="evenodd" d="M14.8727 6.90392C14.6886 7.11321 14.3725 7.13112 14.1667 6.94393L10.9481 4.01681L11.6148 3.25892L14.8333 6.18605C15.0392 6.37323 15.0568 6.69464 14.8727 6.90392ZM11.6148 3.25892C11.2306 2.90946 10.648 2.91429 10.2694 3.27009L7.16063 6.19163C6.95784 6.38221 6.94538 6.70386 7.13281 6.91006C7.32024 7.11626 7.63658 7.12893 7.83937 6.93835L10.9481 4.01681L11.6148 3.25892Z" />
</svg>
