<svg viewBox="0 0 16 16" xmlns="http://www.w3.org/2000/svg">
<path fill-rule="evenodd" clip-rule="evenodd" d="M14.2 8C14.2 11.4242 11.4242 14.2 8 14.2C4.57583 14.2 1.8 11.4242 1.8 8C1.8 4.57583 4.57583 1.8 8 1.8C11.4242 1.8 14.2 4.57583 14.2 8ZM15 8C15 11.866 11.866 15 8 15C4.13401 15 1 11.866 1 8C1 4.13401 4.13401 1 8 1C11.866 1 15 4.13401 15 8ZM5.4399 9.82188C5.309 9.64392 5.05862 9.60577 4.88067 9.73667C4.70271 9.86756 4.66456 10.1179 4.79545 10.2959C5.30896 10.994 6.20938 11.812 7.35479 12.0429C8.54227 12.2824 9.88207 11.8705 11.1886 10.3163C11.3307 10.1472 11.3089 9.89485 11.1398 9.7527C10.9707 9.61055 10.7183 9.63239 10.5762 9.8015C9.4121 11.1863 8.34995 11.4275 7.51291 11.2587C6.63381 11.0815 5.88717 10.43 5.4399 9.82188Z" />
</svg>
