<svg viewBox="0 0 16 16" xmlns="http://www.w3.org/2000/svg">
<path fill-rule="evenodd" clip-rule="evenodd" d="M2 4.5C2 3.67157 2.67157 3 3.5 3H12.1667C12.9951 3 13.6667 3.67157 13.6667 4.5V9.4675C13.6667 10.2959 12.9951 10.9675 12.1667 10.9675H8.11607L5.35587 13.2207C5.20628 13.3428 4.99976 13.3678 4.82531 13.285C4.65087 13.2023 4.53968 13.0264 4.53968 12.8333V10.9675H3.5C2.67157 10.9675 2 10.2959 2 9.4675V4.5ZM3.5 4C3.22386 4 3 4.22386 3 4.5V9.4675C3 9.74364 3.22386 9.9675 3.5 9.9675H4.53968C5.09197 9.9675 5.53968 10.4152 5.53968 10.9675V11.7797L7.48371 10.1928C7.66223 10.0471 7.88562 9.9675 8.11607 9.9675H12.1667C12.4428 9.9675 12.6667 9.74364 12.6667 9.4675V4.5C12.6667 4.22386 12.4428 4 12.1667 4H3.5Z" />
</svg>
