<svg viewBox="0 0 16 16" xmlns="http://www.w3.org/2000/svg">
<path fill-rule="evenodd" clip-rule="evenodd" d="M12.4 3.3999H3.59998C3.04769 3.3999 2.59998 3.84762 2.59998 4.3999V11.5999C2.59998 12.1522 3.04769 12.5999 3.59998 12.5999H12.4C12.9523 12.5999 13.4 12.1522 13.4 11.5999V4.3999C13.4 3.84762 12.9523 3.3999 12.4 3.3999ZM3.59998 2.3999C2.49541 2.3999 1.59998 3.29533 1.59998 4.3999V11.5999C1.59998 12.7045 2.49541 13.5999 3.59998 13.5999H12.4C13.5045 13.5999 14.4 12.7045 14.4 11.5999V4.3999C14.4 3.29533 13.5045 2.3999 12.4 2.3999H3.59998ZM5.41831 7.86266L3.50912 5.95347L4.21622 5.24636L6.47897 7.5091L6.83252 7.86266L6.47897 8.21621L4.21622 10.479L3.50912 9.77184L5.41831 7.86266ZM8 7.99991H12V6.99991H8V7.99991Z" />
</svg>
