<svg viewBox="0 0 16 16" xmlns="http://www.w3.org/2000/svg">
<path fill-rule="evenodd" clip-rule="evenodd" d="M12.6 2.6001H5.80005V4.00009H10.2C10.7523 4.00009 11.2 4.44781 11.2 5.00009V13.4001C11.2 13.9524 10.7523 14.4001 10.2 14.4001H3.40002C2.84774 14.4001 2.40002 13.9524 2.40002 13.4001V5.00009C2.40002 4.44781 2.84774 4.00009 3.40002 4.00009H4.80005V2.6001C4.80005 2.04781 5.24776 1.6001 5.80005 1.6001H12.6C13.1523 1.6001 13.6 2.04781 13.6 2.6001V11.0001C13.6 11.5524 13.1523 12.0001 12.6 12.0001H11.2V11.0001H12.6L12.6 2.6001ZM3.40002 5.00009H10.2L10.2 13.4001L3.40002 13.4001V5.00009ZM7 8.00009H5V7.00009H7V8.00009ZM5 11.2001H8.6V10.2001H5V11.2001Z" />
</svg>
