<svg viewBox="0 0 16 16" xmlns="http://www.w3.org/2000/svg">
<path fill-rule="evenodd" clip-rule="evenodd" d="M7.99996 1.1001C5.61167 1.1001 3.62797 2.83231 3.23667 5.10891C2.43444 5.30056 1.83337 6.01641 1.83337 6.87792C1.83337 7.71416 2.39971 8.41317 3.16663 8.62872V9.00009C3.16663 9.27623 3.39048 9.50009 3.66663 9.50009C3.94277 9.50009 4.16663 9.27623 4.16663 9.00009V5.93343C4.16663 3.81634 5.88287 2.1001 7.99996 2.1001C10.1171 2.1001 11.8333 3.81634 11.8333 5.93343V10.2477C11.8333 11.8256 10.5812 13.0777 9.06437 13.1413C9.02798 12.5909 8.56536 12.1557 8.00002 12.1557C7.41091 12.1557 6.93335 12.6283 6.93335 13.2113C6.93335 13.7942 7.41091 14.2668 8.00002 14.2668C8.19628 14.2668 8.38016 14.2144 8.53813 14.1228C10.8254 14.3605 12.8333 12.5655 12.8333 10.2477V8.62874C13.6003 8.41322 14.1666 7.71419 14.1666 6.87792C14.1666 6.01638 13.5655 5.30051 12.7632 5.10889C12.3719 2.8323 10.3882 1.1001 7.99996 1.1001ZM12.8333 6.22218V7.53365C13.0365 7.38332 13.1666 7.14402 13.1666 6.87792C13.1666 6.61181 13.0365 6.37251 12.8333 6.22218ZM2.83337 6.87792C2.83337 6.61185 2.96343 6.37257 3.16663 6.22224V7.53359C2.96343 7.38326 2.83337 7.14398 2.83337 6.87792Z" />
</svg>
