<svg viewBox="0 0 16 16" xmlns="http://www.w3.org/2000/svg">
<path fill-rule="evenodd" clip-rule="evenodd" d="M12.76 10.5527C11.8488 12.2479 10.0581 13.3999 7.99998 13.3999C5.01764 13.3999 2.59998 10.9822 2.59998 7.9999C2.59998 5.64675 4.10566 3.64445 6.20576 2.90491C6.20192 3.0028 6.19998 3.10114 6.19998 3.1999C6.19998 7.00278 9.06857 10.1357 12.76 10.5527ZM13.1638 9.58526C9.8326 9.36106 7.19998 6.58792 7.19998 3.1999C7.19998 3.01645 7.2077 2.83481 7.22282 2.65528C7.25242 2.30407 7.31037 1.96094 7.39439 1.62817C7.02932 1.66244 6.67316 1.72737 6.32852 1.82036C3.60448 2.55537 1.59998 5.04354 1.59998 7.9999C1.59998 11.5345 4.46535 14.3999 7.99998 14.3999C10.6105 14.3999 12.856 12.8369 13.8517 10.5957C13.9973 10.2679 14.1162 9.92564 14.2056 9.57162C14.0062 9.59033 13.8042 9.5999 13.6 9.5999C13.4534 9.5999 13.3079 9.59497 13.1638 9.58526Z" />
</svg>
