<svg viewBox="0 0 16 16" xmlns="http://www.w3.org/2000/svg">
<path fill-rule="evenodd" clip-rule="evenodd" d="M3.80005 3.20011V2.1001C3.80005 1.82396 4.02391 1.6001 4.30005 1.6001C4.57619 1.6001 4.80005 1.82396 4.80005 2.1001V3.20011H11V2.1001C11 1.82396 11.2239 1.6001 11.5 1.6001C11.7761 1.6001 12 1.82396 12 2.1001V3.20011H13.4C13.9523 3.20011 14.4 3.64783 14.4 4.20011V6.20011V7.20011V13.4001C14.4 13.9524 13.9523 14.4001 13.4 14.4001H2.59998C2.04769 14.4001 1.59998 13.9524 1.59998 13.4001V7.20011V6.20011V4.20011C1.59998 3.64782 2.04769 3.20011 2.59998 3.20011H3.80005ZM2.59998 7.20011V13.4001H13.4L13.4 7.20011H2.59998ZM13.4 6.20011H2.59998V4.20011L13.4 4.20011V6.20011ZM5 9.90009C5 9.62395 5.22386 9.40009 5.5 9.40009H10.5C10.7761 9.40009 11 9.62395 11 9.90009C11 10.1762 10.7761 10.4001 10.5 10.4001H5.5C5.22386 10.4001 5 10.1762 5 9.90009Z" />
</svg>
