<svg viewBox="0 0 16 16" xmlns="http://www.w3.org/2000/svg">
<path fill-rule="evenodd" clip-rule="evenodd" d="M3.85067 3.35062C3.65382 3.15695 3.33725 3.15952 3.14358 3.35636C2.94992 3.55321 2.95249 3.86978 3.14933 4.06345L6.85844 7.71273C7.25217 8.10011 7.88538 8.09491 8.2727 7.70114L11.8565 4.05765C12.0501 3.86078 12.0475 3.54421 11.8506 3.35057C11.6537 3.15693 11.3372 3.15954 11.1435 3.35641L7.55978 6.9999L3.85067 3.35062ZM3.85067 7.35062C3.65382 7.15695 3.33725 7.15952 3.14358 7.35636C2.94992 7.55321 2.95249 7.86978 3.14933 8.06345L6.85844 11.7127C7.25217 12.1001 7.88538 12.0949 8.2727 11.7011L11.8565 8.05765C12.0501 7.86078 12.0475 7.54421 11.8506 7.35057C11.6537 7.15693 11.3372 7.15954 11.1435 7.35641L7.55978 10.9999L3.85067 7.35062Z" />
</svg>
