<svg viewBox="0 0 16 16" xmlns="http://www.w3.org/2000/svg">
<path fill-rule="evenodd" clip-rule="evenodd" d="M12.6493 12.1493C12.8429 12.3462 12.8404 12.6627 12.6435 12.8564C12.4467 13.0501 12.1301 13.0475 11.9364 12.8507L8.28714 9.14156C7.89977 8.74783 7.90496 8.11462 8.29874 7.7273L11.9422 4.14354C12.1391 3.9499 12.4557 3.95251 12.6493 4.14938C12.843 4.34625 12.8403 4.66282 12.6435 4.85646L8.99998 8.44022L12.6493 12.1493ZM8.64926 12.1493C8.84293 12.3462 8.84036 12.6627 8.64351 12.8564C8.44667 13.0501 8.1301 13.0475 7.93643 12.8507L4.28714 9.14156C3.89977 8.74783 3.90496 8.11462 4.29874 7.7273L7.94223 4.14354C8.1391 3.9499 8.45567 3.95251 8.64931 4.14938C8.84295 4.34625 8.84034 4.66282 8.64347 4.85646L4.99998 8.44022L8.64926 12.1493Z" />
</svg>
