<svg viewBox="0 0 16 16" xmlns="http://www.w3.org/2000/svg">
<path fill-rule="evenodd" clip-rule="evenodd" d="M3.35074 12.1493C3.15707 12.3462 3.15964 12.6627 3.35649 12.8564C3.55333 13.0501 3.8699 13.0475 4.06357 12.8507L7.71286 9.14156C8.10023 8.74783 8.09504 8.11462 7.70126 7.7273L4.05777 4.14354C3.8609 3.9499 3.54433 3.95251 3.35069 4.14938C3.15705 4.34625 3.15966 4.66282 3.35653 4.85646L7.00002 8.44022L3.35074 12.1493ZM7.35074 12.1493C7.15707 12.3462 7.15964 12.6627 7.35649 12.8564C7.55333 13.0501 7.8699 13.0475 8.06357 12.8507L11.7129 9.14156C12.1002 8.74783 12.095 8.11462 11.7013 7.7273L8.05777 4.14354C7.8609 3.9499 7.54433 3.95251 7.35069 4.14938C7.15705 4.34625 7.15966 4.66282 7.35653 4.85646L11 8.44022L7.35074 12.1493Z" />
</svg>
