<svg viewBox="0 0 16 16" xmlns="http://www.w3.org/2000/svg">
<path fill-rule="evenodd" clip-rule="evenodd" d="M12.1493 12.6494C12.3462 12.8431 12.6627 12.8405 12.8564 12.6436C13.0501 12.4468 13.0475 12.1302 12.8507 11.9366L9.14156 8.28727C8.74783 7.89989 8.11462 7.90509 7.7273 8.29886L4.14354 11.9423C3.9499 12.1392 3.95251 12.4558 4.14938 12.6494C4.34625 12.8431 4.66282 12.8405 4.85646 12.6436L8.44022 9.0001L12.1493 12.6494ZM12.1493 8.64938C12.3462 8.84305 12.6627 8.84048 12.8564 8.64364C13.0501 8.44679 13.0475 8.13022 12.8507 7.93655L9.14156 4.28727C8.74783 3.89989 8.11462 3.90508 7.7273 4.29886L4.14354 7.94235C3.9499 8.13922 3.95251 8.45579 4.14938 8.64943C4.34625 8.84307 4.66282 8.84046 4.85646 8.64359L8.44022 5.0001L12.1493 8.64938Z" />
</svg>
