<svg viewBox="0 0 16 16" xmlns="http://www.w3.org/2000/svg">
<path fill-rule="evenodd" clip-rule="evenodd" d="M6.5 2.33325H8.83333C9.21707 2.33325 9.55033 2.5494 9.71799 2.86659H5.61534C5.78301 2.5494 6.11626 2.33325 6.5 2.33325ZM8.83333 1.33325C9.77722 1.33325 10.5684 1.98711 10.7786 2.86659C10.7891 2.91049 10.7981 2.95496 10.8057 2.99994H13.5C13.7761 2.99994 14 3.2238 14 3.49994C14 3.77608 13.7761 3.99994 13.5 3.99994H12.7333V4.23328V12.9999C12.7333 13.5522 12.2856 13.9999 11.7333 13.9999H3.59998C3.04769 13.9999 2.59998 13.5522 2.59998 12.9999V4.23328V3.99994H1.5C1.22386 3.99994 1 3.77608 1 3.49994C1 3.2238 1.22386 2.99994 1.5 2.99994H4.52765C4.53519 2.95496 4.54424 2.91049 4.55474 2.86659C4.76495 1.98711 5.55612 1.33325 6.5 1.33325H8.83333ZM11.7333 4.23328H3.59998V12.9999H11.7333V4.23328ZM9.43335 5.7666C9.70949 5.7666 9.93335 5.99046 9.93335 6.2666V10.9666C9.93335 11.2427 9.70949 11.4666 9.43335 11.4666C9.15721 11.4666 8.93335 11.2427 8.93335 10.9666V6.2666C8.93335 5.99046 9.15721 5.7666 9.43335 5.7666ZM6.76672 6.2666C6.76672 5.99046 6.54287 5.7666 6.26672 5.7666C5.99058 5.7666 5.76672 5.99046 5.76672 6.2666V10.9666C5.76672 11.2427 5.99058 11.4666 6.26672 11.4666C6.54287 11.4666 6.76672 11.2427 6.76672 10.9666V6.2666Z" />
</svg>
