<svg viewBox="0 0 16 16" xmlns="http://www.w3.org/2000/svg">
<path fill-rule="evenodd" clip-rule="evenodd" d="M8.73943 2.70021C8.59019 2.61881 8.40981 2.61881 8.26057 2.70021L4.04416 5.00007L8.26057 7.29993C8.40981 7.38134 8.59019 7.38134 8.73943 7.29993L12.9558 5.00007L8.73943 2.70021ZM13.5 5.84234L9.21828 8.17783C9.1476 8.21638 9.0746 8.24884 9 8.27522V13.1578L13.2394 10.8454C13.4001 10.7578 13.5 10.5894 13.5 10.4064V5.84234ZM8 8.27522C7.9254 8.24884 7.8524 8.21638 7.78172 8.17783L3.5 5.84234V10.4064C3.5 10.5894 3.59994 10.7578 3.76057 10.8454L8 13.1578V8.27522ZM7.78172 1.82232C8.22944 1.57811 8.77056 1.57811 9.21828 1.82232L13.7183 4.27686C14.2002 4.53971 14.5 5.04479 14.5 5.59371V10.4064C14.5 10.9554 14.2002 11.4604 13.7183 11.7233L9.21828 14.1778C8.77056 14.422 8.22944 14.422 7.78172 14.1778L3.28172 11.7233C2.79983 11.4604 2.5 10.9554 2.5 10.4064V5.59371C2.5 5.04479 2.79983 4.53971 3.28172 4.27686L7.78172 1.82232Z" />
</svg>
