<svg viewBox="0 0 16 16" xmlns="http://www.w3.org/2000/svg">
<path fill-rule="evenodd" clip-rule="evenodd" d="M13.2666 5.42857V12.8475H2.59998V3.51416L7.28738 3.51416L7.61979 4.25101C7.94315 4.96779 8.65652 5.42857 9.44287 5.42857H13.2666ZM1.59998 3.51416C1.59998 2.96187 2.04769 2.51416 2.59998 2.51416H7.28738C7.68056 2.51416 8.03724 2.74455 8.19892 3.10294L8.53133 3.83979C8.69301 4.19818 9.0497 4.42857 9.44287 4.42857H13.2666C13.8189 4.42857 14.2666 4.87629 14.2666 5.42857V12.8475C14.2666 13.3998 13.8189 13.8475 13.2666 13.8475H2.59998C2.04769 13.8475 1.59998 13.3998 1.59998 12.8475V3.51416ZM9.44128 2.6438C9.16514 2.6438 8.94128 2.86766 8.94128 3.1438C8.94128 3.41994 9.16514 3.6438 9.44128 3.6438H13.0603C13.3365 3.6438 13.5603 3.41994 13.5603 3.1438C13.5603 2.86766 13.3365 2.6438 13.0603 2.6438H9.44128Z" />
</svg>
