<svg viewBox="0 0 16 16" xmlns="http://www.w3.org/2000/svg">
<path fill-rule="evenodd" clip-rule="evenodd" d="M13 8C13 10.7614 10.7614 13 8 13C5.23858 13 3 10.7614 3 8C3 5.23858 5.23858 3 8 3C10.7614 3 13 5.23858 13 8ZM14 8C14 11.3137 11.3137 14 8 14C4.68629 14 2 11.3137 2 8C2 4.68629 4.68629 2 8 2C11.3137 2 14 4.68629 14 8ZM6.55067 5.28269C6.924 4.87202 7.44667 4.66669 8.11867 4.66669C8.716 4.66669 9.192 4.82535 9.556 5.16135C9.90133 5.47869 10.0787 5.91735 10.0787 6.47735C10.0787 6.89735 9.95733 7.26135 9.724 7.56935C9.63067 7.68135 9.37867 7.92402 8.968 8.28802C8.76267 8.46535 8.62267 8.63335 8.52933 8.80135C8.408 9.00669 8.352 9.23069 8.352 9.48269V9.69735H7.60533V9.48269C7.60533 9.17469 7.66133 8.90402 7.77333 8.67069C7.904 8.39069 8.212 8.03602 8.716 7.58802L8.71602 7.588C8.86534 7.43868 8.97734 7.32668 9.03333 7.25202C9.22 7.01869 9.31333 6.77602 9.31333 6.51469C9.31333 6.14135 9.20133 5.85202 8.996 5.64669C8.78133 5.42269 8.47333 5.32002 8.08133 5.32002C7.61467 5.32002 7.26933 5.46935 7.04533 5.77735C6.84 6.03869 6.73733 6.39335 6.73733 6.85069H6C6 6.19735 6.17733 5.67469 6.55067 5.28269ZM7.57733 10.5094C7.68933 10.3974 7.82 10.3507 7.97867 10.3507C8.13733 10.3507 8.27733 10.3974 8.38933 10.5094C8.492 10.612 8.548 10.7427 8.548 10.9014C8.548 11.0694 8.492 11.2 8.38 11.3027C8.268 11.4054 8.13733 11.4614 7.97867 11.4614C7.82 11.4614 7.68933 11.4054 7.57733 11.3027C7.46533 11.1907 7.41867 11.06 7.41867 10.9014C7.41867 10.7427 7.46533 10.612 7.57733 10.5094Z" />
</svg>
