<svg viewBox="0 0 16 16" xmlns="http://www.w3.org/2000/svg">
<path fill-rule="evenodd" clip-rule="evenodd" d="M8.64706 8.9677V2.5C8.64706 2.22386 8.4232 2 8.14706 2C7.87092 2 7.64706 2.22386 7.64706 2.5V9.16378L5.27735 7.58397C5.04759 7.4308 4.73715 7.49289 4.58397 7.72265C4.4308 7.95241 4.49289 8.26285 4.72265 8.41603L7.16795 10.0462C7.6718 10.3821 8.3282 10.3821 8.83205 10.0462L11.2773 8.41603C11.5071 8.26285 11.5692 7.95241 11.416 7.72265C11.2628 7.49289 10.9524 7.4308 10.7227 7.58397L8.64706 8.9677ZM3 9.02941C3.27614 9.02941 3.5 9.25327 3.5 9.52941V11.6667C3.5 11.9428 3.72386 12.1667 4 12.1667H12.6667C12.9428 12.1667 13.1667 11.9428 13.1667 11.6667V9.52941C13.1667 9.25327 13.3905 9.02941 13.6667 9.02941C13.9428 9.02941 14.1667 9.25327 14.1667 9.52941V11.6667C14.1667 12.4951 13.4951 13.1667 12.6667 13.1667H4C3.17157 13.1667 2.5 12.4951 2.5 11.6667V9.52941C2.5 9.25327 2.72386 9.02941 3 9.02941Z" />
</svg>
