<svg viewBox="0 0 16 16" xmlns="http://www.w3.org/2000/svg">
<path fill-rule="evenodd" clip-rule="evenodd" d="M2.40001 1.8999C2.40001 1.62376 2.62387 1.3999 2.90001 1.3999H13.1C13.3762 1.3999 13.6 1.62376 13.6 1.8999C13.6 2.17604 13.3762 2.3999 13.1 2.3999H12V2.5999V3.80009C12 5.53957 10.8758 7.07964 9.21909 7.60979L9.17646 7.62343L9.35487 7.68765C10.9419 8.25898 12 9.76446 12 11.4512V13.3999V13.5999H13.1C13.3761 13.5999 13.6 13.8238 13.6 14.0999C13.6 14.376 13.3761 14.5999 13.1 14.5999L2.89996 14.5999C2.62382 14.5999 2.39996 14.376 2.39996 14.0999C2.39996 13.8238 2.62382 13.5999 2.89996 13.5999H3.99999V13.3999L3.99999 11.4512C3.99999 9.76446 5.05808 8.25898 6.64511 7.68765L6.82351 7.62343L6.78089 7.60979C5.12417 7.07964 3.99999 5.53957 3.99999 3.80009V2.5999V2.3999H2.90001C2.62387 2.3999 2.40001 2.17604 2.40001 1.8999ZM4.99999 2.5999H11V3.80009C11 5.1047 10.1569 6.25975 8.91432 6.65736L7.99999 6.94995L7.08566 6.65736C5.84312 6.25975 4.99999 5.1047 4.99999 3.80009V2.5999ZM11 13.3999L4.99999 13.3999L4.99999 11.4512C4.99999 10.1861 5.79356 9.05704 6.98383 8.62854L7.99999 8.26272L9.01615 8.62854C10.2064 9.05704 11 10.1861 11 11.4512V13.3999Z" />
</svg>
