<svg viewBox="0 0 16 16" xmlns="http://www.w3.org/2000/svg">
<path fill-rule="evenodd" clip-rule="evenodd" d="M10.5012 1.65133C10.5954 1.55456 10.7247 1.49998 10.8597 1.5L10.873 1.5C11.008 1.50003 11.1372 1.55465 11.2313 1.65144L13.5066 3.99146C13.5974 4.08482 13.6482 4.20991 13.6482 4.34013L13.6482 4.35347C13.6481 4.48367 13.5973 4.60872 13.5065 4.70203L6.88079 11.5122C6.8448 11.5491 6.80331 11.5803 6.75778 11.6046L6.75278 11.6073C6.70684 11.6318 6.65736 11.649 6.60612 11.6582L3.96718 12.1339C3.81068 12.1621 3.6501 12.1142 3.53465 12.0049C3.4192 11.8955 3.36264 11.7378 3.38232 11.58L3.73468 8.75416C3.74134 8.70072 3.7566 8.6487 3.77985 8.60013L3.78247 8.59465C3.80593 8.54565 3.83721 8.50081 3.87509 8.46188L10.5012 1.65133ZM10.8661 2.71031L4.70663 9.04122L4.45874 11.0292L6.2738 10.702L12.4572 4.34659L10.8661 2.71031ZM1.5 14C1.5 13.7239 1.72386 13.5 2 13.5H14C14.2761 13.5 14.5 13.7239 14.5 14C14.5 14.2761 14.2761 14.5 14 14.5H2C1.72386 14.5 1.5 14.2761 1.5 14Z" />
</svg>
