<svg viewBox="0 0 16 16" xmlns="http://www.w3.org/2000/svg">
<path fill-rule="evenodd" clip-rule="evenodd" d="M0.307692 7.69234C0.137758 7.5224 0.137758 7.24689 0.307692 7.07695L7.07691 0.307732C7.24685 0.137798 7.52236 0.137798 7.6923 0.307732C7.86223 0.477665 7.86223 0.753182 7.6923 0.923115L0.923075 7.69234C0.753142 7.86227 0.477625 7.86227 0.307692 7.69234Z" />
<path fill-rule="evenodd" clip-rule="evenodd" d="M7.69234 7.69231C7.5224 7.86224 7.24689 7.86224 7.07695 7.69231L0.307731 0.923089C0.137798 0.753155 0.137798 0.477639 0.307731 0.307705C0.477665 0.137772 0.753181 0.137772 0.923115 0.307705L7.69234 7.07692C7.86227 7.24686 7.86227 7.52237 7.69234 7.69231Z" />
</svg>
