<svg viewBox="0 0 16 16" xmlns="http://www.w3.org/2000/svg">
<path fill-rule="evenodd" clip-rule="evenodd" d="M1.09998 2.6001C1.09998 1.77167 1.77155 1.1001 2.59998 1.1001H13.4C14.2284 1.1001 14.9 1.77167 14.9 2.6001V10.0001H13.9V2.6001C13.9 2.32396 13.6761 2.1001 13.4 2.1001H2.59998C2.32383 2.1001 2.09998 2.32396 2.09998 2.6001V13.4001C2.09998 13.6762 2.32383 13.9001 2.59998 13.9001H10V14.9001H2.59998C1.77155 14.9001 1.09998 14.2285 1.09998 13.4001V2.6001ZM9.39997 6.6001H6.59998V9.4001H9.39997V6.6001ZM5.59998 5.6001V10.4001H10.4V5.6001H5.59998ZM15 12.0001H12V15.0001H15V12.0001Z" />
</svg>
