<svg viewBox="0 0 16 16" xmlns="http://www.w3.org/2000/svg">
<path fill-rule="evenodd" clip-rule="evenodd" d="M13.6667 7.99992C13.6667 11.1295 11.1297 13.6666 8.00004 13.6666C4.87043 13.6666 2.33337 11.1295 2.33337 7.99992C2.33337 4.87031 4.87043 2.33325 8.00004 2.33325C11.1297 2.33325 13.6667 4.87031 13.6667 7.99992ZM14.6667 7.99992C14.6667 11.6818 11.6819 14.6666 8.00004 14.6666C4.31814 14.6666 1.33337 11.6818 1.33337 7.99992C1.33337 4.31802 4.31814 1.33325 8.00004 1.33325C11.6819 1.33325 14.6667 4.31802 14.6667 7.99992ZM7.5 5.66663L7.5 4.66663C7.5 4.39048 7.72386 4.16663 8 4.16663C8.27614 4.16663 8.5 4.39048 8.5 4.66663L8.5 5.66663C8.5 5.94277 8.27614 6.16663 8 6.16663C7.72386 6.16663 7.5 5.94277 7.5 5.66663ZM7.5 10.9999L7.5 6.99994C7.5 6.7238 7.72386 6.49994 8 6.49994C8.27614 6.49994 8.5 6.7238 8.5 6.99994L8.5 10.9999C8.5 11.2761 8.27614 11.4999 8 11.4999C7.72386 11.4999 7.5 11.2761 7.5 10.9999Z" />
</svg>
