<svg viewBox="0 0 16 16" xmlns="http://www.w3.org/2000/svg">
<path d="M14.7165 5.24846L11.9306 2.46437C11.8075 2.44194 11.7166 2.44513 11.6076 2.44939C11.6076 2.44939 11.6076 2.44939 11.6076 2.44939L11.6046 2.44951C11.5622 2.45124 11.5196 2.45298 11.4776 2.45298H10.888C10.5191 2.85701 10.0704 3.18024 9.57022 3.40219C9.06323 3.62713 8.51463 3.74301 7.95999 3.74229C7.95996 3.74229 7.95994 3.74229 7.95992 3.74229L7.95999 3.69229C6.84762 3.69229 5.7975 3.22458 5.05415 2.40298L14.7165 5.24846ZM14.7165 5.24846L13.0682 6.90523L12.5 6.33701L14.7165 5.24846ZM2.94111 6.90424L1.28103 5.25183L3.97507 2.55867L3.97536 2.55838L4.07095 2.46439C4.19342 2.44194 4.2851 2.44513 4.39421 2.44939L4.39722 2.44951C4.43954 2.45124 4.48222 2.45298 4.5242 2.45298H5.03204L12.4646 6.37228C12.4149 6.32237 12.3515 6.28837 12.2825 6.2746C12.2135 6.26082 12.1419 6.26789 12.0769 6.29492L12.0578 6.24871C12.0578 6.24872 12.0577 6.24874 12.0577 6.24875C11.9056 6.31167 11.8073 6.45978 11.8073 6.62391V13.4359C11.8073 13.4675 11.7947 13.4977 11.7724 13.52C11.7501 13.5423 11.7199 13.5549 11.6883 13.5549H4.23077C4.16502 13.5549 4.11183 13.5017 4.11183 13.4359V6.70572C4.11183 6.54155 4.01348 6.39342 3.8613 6.33051L3.8611 6.33043C3.81146 6.31017 3.7588 6.30005 3.70616 6.30005C3.60016 6.30005 3.49641 6.34046 3.41982 6.41807L3.41978 6.41811L2.94111 6.90424ZM2.94111 6.90424L2.97654 6.93951L3.45541 6.45319C3.5221 6.38561 3.61279 6.35005 3.70616 6.35005C3.75239 6.35005 3.79863 6.35894 3.8422 6.37672L2.94111 6.90424ZM12.6186 7.58896C12.9141 7.80452 13.3315 7.77945 13.5981 7.51288L15.3293 5.78165C15.6236 5.48737 15.6236 5.00756 15.3293 4.71328L12.596 1.97994L12.5957 1.97969L12.4712 1.85698L12.4711 1.85683C12.3864 1.77413 12.2617 1.70542 12.1492 1.6802V1.6802L12.149 1.68016C11.9009 1.62543 11.7188 1.63185 11.5765 1.63722C11.5764 1.63722 11.5763 1.63723 11.5762 1.63723L12.6186 7.58896ZM12.6186 7.58896V13.4341C12.6186 13.949 12.2005 14.3662 11.6874 14.3662H4.23077C3.71767 14.3662 3.30048 13.949 3.30048 13.4359V7.64237"  stroke="white" stroke-width="0.1"/>
</svg>
