<svg viewBox="0 0 16 16" xmlns="http://www.w3.org/2000/svg">
<path fill-rule="evenodd" clip-rule="evenodd" d="M9.10504 3.28625C9.11326 3.23775 9.13196 3.21188 9.1892 3.18978C9.26353 3.16108 9.39051 3.15286 9.53261 3.20271C9.6694 3.2507 9.78912 3.34209 9.86354 3.46912C9.93452 3.59028 9.98569 3.78016 9.92576 4.06912C9.66815 5.31126 9.36929 6.22453 9.26028 6.50735C9.201 6.66112 9.22131 6.83422 9.31456 6.9701C9.4078 7.10598 9.56202 7.18719 9.72682 7.18719H12.099C12.4169 7.18719 12.6541 7.47996 12.5881 7.79094L11.6025 12.4372C11.5535 12.6682 11.3496 12.8334 11.1134 12.8334H6.33337V7.16179C6.77405 7.066 7.21301 6.90021 7.5378 6.60616C8.50705 5.72867 8.93656 4.28098 9.10504 3.28625ZM5.33337 7.2849C5.03314 7.29935 4.7332 7.29736 4.45033 7.28592C4.09913 7.27171 3.83337 7.53847 3.83337 7.82928V12.3334C3.83337 12.6096 4.05723 12.8334 4.33337 12.8334H5.33337V7.2849ZM10.9049 4.27219C11.0089 3.7707 10.9371 3.32338 10.7264 2.96361C10.519 2.60972 10.1982 2.37646 9.86365 2.2591C9.53443 2.1436 9.15936 2.12934 8.82898 2.25691C8.48151 2.39108 8.19284 2.68381 8.11908 3.11926C7.95969 4.06033 7.57654 5.22215 6.86665 5.86484C6.6957 6.01962 6.38051 6.14711 5.92508 6.22172C5.48369 6.29403 4.97683 6.3064 4.49075 6.28673C3.63342 6.25205 2.83337 6.91057 2.83337 7.82928V12.3334C2.83337 13.1618 3.50495 13.8334 4.33337 13.8334H11.1134C11.8219 13.8334 12.4337 13.3377 12.5808 12.6447L13.5663 7.99845C13.7642 7.06551 13.0527 6.18719 12.099 6.18719H10.4206C10.5654 5.71081 10.7436 5.05005 10.9049 4.27219Z" />
</svg>
