<svg viewBox="0 0 16 16" xmlns="http://www.w3.org/2000/svg">
<path fill-rule="evenodd" clip-rule="evenodd" d="M3.40002 2.6001H12.6L12.6 9.25007L7.99998 10.4001L3.40002 9.25009L3.40002 2.6001ZM13.6 2.6001V9.00007L14.4 8.80008V9.83086V13.4001C14.4 13.9524 13.9523 14.4001 13.4 14.4001H2.59998C2.04769 14.4001 1.59998 13.9524 1.59998 13.4001V9.83086V8.80008L2.40002 9.00009V2.6001C2.40002 2.04781 2.84774 1.6001 3.40002 1.6001H12.6C13.1523 1.6001 13.6 2.04781 13.6 2.6001ZM13.4 10.0809L8.24251 11.3702L7.99998 11.4309L7.75744 11.3702L2.59998 10.0809V13.4001L13.4 13.4001V10.0809ZM6.83206 4.11235C7.13229 3.79016 7.54236 3.62906 8.06227 3.62906C8.53092 3.62906 8.9117 3.75354 9.18996 4.01716C9.46089 4.26613 9.60003 4.61029 9.60003 5.04965C9.60003 5.37917 9.50483 5.66476 9.32909 5.9064C9.25586 5.99428 9.05083 6.18467 8.72863 6.47025C8.57485 6.60206 8.46501 6.73386 8.39179 6.86567C8.29659 7.02677 8.25266 7.20984 8.25266 7.40755V7.57597H7.65952V7.40755C7.65952 7.1659 7.70346 6.95354 7.79865 6.77048C7.89385 6.5508 8.14282 6.27254 8.53824 5.92105C8.6554 5.80389 8.73595 5.71602 8.78721 5.65743C8.92634 5.47437 8.99957 5.28398 8.99957 5.07894C8.99957 4.78604 8.91902 4.55904 8.75792 4.39794C8.58218 4.22219 8.34053 4.14164 8.03298 4.14164C7.67417 4.14164 7.40323 4.25881 7.22016 4.50045C7.06639 4.70549 6.98584 4.98375 6.98584 5.34256H6.40002C6.40002 4.82997 6.54648 4.41991 6.83206 4.11235ZM7.64488 8.21304C7.72542 8.12517 7.82794 8.08856 7.95975 8.08856C8.08424 8.08856 8.18675 8.12517 8.27462 8.21304C8.35517 8.29359 8.39911 8.39611 8.39911 8.52059C8.39911 8.6524 8.35517 8.75492 8.27462 8.83547C8.18675 8.91602 8.07691 8.95995 7.95975 8.95995C7.82794 8.95995 7.72542 8.91602 7.64488 8.83547C7.557 8.74759 7.51307 8.64508 7.51307 8.52059C7.51307 8.39611 7.557 8.29359 7.64488 8.21304Z" />
</svg>
