<svg viewBox="0 0 16 16" xmlns="http://www.w3.org/2000/svg">
<path fill-rule="evenodd" clip-rule="evenodd" d="M3 3H13V13H3L3 3ZM2 3C2 2.44772 2.44772 2 3 2H13C13.5523 2 14 2.44772 14 3V13C14 13.5523 13.5523 14 13 14H3C2.44772 14 2 13.5523 2 13V3ZM8.09998 5.60001C8.37612 5.60001 8.59998 5.82386 8.59998 6.10001V8.31665L9.34346 7.57317C9.53872 7.37791 9.8553 7.37791 10.0506 7.57317C10.2458 7.76844 10.2458 8.08502 10.0506 8.28028L8.37729 9.95355L8.02374 10.3071L7.67018 9.95355L5.99691 8.28028C5.80165 8.08502 5.80165 7.76844 5.99691 7.57317C6.19217 7.37791 6.50876 7.37791 6.70402 7.57317L7.59998 8.46913V6.10001C7.59998 5.82386 7.82383 5.60001 8.09998 5.60001Z" />
</svg>
