<svg viewBox="0 0 16 16" xmlns="http://www.w3.org/2000/svg">
<path fill-rule="evenodd" clip-rule="evenodd" d="M6.1873 2.45996C6.48827 2.45986 6.78332 2.54361 7.03935 2.70181C7.29542 2.86003 7.50235 3.08646 7.63692 3.35571C7.63694 3.35575 7.6369 3.35568 7.63692 3.35571L8.13756 4.35699C8.18904 4.46001 8.26824 4.54676 8.3662 4.60732C8.46415 4.66788 8.57703 4.69995 8.69218 4.69996C8.69219 4.69996 8.69218 4.69996 8.69218 4.69996H12.48C12.9097 4.69996 13.3217 4.87064 13.6255 5.17445C13.9293 5.47826 14.1 5.89031 14.1 6.31996V11.92C14.1 12.3496 13.9293 12.7617 13.6255 13.0655C13.3217 13.3693 12.9097 13.54 12.48 13.54H3.52002C3.09037 13.54 2.67832 13.3693 2.37451 13.0655C2.0707 12.7617 1.90002 12.3496 1.90002 11.92V4.07996C1.90002 3.65031 2.0707 3.23826 2.37451 2.93445C2.67832 2.63064 3.09037 2.45996 3.52002 2.45996H6.1873C6.18738 2.45996 6.18723 2.45996 6.1873 2.45996ZM6.51372 3.55252C6.41571 3.49196 6.30275 3.45991 6.18754 3.45996L3.52002 3.45996C3.35559 3.45996 3.19789 3.52528 3.08162 3.64155C2.96535 3.75783 2.90002 3.91553 2.90002 4.07996V11.92C2.90002 12.0844 2.96535 12.2421 3.08162 12.3584C3.19789 12.4746 3.35559 12.54 3.52002 12.54H12.48C12.6445 12.54 12.8022 12.4746 12.9184 12.3584C13.0347 12.2421 13.1 12.0844 13.1 11.92V6.31996C13.1 6.15553 13.0347 5.99783 12.9184 5.88156C12.8022 5.76528 12.6445 5.69996 12.48 5.69996H8.69218C8.39127 5.69995 8.0963 5.61613 7.84035 5.4579C7.58444 5.29969 7.37764 5.07334 7.24313 4.80421C7.24311 4.80417 7.24315 4.80424 7.24313 4.80421L6.74249 3.80293C6.69099 3.69986 6.61174 3.61308 6.51372 3.55252Z" />
</svg>
