<svg viewBox="0 0 16 16" xmlns="http://www.w3.org/2000/svg">
<path fill-rule="evenodd" clip-rule="evenodd" d="M2.09998 2.19995C1.82383 2.19995 1.59998 2.42381 1.59998 2.69995C1.59998 2.97609 1.82383 3.19995 2.09998 3.19995H5.59998V13.0999C5.59998 13.3761 5.82383 13.5999 6.09998 13.5999C6.37612 13.5999 6.59998 13.3761 6.59998 13.0999V3.19995H9.89997C10.1761 3.19995 10.4 2.97609 10.4 2.69995C10.4 2.42381 10.1761 2.19995 9.89997 2.19995H2.09998ZM8.5 5.39993C8.22386 5.39993 8 5.62379 8 5.89993C8 6.17608 8.22386 6.39993 8.5 6.39993H10.4V13.0999C10.4 13.3761 10.6239 13.5999 10.9 13.5999C11.1762 13.5999 11.4 13.3761 11.4 13.0999V6.39993H13.9C14.1761 6.39993 14.4 6.17608 14.4 5.89993C14.4 5.62379 14.1761 5.39993 13.9 5.39993H8.5Z" />
</svg>
