<svg viewBox="0 0 16 16" xmlns="http://www.w3.org/2000/svg">
<path d="M7.50015 2.54188C10.2155 2.54188 12.4251 4.7565 12.4251 7.49877H13.3264C13.3264 4.26341 10.7179 1.64063 7.50015 1.64062C5.40358 1.64062 3.56565 2.75411 2.53941 4.42501L2.53941 2.47736H1.64062V5.35838C1.64062 5.63452 1.86448 5.85838 2.14062 5.85838L5.00321 5.85838V4.95467L3.2723 4.95467C4.1335 3.50822 5.70649 2.54188 7.50015 2.54188Z" />
<path d="M1.67394 7.49872H2.57519C2.57519 10.241 4.78481 12.4556 7.50014 12.4557C9.29381 12.4557 10.8668 11.4893 11.728 10.0429H9.99679V9.13915H12.8594C13.1355 9.13915 13.3594 9.36301 13.3594 9.63915V12.5202H12.4606V10.573C11.4343 12.2436 9.59652 13.3569 7.50014 13.3569C4.28242 13.3569 1.67394 10.7341 1.67394 7.49872Z" />
<path d="M8.13758 10L6.6037 6.14711C6.63244 6.52072 6.64887 6.82137 6.65298 7.04904V10H6V5H6.83778L8.3963 8.87916C8.36756 8.52306 8.35113 8.19907 8.34702 7.90718V5H9V10H8.13758Z" />
</svg>
