<svg viewBox="0 0 16 16" xmlns="http://www.w3.org/2000/svg">
<path fill-rule="evenodd" clip-rule="evenodd" d="M13 5H3V6.0625V6.2573C4.68648 6.84015 4.78474 9.3616 3 9.99931V10.1875L3 11.25H13V10.1875V9.94617C11.4032 9.30444 11.4032 6.94556 13 6.30383V6.0625V5ZM3 4C2.44772 4 2 4.44772 2 5V6.0625V6.65651C2 6.9063 2.186 7.117 2.43386 7.14798C3.50398 7.28175 3.62008 8.78712 2.58313 9.08339L2.37523 9.14279C2.15313 9.20625 2 9.40925 2 9.64024V10.1875V11.25C2 11.8023 2.44772 12.25 3 12.25H13C13.5523 12.25 14 11.8023 14 11.25V10.1875V9.5621C14 9.327 13.8321 9.12546 13.6008 9.08306C12.5363 8.8879 12.5363 7.3621 13.6008 7.16693C13.8321 7.12454 14 6.923 14 6.6879V6.0625V5C14 4.44772 13.5523 4 13 4H3ZM5.75024 7.375C5.75024 7.16789 5.91814 7 6.12524 7H9.87524C10.0824 7 10.2502 7.16789 10.2502 7.375C10.2502 7.58211 10.0824 7.75 9.87524 7.75H6.12524C5.91814 7.75 5.75024 7.58211 5.75024 7.375ZM6.12512 9.25C5.91802 9.25 5.75012 9.41789 5.75012 9.625C5.75012 9.83211 5.91802 10 6.12512 10H9.87512C10.0822 10 10.2501 9.83211 10.2501 9.625C10.2501 9.41789 10.0822 9.25 9.87512 9.25H6.12512Z" />
</svg>
