<svg viewBox="0 0 16 16" xmlns="http://www.w3.org/2000/svg">
<path fill-rule="evenodd" clip-rule="evenodd" d="M2.69995 3.3999C2.69995 2.57148 3.37152 1.8999 4.19995 1.8999H14V2.8999H4.19995C3.92381 2.8999 3.69995 3.12376 3.69995 3.3999V4.35989V5.3999C3.69995 5.67604 3.92381 5.8999 4.19995 5.8999H14V6.39974H14.1V12.5999C14.1 13.4283 13.4284 14.0999 12.6 14.0999H4.19995C3.37153 14.0999 2.69995 13.4283 2.69995 12.5999V5.3999V4.35989V3.3999ZM3.69995 6.81455V12.5999C3.69995 12.876 3.92381 13.0999 4.19995 13.0999H12.6C12.8761 13.0999 13.1 12.876 13.1 12.5999V6.8999H4.19995C4.02463 6.8999 3.85634 6.86982 3.69995 6.81455ZM5.59998 4.2999C5.59998 4.02375 5.82383 3.7999 6.09998 3.7999L12.87 3.7999C13.1461 3.7999 13.37 4.02375 13.37 4.2999C13.37 4.57604 13.1461 4.7999 12.87 4.7999L6.09998 4.7999C5.82383 4.7999 5.59998 4.57604 5.59998 4.2999Z" />
</svg>
