<svg viewBox="0 0 16 16" xmlns="http://www.w3.org/2000/svg">
<path fill-rule="evenodd" clip-rule="evenodd" d="M2.7384 7.67003C3.97208 6.03456 5.87563 5 8.00007 5C10.1245 5 12.028 6.03454 13.2617 7.66999C13.4096 7.86602 13.4096 8.13394 13.2617 8.32997C12.028 9.96544 10.1245 11 8.00004 11C5.87562 11 3.97208 9.96546 2.73841 8.33001C2.59054 8.13399 2.59053 7.86606 2.7384 7.67003ZM1.94007 8.93223C1.52332 8.37975 1.52331 7.62031 1.94006 7.06782C3.34895 5.20008 5.53968 4 8.00007 4C10.4604 4 12.6512 5.20006 14.06 7.06778C14.4768 7.62025 14.4768 8.3797 14.06 8.93218C12.6512 10.7999 10.4604 12 8.00004 12C5.53968 12 3.34896 10.7999 1.94007 8.93223ZM9.00001 8C9.00001 8.55228 8.5523 9 8.00001 9C7.44773 9 7.00001 8.55228 7.00001 8C7.00001 7.44772 7.44773 7 8.00001 7C8.5523 7 9.00001 7.44772 9.00001 8ZM10 8C10 9.10457 9.10458 10 8.00001 10C6.89544 10 6.00001 9.10457 6.00001 8C6.00001 6.89543 6.89544 6 8.00001 6C9.10458 6 10 6.89543 10 8Z" />
</svg>
