<svg viewBox="0 0 16 16" xmlns="http://www.w3.org/2000/svg">
<g clip-path="url(#clip0_9317_98955)">
<path fill-rule="evenodd" clip-rule="evenodd" d="M2.75 1.97291L7.80556 3.5651V4.61566V10.4093V15.2308H2.75L2.75 1.97291ZM8.09761 2.63778C8.50244 2.76528 8.77778 3.14067 8.77778 3.5651V4.61566V5.7059L12.9167 7.03034C13.5207 7.22362 13.9305 7.78511 13.9305 8.41929V15.4252H14.6111C14.8259 15.4252 15 15.5993 15 15.8141C15 16.0289 14.8259 16.203 14.6111 16.203H1.38889C1.17411 16.203 1 16.0289 1 15.8141C1 15.5993 1.17411 15.4252 1.38889 15.4252H1.77778V15.2308V1.97291C1.77778 1.3161 2.41558 0.848287 3.04205 1.04559L8.09761 2.63778ZM12.9583 15.4252V8.41929C12.9583 8.2079 12.8217 8.02074 12.6204 7.95631L8.77778 6.72668V10.4093V15.2308V15.4252H12.9583ZM9.55548 8.81408C9.55548 8.59931 9.7296 8.4252 9.94437 8.4252H11.4999C11.7147 8.4252 11.8888 8.59931 11.8888 8.81408C11.8888 9.02886 11.7147 9.20297 11.4999 9.20297H9.94437C9.7296 9.20297 9.55548 9.02886 9.55548 8.81408ZM3.72213 7.64743C3.50735 7.64743 3.33324 7.82154 3.33324 8.03632C3.33324 8.2511 3.50735 8.42521 3.72213 8.42521H6.83324C7.04802 8.42521 7.22213 8.2511 7.22213 8.03632C7.22213 7.82154 7.04802 7.64743 6.83324 7.64743H3.72213ZM9.55548 11.1474C9.55548 10.9327 9.7296 10.7586 9.94437 10.7586H11.4999C11.7147 10.7586 11.8888 10.9327 11.8888 11.1474C11.8888 11.3622 11.7147 11.5363 11.4999 11.5363H9.94437C9.7296 11.5363 9.55548 11.3622 9.55548 11.1474ZM3.72213 9.98073C3.50735 9.98073 3.33324 10.1548 3.33324 10.3696C3.33324 10.5844 3.50735 10.7585 3.72213 10.7585H6.83324C7.04802 10.7585 7.22213 10.5844 7.22213 10.3696C7.22213 10.1548 7.04802 9.98073 6.83324 9.98073H3.72213Z" />
</g>
<defs>
<clipPath id="clip0_9317_98955">
<rect />
</clipPath>
</defs>
</svg>
