<svg viewBox="0 0 16 16" xmlns="http://www.w3.org/2000/svg">
<path d="M4.36701 4.08027C4.10691 4.08027 3.89497 4.00045 3.7312 3.84082C3.57707 3.6712 3.5 3.4517 3.5 3.18231C3.5 2.91293 3.57707 2.69841 3.7312 2.53877C3.89497 2.36916 4.10691 2.28435 4.36701 2.28435C4.62712 2.28435 4.83424 2.36916 4.98837 2.53877C5.15214 2.69841 5.23403 2.91293 5.23403 3.18231C5.23403 3.4517 5.15214 3.6712 4.98837 3.84082C4.83424 4.00045 4.62712 4.08027 4.36701 4.08027ZM4.94502 5.51701V13H3.789V5.51701H4.94502Z" />
<path d="M10.2717 2C10.5222 2 10.7582 2.02993 10.9798 2.0898C11.2014 2.14966 11.3748 2.23447 11.5 2.34422L11.1965 3.31701C11.0809 3.23719 10.9557 3.18231 10.8208 3.15238C10.686 3.11247 10.5367 3.09252 10.3729 3.09252C9.95864 3.09252 9.63592 3.19728 9.40472 3.4068C9.17352 3.60635 9.05791 3.93061 9.05791 4.37959V5.51701V5.90612V13H7.9019V4.25986C7.9019 3.93061 7.95006 3.6263 8.0464 3.34694C8.14273 3.06757 8.28724 2.82812 8.47991 2.62857C8.68221 2.42902 8.93268 2.27438 9.23132 2.16463C9.52995 2.05488 9.87676 2 10.2717 2ZM11.4711 5.51701V6.54966H6.45688V5.51701H11.4711Z" />
</svg>
