<svg viewBox="0 0 16 16" xmlns="http://www.w3.org/2000/svg">
<path fill-rule="evenodd" clip-rule="evenodd" d="M12.3999 5.39817L8.57666 9.22142V1.50659C8.57666 1.23045 8.3528 1.00659 8.07666 1.00659C7.80052 1.00659 7.57666 1.23045 7.57666 1.50659V9.37132L3.60351 5.39817C3.40824 5.2029 3.09166 5.20291 2.8964 5.39817C2.70114 5.59343 2.70114 5.91001 2.8964 6.10527L7.64816 10.857C7.84342 11.0523 8.16 11.0523 8.35527 10.857L13.107 6.10527C13.3023 5.91001 13.3023 5.59343 13.107 5.39817C12.9118 5.2029 12.5952 5.2029 12.3999 5.39817ZM3.5 9.99995C3.5 9.72381 3.27614 9.49995 3 9.49995C2.72386 9.49995 2.5 9.72381 2.5 9.99995V13C2.5 13.2761 2.72386 13.5 3 13.5H13C13.2761 13.5 13.5 13.2761 13.5 13V9.99995C13.5 9.72381 13.2761 9.49995 13 9.49995C12.7239 9.49995 12.5 9.72381 12.5 9.99995V12.5H3.5V9.99995Z" />
</svg>
