<svg viewBox="0 0 16 16" xmlns="http://www.w3.org/2000/svg">
<path fill-rule="evenodd" clip-rule="evenodd" d="M7.5 13.4776V11.5145C7.10138 11.5376 6.71014 11.5882 6.32813 11.6644C6.64164 12.3196 7.03663 12.9283 7.49995 13.4776C7.49997 13.4776 7.49998 13.4776 7.5 13.4776ZM8.5 11.5145V13.4775C8.96328 12.9282 9.35822 12.3195 9.67171 11.6644C9.28975 11.5882 8.89856 11.5376 8.5 11.5145ZM8.5 14.4811C8.55506 14.4769 8.60992 14.472 8.66459 14.4664C11.7784 14.1502 14.2425 11.6361 14.4811 8.5H14.5V8V7.5H14.4811C14.2257 4.14378 11.4216 1.5 8 1.5H7.99995C7.66018 1.5 7.32651 1.52607 7.00081 1.57631L7.0008 1.57632C5.68177 1.77983 4.49362 2.37989 3.56196 3.25088L3.56193 3.25086C3.31419 3.48247 3.08459 3.73323 2.87549 4.00079L2.87552 4.00081C2.10978 4.98063 1.61893 6.18568 1.51894 7.5H1.5V8V8.5H1.51894C1.61893 9.81431 2.10978 11.0194 2.87552 11.9992L2.87549 11.9992C3.08459 12.2668 3.3142 12.5175 3.56193 12.7491L3.56196 12.7491C4.49362 13.6201 5.68177 14.2202 7.0008 14.4237L7.00081 14.4237L7.00379 14.4241C7.16727 14.4493 7.33275 14.4683 7.5 14.4811V14.5H7.99995H8H8.5V14.4811ZM8.5 10.5129L8.5 8.5H10.4855C10.4406 9.27319 10.2924 10.0186 10.0545 10.7228C9.5502 10.6116 9.03086 10.5405 8.5 10.5129ZM7.5 7.5V5.48707C6.96908 5.45955 6.44969 5.38844 5.94534 5.27724C5.70741 5.98136 5.55921 6.72682 5.51436 7.5H7.5ZM8.5 5.48706V7.5H10.4855C10.4406 6.72681 10.2924 5.98135 10.0545 5.27724C9.5502 5.38842 9.03086 5.45953 8.5 5.48706ZM8.5 4.48553V2.52255C8.96328 3.07176 9.35822 3.68049 9.67171 4.33564C9.28975 4.41182 8.89856 4.46241 8.5 4.48553ZM7.5 4.48554V2.52242C7.49998 2.52242 7.49997 2.52242 7.49995 2.52243C7.03663 3.07167 6.64165 3.68045 6.32813 4.33565C6.71014 4.41184 7.10139 4.46243 7.5 4.48554ZM7.5 10.5129L7.5 8.5H5.51436C5.55921 9.27318 5.70741 10.0186 5.94534 10.7228C6.44969 10.6116 6.96908 10.5405 7.5 10.5129ZM12.2441 4.50154C12.9292 5.33168 13.3754 6.36623 13.4776 7.5H11.487C11.4421 6.63424 11.2813 5.79915 11.0198 5.00994C11.4419 4.86852 11.8508 4.69828 12.2441 4.50154ZM13.4776 8.5H11.487C11.4421 9.36576 11.2813 10.2009 11.0198 10.9901C11.4419 11.1315 11.8508 11.3017 12.2441 11.4985C12.9292 10.6683 13.3754 9.63377 13.4776 8.5ZM4.98 5.00995C4.71852 5.79916 4.55772 6.63425 4.51283 7.5H2.52242C2.62459 6.36627 3.07079 5.33174 3.75583 4.50161C4.14911 4.69833 4.55795 4.86855 4.98 5.00995ZM3.75583 11.4984C3.07079 10.6683 2.62459 9.63373 2.52242 8.5H4.51283C4.55772 9.36575 4.71852 10.2008 4.98 10.99C4.55795 11.1314 4.14911 11.3017 3.75583 11.4984ZM5.99937 13.1248C5.75368 12.7421 5.53471 12.3405 5.34508 11.9228C5.05869 12.0169 4.779 12.1258 4.50694 12.2486C4.95138 12.6144 5.45422 12.9118 5.99937 13.1248ZM4.50694 3.75144C4.779 3.87423 5.05869 3.98312 5.34509 4.07719C5.53471 3.65949 5.75368 3.25795 5.99937 2.87518C5.45422 3.08816 4.95138 3.38561 4.50694 3.75144ZM10.0004 2.8751C10.2461 3.25789 10.4651 3.65946 10.6548 4.07718C10.9412 3.98309 11.2209 3.87419 11.493 3.75138C11.0485 3.38553 10.5456 3.08807 10.0004 2.8751ZM11.493 12.2486C11.0485 12.6145 10.5456 12.9119 10.0004 13.1249C10.2461 12.7421 10.4651 12.3405 10.6548 11.9228C10.9412 12.0169 11.2209 12.1258 11.493 12.2486Z" />
</svg>
