<svg viewBox="0 0 16 16" xmlns="http://www.w3.org/2000/svg">
<path fill-rule="evenodd" clip-rule="evenodd" d="M3.40308 4.05469C3.40308 3.22626 4.07465 2.55469 4.90308 2.55469H13.2667C14.0951 2.55469 14.7667 3.22626 14.7667 4.05469V12.0547C14.7667 12.8831 14.0951 13.5547 13.2667 13.5547H4.90307C4.07465 13.5547 3.40308 12.8831 3.40308 12.0547V10.5547H4.40308V12.0547C4.40308 12.3308 4.62693 12.5547 4.90307 12.5547H13.2667C13.5429 12.5547 13.7667 12.3308 13.7667 12.0547V4.05469C13.7667 3.77854 13.5429 3.55469 13.2667 3.55469H4.90308C4.62693 3.55469 4.40308 3.77855 4.40308 4.05469V5.55469H3.40308V4.05469ZM1.09998 8.35259C1.09999 8.07645 1.32386 7.8526 1.6 7.85262L10.3383 7.85302L9.56103 6.90014C9.38649 6.68615 9.41847 6.37119 9.63245 6.19665C9.84644 6.02211 10.1614 6.05409 10.3359 6.26807L11.7753 8.03278C11.9254 8.21675 11.9254 8.48087 11.7753 8.66484L10.3359 10.4296C10.1614 10.6435 9.84644 10.6755 9.63245 10.501C9.41847 10.3264 9.38649 10.0115 9.56103 9.79749L10.3314 8.85302L1.59995 8.85262C1.32381 8.85261 1.09996 8.62874 1.09998 8.35259Z" />
</svg>
