<svg viewBox="0 0 16 16" xmlns="http://www.w3.org/2000/svg">
<path fill-rule="evenodd" clip-rule="evenodd" d="M10.4528 4.75308C10.4528 6.27357 9.22022 7.50616 7.69974 7.50616C6.17925 7.50616 4.94666 6.27357 4.94666 4.75308C4.94666 3.2326 6.17925 2 7.69974 2C9.22022 2 10.4528 3.2326 10.4528 4.75308ZM9.15448 8.21382C10.5048 7.64552 11.4528 6.31002 11.4528 4.75308C11.4528 2.68031 9.77251 1 7.69974 1C5.62697 1 3.94666 2.68031 3.94666 4.75308C3.94666 6.33557 4.92607 7.6893 6.31181 8.24117C5.19935 8.47044 4.16623 8.97345 3.33731 9.71026C2.16937 10.7484 1.5 12.17 1.5 13.6666C1.5 13.9428 1.72386 14.1666 2 14.1666C2.27614 14.1666 2.5 13.9428 2.5 13.6666C2.5 12.4758 3.0317 11.3199 4.00167 10.4577C4.97357 9.59377 6.30311 9.09998 7.7 9.09998C9.12734 9.09998 10.0493 9.39486 10.906 9.966C11.1357 10.1192 11.4462 10.0571 11.5994 9.82733C11.7525 9.59756 11.6904 9.28713 11.4607 9.13395C10.7657 8.67061 10.036 8.36573 9.15448 8.21382ZM10.2333 11.2667C10.2333 10.9905 10.4571 10.7667 10.7333 10.7667H12.1333V9.73334C12.1333 9.4572 12.3572 9.23334 12.6333 9.23334C12.9094 9.23334 13.1333 9.4572 13.1333 9.73334V10.7667H14.1666C14.4428 10.7667 14.6666 10.9905 14.6666 11.2667C14.6666 11.5428 14.4428 11.7667 14.1666 11.7667H13.1333V13.1667C13.1333 13.4428 12.9094 13.6667 12.6333 13.6667C12.3572 13.6667 12.1333 13.4428 12.1333 13.1667V11.7667H10.7333C10.4571 11.7667 10.2333 11.5428 10.2333 11.2667Z" />
</svg>
