<svg viewBox="0 0 16 16" xmlns="http://www.w3.org/2000/svg">
<path fill-rule="evenodd" clip-rule="evenodd" d="M15.1608 6.24323C15.2951 6.00193 15.2083 5.69747 14.967 5.56319C14.7257 5.42891 14.4212 5.51566 14.287 5.75695C13.0375 8.00213 10.7106 9.50012 8.05719 9.50012C5.40382 9.50012 3.07689 8.00215 1.82743 5.757C1.69315 5.51571 1.38869 5.42896 1.14739 5.56324C0.906098 5.69752 0.819349 6.00199 0.953632 6.24328C1.25289 6.78102 1.60764 7.28202 2.0099 7.73772L1.35355 8.39406C1.15829 8.58933 1.15829 8.90591 1.35355 9.10117C1.54882 9.29643 1.8654 9.29643 2.06066 9.10117L2.71507 8.44676C3.31119 8.97853 3.98227 9.4233 4.71002 9.76139C4.68576 9.78785 4.66399 9.81735 4.64529 9.84973L3.81196 11.2931C3.67389 11.5323 3.75583 11.838 3.99497 11.9761C4.23412 12.1142 4.53991 12.0323 4.67799 11.7931L5.51132 10.3497C5.556 10.2723 5.57765 10.188 5.57837 10.1045C6.35983 10.3614 7.19251 10.5001 8.05719 10.5001L8.05728 12.1668C8.05728 12.4429 8.28114 12.6668 8.55728 12.6668C8.83342 12.6668 9.05728 12.4429 9.05728 12.1668V10.5001C9.05728 10.4791 9.05598 10.4583 9.05346 10.438C9.75305 10.3501 10.425 10.1709 11.0582 9.91238L11.8072 11.2098C11.9453 11.4489 12.2511 11.5309 12.4903 11.3928C12.7294 11.2547 12.8113 10.9489 12.6733 10.7098L11.9609 9.47598C12.4293 9.21235 12.8699 8.90286 13.2773 8.55348L13.7846 9.06075C13.9798 9.25601 14.2964 9.25601 14.4917 9.06075C14.6869 8.86549 14.6869 8.54891 14.4917 8.35364L13.9961 7.8581C14.4433 7.37075 14.8349 6.82876 15.1608 6.24323Z" />
</svg>
