<svg viewBox="0 0 16 16" xmlns="http://www.w3.org/2000/svg">
<path d="M14.1959 2.43999H2.20394C1.72434 2.43999 1.30314 2.61279 0.960741 2.94959C0.616741 3.28799 0.439941 3.70559 0.439941 4.18159V11.8188C0.439941 12.2948 0.616741 12.712 0.960741 13.0504C1.12327 13.2143 1.31707 13.3438 1.53063 13.4314C1.74419 13.5189 1.97315 13.5626 2.20394 13.56H14.1959C14.6759 13.56 15.0967 13.3872 15.4391 13.0504C15.7831 12.712 15.9599 12.2948 15.9599 11.8188V4.18159C15.9599 3.70559 15.7831 3.28799 15.4391 2.94959C15.2767 2.78572 15.083 2.65616 14.8695 2.56862C14.656 2.48108 14.4271 2.43734 14.1963 2.43999H14.1959ZM2.20394 3.15999H14.1959C14.4867 3.15999 14.7263 3.25839 14.9343 3.46319C15.1411 3.66639 15.2399 3.89919 15.2399 4.18159V11.8188C15.2399 12.1008 15.1411 12.3332 14.9343 12.5368C14.7263 12.7416 14.4863 12.84 14.1963 12.84H2.20394C2.0666 12.8427 1.93018 12.8172 1.8031 12.765C1.67602 12.7129 1.561 12.6352 1.46514 12.5368C1.25834 12.3332 1.15954 12.1008 1.15954 11.8188V4.18159C1.15954 3.89959 1.25834 3.66639 1.46514 3.46319C1.561 3.3648 1.67602 3.28713 1.8031 3.23498C1.93018 3.18283 2.0666 3.15731 2.20394 3.15999Z" />
<path d="M4.39999 7.44C4.49161 7.4399 4.57983 7.47474 4.64666 7.53743C4.71349 7.60011 4.7539 7.68592 4.75967 7.77736C4.76543 7.8688 4.73611 7.959 4.67768 8.02958C4.61925 8.10016 4.5361 8.1458 4.44519 8.1572L4.39999 8.16H3.19999C3.10836 8.1601 3.02015 8.12526 2.95332 8.06258C2.88649 7.9999 2.84608 7.91409 2.84031 7.82265C2.83455 7.7312 2.86387 7.641 2.9223 7.57043C2.98073 7.49985 3.06388 7.45421 3.15479 7.4428L3.19999 7.44H4.39999Z" />
<path d="M7.20004 7.44C7.29166 7.4399 7.37988 7.47474 7.44671 7.53743C7.51354 7.60011 7.55395 7.68592 7.55971 7.77736C7.56548 7.8688 7.53616 7.959 7.47773 8.02958C7.41929 8.10016 7.33615 8.1458 7.24524 8.1572L7.20004 8.16H6.00004C5.90841 8.1601 5.8202 8.12526 5.75337 8.06258C5.68654 7.9999 5.64612 7.91409 5.64036 7.82265C5.6346 7.7312 5.66392 7.641 5.72235 7.57043C5.78078 7.49985 5.86393 7.45421 5.95484 7.4428L6.00004 7.44H7.20004Z" />
<path d="M9.99999 7.44C10.0916 7.4399 10.1798 7.47474 10.2467 7.53743C10.3135 7.60011 10.3539 7.68592 10.3597 7.77736C10.3654 7.8688 10.3361 7.959 10.2777 8.02958C10.2192 8.10016 10.1361 8.1458 10.0452 8.1572L9.99999 8.16H8.79999C8.70836 8.1601 8.62015 8.12526 8.55332 8.06258C8.48649 7.9999 8.44608 7.91409 8.44031 7.82265C8.43455 7.7312 8.46387 7.641 8.5223 7.57043C8.58073 7.49985 8.66388 7.45421 8.75479 7.4428L8.79999 7.44H9.99999ZM13.2 9.84C13.2916 9.8399 13.3798 9.87474 13.4467 9.93743C13.5135 10.0001 13.5539 10.0859 13.5597 10.1774C13.5654 10.2688 13.5361 10.359 13.4777 10.4296C13.4192 10.5002 13.3361 10.5458 13.2452 10.5572L13.2 10.56H3.19999C3.10836 10.5601 3.02015 10.5253 2.95332 10.4626C2.88649 10.3999 2.84608 10.3141 2.84031 10.2226C2.83455 10.1312 2.86387 10.041 2.9223 9.97043C2.98073 9.89985 3.06388 9.85421 3.15479 9.8428L3.19999 9.84H13.2ZM12.8 7.44C12.8916 7.4399 12.9798 7.47474 13.0467 7.53743C13.1135 7.60011 13.1539 7.68592 13.1597 7.77736C13.1654 7.8688 13.1361 7.959 13.0777 8.02958C13.0192 8.10016 12.9361 8.1458 12.8452 8.1572L12.8 8.16H11.6C11.5084 8.1601 11.4201 8.12526 11.3533 8.06258C11.2865 7.9999 11.2461 7.91409 11.2403 7.82265C11.2345 7.7312 11.2639 7.641 11.3223 7.57043C11.3807 7.49985 11.4639 7.45421 11.5548 7.4428L11.6 7.44H12.8ZM4.39999 5.44C4.49161 5.4399 4.57983 5.47474 4.64666 5.53743C4.71349 5.60011 4.7539 5.68592 4.75967 5.77736C4.76543 5.8688 4.73611 5.959 4.67768 6.02958C4.61925 6.10016 4.5361 6.1458 4.44519 6.1572L4.39999 6.16H3.19999C3.10836 6.1601 3.02015 6.12526 2.95332 6.06258C2.88649 5.9999 2.84608 5.91409 2.84031 5.82265C2.83455 5.7312 2.86387 5.641 2.9223 5.57043C2.98073 5.49985 3.06388 5.45421 3.15479 5.4428L3.19999 5.44H4.39999ZM7.19999 5.44C7.29161 5.4399 7.37983 5.47474 7.44666 5.53743C7.51349 5.60011 7.5539 5.68592 7.55966 5.77736C7.56543 5.8688 7.53611 5.959 7.47768 6.02958C7.41924 6.10016 7.3361 6.1458 7.24519 6.1572L7.19999 6.16H5.99999C5.90836 6.1601 5.82015 6.12526 5.75332 6.06258C5.68649 5.9999 5.64608 5.91409 5.64031 5.82265C5.63455 5.7312 5.66387 5.641 5.7223 5.57043C5.78073 5.49985 5.86388 5.45421 5.95479 5.4428L5.99999 5.44H7.19999Z" />
<path d="M9.99996 5.44C10.0916 5.4399 10.1798 5.47474 10.2466 5.53743C10.3135 5.60011 10.3539 5.68592 10.3596 5.77736C10.3654 5.8688 10.3361 5.959 10.2777 6.02958C10.2192 6.10016 10.1361 6.1458 10.0452 6.1572L9.99996 6.16H8.79996C8.70834 6.1601 8.62012 6.12526 8.55329 6.06258C8.48646 5.9999 8.44605 5.91409 8.44029 5.82265C8.43453 5.7312 8.46385 5.641 8.52228 5.57043C8.58071 5.49985 8.66385 5.45421 8.75476 5.4428L8.79996 5.44H9.99996Z" />
<path d="M12.8 5.44C12.8916 5.4399 12.9799 5.47474 13.0467 5.53743C13.1135 5.60011 13.1539 5.68592 13.1597 5.77736C13.1655 5.8688 13.1361 5.959 13.0777 6.02958C13.0193 6.10016 12.9361 6.1458 12.8452 6.1572L12.8 6.16H11.6C11.5084 6.1601 11.4202 6.12526 11.3533 6.06258C11.2865 5.9999 11.2461 5.91409 11.2403 5.82265C11.2346 5.7312 11.2639 5.641 11.3223 5.57043C11.3808 5.49985 11.4639 5.45421 11.5548 5.4428L11.6 5.44H12.8Z" />
</svg>
