<svg viewBox="0 0 16 16" xmlns="http://www.w3.org/2000/svg">
<path fill-rule="evenodd" clip-rule="evenodd" d="M4.23388 1.11146C4.50367 1.17034 4.67465 1.43678 4.61577 1.70657L4.5459 2.02672C5.70754 1.35497 7.04405 1.03436 8.39212 1.1111C9.93355 1.19885 11.401 1.80103 12.5598 2.82132C13.7185 3.84161 14.5016 5.22105 14.7838 6.73897C15.0659 8.2569 14.8308 9.8256 14.1161 11.1941C13.4014 12.5627 12.2483 13.6519 10.8414 14.2877C9.43446 14.9235 7.85493 15.0691 6.3555 14.7011C4.85606 14.3332 3.52335 13.4729 2.57057 12.2581C1.61778 11.0432 1.09998 9.54387 1.09998 7.99995C1.09998 7.7238 1.32383 7.49995 1.59998 7.49995C1.87612 7.49995 2.09998 7.7238 2.09998 7.99995C2.09998 9.32011 2.54274 10.6021 3.35744 11.6409C4.17214 12.6797 5.3117 13.4153 6.59383 13.7299C7.87595 14.0446 9.22656 13.9201 10.4296 13.3765C11.6326 12.8328 12.6186 11.9014 13.2297 10.7312C13.8409 9.56101 14.0419 8.21966 13.8006 6.92172C13.5594 5.62379 12.8898 4.44426 11.8989 3.57184C10.9081 2.69942 9.65332 2.18451 8.33529 2.10948C7.04826 2.03622 5.77354 2.38652 4.70553 3.1054L5.64498 3.31042C5.91477 3.3693 6.08575 3.63575 6.02687 3.90554C5.96799 4.17533 5.70155 4.34631 5.43176 4.28743L3.62672 3.8935C3.35693 3.83462 3.18595 3.56817 3.24483 3.29838L3.63877 1.49335C3.69765 1.22356 3.96409 1.05258 4.23388 1.11146ZM7.99995 4.29994C8.27609 4.29994 8.49995 4.5238 8.49995 4.79994V8.00823L10.4477 9.76167C10.6529 9.94643 10.6695 10.2626 10.4848 10.4678C10.3 10.673 9.98385 10.6896 9.77862 10.5049L7.66775 8.60457C7.61567 8.55769 7.57403 8.50038 7.54552 8.43637L7.54319 8.43113C7.51468 8.36711 7.49995 8.29781 7.49995 8.22773V4.79994C7.49995 4.5238 7.72381 4.29994 7.99995 4.29994Z" />
</svg>
