<svg viewBox="0 0 16 16" xmlns="http://www.w3.org/2000/svg">
<path fill-rule="evenodd" clip-rule="evenodd" d="M7.5 3.2001C7.22386 3.2001 7 2.97624 7 2.7001V2.1001C7 1.82396 7.22386 1.6001 7.5 1.6001C7.77614 1.6001 8 1.82396 8 2.1001V2.7001C8 2.97624 7.77614 3.2001 7.5 3.2001ZM8 11.0001C9.65685 11.0001 11 9.65694 11 8.00009C11 6.34323 9.65685 5.00009 8 5.00009C6.34315 5.00009 5 6.34323 5 8.00009C5 9.65694 6.34315 11.0001 8 11.0001ZM8 12.0001C10.2091 12.0001 12 10.2092 12 8.00009C12 5.79095 10.2091 4.00009 8 4.00009C5.79086 4.00009 4 5.79095 4 8.00009C4 10.2092 5.79086 12.0001 8 12.0001ZM11.0406 3.54532C10.8453 3.74058 10.8453 4.05717 11.0406 4.25243C11.2359 4.44769 11.5525 4.44769 11.7477 4.25243L12.172 3.82816C12.3672 3.6329 12.3672 3.31632 12.172 3.12106C11.9767 2.92579 11.6601 2.92579 11.4649 3.12106L11.0406 3.54532ZM12.8 7.50009C12.8 7.22394 13.0239 7.00009 13.3 7.00009H13.9C14.1762 7.00009 14.4 7.22394 14.4 7.50009C14.4 7.77623 14.1762 8.00009 13.9 8.00009H13.3C13.0239 8.00009 12.8 7.77623 12.8 7.50009ZM12.4548 11.0406C12.2596 10.8454 11.943 10.8454 11.7477 11.0406C11.5525 11.2359 11.5525 11.5525 11.7477 11.7477L12.172 12.172C12.3672 12.3673 12.6838 12.3673 12.8791 12.172C13.0744 11.9767 13.0744 11.6602 12.8791 11.4649L12.4548 11.0406ZM7.5 14.4001C7.22386 14.4001 7 14.1762 7 13.9001V13.3001C7 13.0239 7.22386 12.8001 7.5 12.8001C7.77614 12.8001 8 13.0239 8 13.3001V13.9001C8 14.1762 7.77614 14.4001 7.5 14.4001ZM3.12093 11.4649C2.92567 11.6602 2.92567 11.9768 3.12093 12.172C3.3162 12.3673 3.63278 12.3673 3.82804 12.172L4.2523 11.7478C4.44757 11.5525 4.44757 11.2359 4.2523 11.0406C4.05704 10.8454 3.74046 10.8454 3.5452 11.0406L3.12093 11.4649ZM1.59998 7.50009C1.59998 7.22394 1.82383 7.00009 2.09998 7.00009H2.69998C2.97612 7.00009 3.19998 7.22394 3.19998 7.50009C3.19998 7.77623 2.97612 8.00009 2.69998 8.00009H2.09998C1.82383 8.00009 1.59998 7.77623 1.59998 7.50009ZM4.53515 3.12105C4.33989 2.92579 4.0233 2.92579 3.82804 3.12105C3.63278 3.31631 3.63278 3.63289 3.82804 3.82816L4.2523 4.25242C4.44757 4.44768 4.76415 4.44768 4.95941 4.25242C5.15467 4.05716 5.15467 3.74058 4.95941 3.54531L4.53515 3.12105Z" />
</svg>
