<svg viewBox="0 0 16 16" xmlns="http://www.w3.org/2000/svg">
<path fill-rule="evenodd" clip-rule="evenodd" d="M10.0955 4.47252L7.62221 6.92123C7.07517 7.46283 6.95546 8.26731 7.26307 8.92397L6.52366 9.65602C5.83937 8.58522 5.96868 7.1512 6.91159 6.21766L9.38487 3.76895C10.4776 2.68704 12.2494 2.68704 13.3421 3.76895C14.4349 4.85086 14.4349 6.60497 13.3421 7.68688L11.8031 9.21063C11.6867 9.01036 11.5421 8.8218 11.3692 8.65061C11.2979 8.58006 11.2237 8.51426 11.1468 8.45321L12.6315 6.98331C13.3318 6.28998 13.3318 5.16585 12.6315 4.47252C11.9312 3.77918 10.7958 3.77918 10.0955 4.47252ZM6.07429 12.8019L8.9468 9.95796C9.48193 9.42815 9.58654 8.63351 9.26065 8.00016L9.99379 7.2743C10.6997 8.31652 10.5876 9.74062 9.65743 10.6615L6.78492 13.5055C5.72729 14.5526 4.01253 14.5526 2.9549 13.5055C1.89727 12.4584 1.89727 10.7607 2.9549 9.71353L4.79995 7.88683C4.8967 8.02967 5.00882 8.16534 5.1363 8.29156C5.25165 8.40577 5.37482 8.50752 5.5041 8.59681L3.66553 10.4171C3.00037 11.0757 3.00037 12.1434 3.66553 12.8019C4.33069 13.4605 5.40913 13.4605 6.07429 12.8019Z" />
</svg>
