<svg viewBox="0 0 16 16" xmlns="http://www.w3.org/2000/svg">
<path fill-rule="evenodd" clip-rule="evenodd" d="M8.5 2.3999C8.77614 2.3999 9 2.62376 9 2.8999V4.04048C10.95 4.30636 12.4935 5.84987 12.7594 7.7999H13.9C14.1761 7.7999 14.4 8.02375 14.4 8.2999C14.4 8.57604 14.1761 8.7999 13.9 8.7999H12.7821C12.5979 10.8436 11.0162 12.4844 9 12.7593V13.8999C9 14.1761 8.77614 14.3999 8.5 14.3999C8.22386 14.3999 8 14.1761 8 13.8999V12.782C5.88914 12.5918 4.20815 10.9108 4.01794 8.7999H2.90002C2.62388 8.7999 2.40002 8.57604 2.40002 8.2999C2.40002 8.02375 2.62388 7.7999 2.90002 7.7999H4.04057C4.31549 5.78366 5.95626 4.20202 8 4.01785V2.8999C8 2.62376 8.22386 2.3999 8.5 2.3999ZM11.8 8.39991C11.8 10.2777 10.2778 11.7999 8.4 11.7999C6.52223 11.7999 5 10.2777 5 8.39991C5 6.52214 6.52223 4.99991 8.4 4.99991C10.2778 4.99991 11.8 6.52214 11.8 8.39991ZM8.39995 9.59992C9.06269 9.59992 9.59995 9.06266 9.59995 8.39992C9.59995 7.73718 9.06269 7.19992 8.39995 7.19992C7.73721 7.19992 7.19995 7.73718 7.19995 8.39992C7.19995 9.06266 7.73721 9.59992 8.39995 9.59992Z" />
</svg>
