<svg viewBox="0 0 16 16" xmlns="http://www.w3.org/2000/svg">
<path fill-rule="evenodd" clip-rule="evenodd" d="M8.60135 13.1054C8.40609 12.9101 8.40609 12.5935 8.60135 12.3983L12.4996 8.5L5.99998 8.5C5.72384 8.5 5.49998 8.27614 5.49998 8C5.49998 7.72386 5.72384 7.5 5.99998 7.5L12.4995 7.5L8.60135 3.60187C8.40609 3.40661 8.40609 3.09003 8.60136 2.89476C8.79662 2.6995 9.1132 2.6995 9.30846 2.89476L14.0602 7.64652C14.2555 7.84178 14.2555 8.15837 14.0602 8.35363L9.30846 13.1054C9.1132 13.3006 8.79662 13.3006 8.60135 13.1054ZM6.00002 3.5C6.27617 3.5 6.50002 3.27614 6.50002 3C6.50002 2.72386 6.27617 2.5 6.00002 2.5L3.00002 2.5C2.72388 2.5 2.50002 2.72386 2.50002 3L2.50002 13C2.50002 13.2761 2.72388 13.5 3.00002 13.5L6.00002 13.5C6.27617 13.5 6.50002 13.2761 6.50002 13C6.50002 12.7239 6.27617 12.5 6.00002 12.5L3.50002 12.5L3.50002 3.5L6.00002 3.5Z" />
</svg>
