<svg viewBox="0 0 16 16" xmlns="http://www.w3.org/2000/svg">
<path fill-rule="evenodd" clip-rule="evenodd" d="M7.39865 2.89463C7.59391 3.08989 7.59391 3.40647 7.39865 3.60174L3.50038 7.5L10 7.5C10.2762 7.5 10.5 7.72386 10.5 8C10.5 8.27614 10.2762 8.5 10 8.5L3.5005 8.5L7.39864 12.3981C7.59391 12.5934 7.59391 12.91 7.39864 13.1052C7.20338 13.3005 6.8868 13.3005 6.69154 13.1052L1.93978 8.35349C1.74452 8.15823 1.74452 7.84165 1.93978 7.64639L6.69154 2.89463C6.8868 2.69937 7.20338 2.69937 7.39865 2.89463ZM10 12.5C9.72391 12.5 9.50005 12.7239 9.50005 13C9.50005 13.2761 9.72391 13.5 10 13.5L13 13.5C13.2762 13.5 13.5 13.2761 13.5 13L13.5 3C13.5 2.72386 13.2762 2.5 13 2.5L10 2.5C9.72391 2.5 9.50005 2.72386 9.50005 3C9.50005 3.27614 9.72391 3.5 10 3.5L12.5 3.5L12.5 12.5L10 12.5Z" />
</svg>
