<svg viewBox="0 0 16 16" xmlns="http://www.w3.org/2000/svg">
<path fill-rule="evenodd" clip-rule="evenodd" d="M2.97982 5.68681C2.78456 5.49154 2.78456 5.17496 2.97982 4.9797L5.64649 2.31303C5.84175 2.11777 6.15833 2.11777 6.35359 2.31303L9.02026 4.9797C9.21552 5.17496 9.21552 5.49154 9.02026 5.68681C8.825 5.88207 8.50842 5.88207 8.31315 5.68681L6.50004 3.87369V10.6666C6.50004 10.9427 6.27618 11.1666 6.00004 11.1666C5.7239 11.1666 5.50004 10.9427 5.50004 10.6666V3.87369L3.68693 5.68681C3.49167 5.88207 3.17508 5.88207 2.97982 5.68681ZM8.31315 10.313C8.50842 10.1178 8.825 10.1178 9.02026 10.313L10.8334 12.1261V5.33325C10.8334 5.05711 11.0572 4.83325 11.3334 4.83325C11.6095 4.83325 11.8334 5.05711 11.8334 5.33325V12.1261L13.6465 10.313C13.8418 10.1178 14.1583 10.1178 14.3536 10.313C14.5489 10.5083 14.5489 10.8249 14.3536 11.0201L11.6869 13.6868C11.4917 13.8821 11.1751 13.8821 10.9798 13.6868L8.31315 11.0201C8.11789 10.8249 8.11789 10.5083 8.31315 10.313Z" />
</svg>
