<svg viewBox="0 0 16 16" xmlns="http://www.w3.org/2000/svg">
<path fill-rule="evenodd" clip-rule="evenodd" d="M4 3C3.72386 3 3.5 3.22386 3.5 3.5C3.5 3.77614 3.72386 4 4 4H14C14.2761 4 14.5 3.77614 14.5 3.5C14.5 3.22386 14.2761 3 14 3H4ZM7 8C6.72386 8 6.5 8.22386 6.5 8.5C6.5 8.77614 6.72386 9 7 9H14C14.2761 9 14.5 8.77614 14.5 8.5C14.5 8.22386 14.2761 8 14 8H7ZM3.5 13.5C3.5 13.2239 3.72386 13 4 13H14C14.2761 13 14.5 13.2239 14.5 13.5C14.5 13.7761 14.2761 14 14 14H4C3.72386 14 3.5 13.7761 3.5 13.5ZM6.5 6.5L4 10.5L1.5 6.5H6.5Z" />
</svg>
