<svg viewBox="0 0 16 16" xmlns="http://www.w3.org/2000/svg">
<path fill-rule="evenodd" clip-rule="evenodd" d="M3 3.5C3 3.22386 3.22386 3 3.5 3H12.5C12.7761 3 13 3.22386 13 3.5C13 3.77614 12.7761 4 12.5 4H3.5C3.22386 4 3 3.77614 3 3.5ZM3 7.5C3 7.22386 3.22386 7 3.5 7H10.5C10.7761 7 11 7.22386 11 7.5C11 7.77614 10.7761 8 10.5 8H3.5C3.22386 8 3 7.77614 3 7.5ZM3.5 11C3.22386 11 3 11.2239 3 11.5C3 11.7761 3.22386 12 3.5 12H12.5C12.7761 12 13 11.7761 13 11.5C13 11.2239 12.7761 11 12.5 11H3.5Z" />
</svg>
