<svg viewBox="0 0 16 16" xmlns="http://www.w3.org/2000/svg">
<path fill-rule="evenodd" clip-rule="evenodd" d="M2.59998 2.6001H13.4L13.4 13.4001L2.59998 13.4001V2.6001ZM1.59998 2.6001C1.59998 2.04781 2.04769 1.6001 2.59998 1.6001H13.4C13.9523 1.6001 14.4 2.04781 14.4 2.6001V13.4001C14.4 13.9524 13.9523 14.4001 13.4 14.4001H2.59998C2.04769 14.4001 1.59998 13.9524 1.59998 13.4001V2.6001ZM4.80005 11.2001V4.80008H5.6846L7.99138 10.2589H8.01739L10.3155 4.80008H11.2V11.2001H10.4889V6.10876H10.4629L8.32092 11.2001H7.67918L5.53718 6.10876H5.51116V11.2001H4.80005Z" />
</svg>
