<svg viewBox="0 0 16 16" xmlns="http://www.w3.org/2000/svg">
<path fill-rule="evenodd" clip-rule="evenodd" d="M3.8 8.0001C3.8 8.7733 3.1732 9.4001 2.4 9.4001C1.6268 9.4001 1 8.7733 1 8.0001C1 7.2269 1.6268 6.6001 2.4 6.6001C3.1732 6.6001 3.8 7.2269 3.8 8.0001ZM9.39998 8.0001C9.39998 8.7733 8.77317 9.4001 7.99998 9.4001C7.22678 9.4001 6.59998 8.7733 6.59998 8.0001C6.59998 7.2269 7.22678 6.6001 7.99998 6.6001C8.77317 6.6001 9.39998 7.2269 9.39998 8.0001ZM13.6 9.4001C14.3731 9.4001 15 8.7733 15 8.0001C15 7.2269 14.3731 6.6001 13.6 6.6001C12.8268 6.6001 12.2 7.2269 12.2 8.0001C12.2 8.7733 12.8268 9.4001 13.6 9.4001Z" />
</svg>
