<svg viewBox="0 0 16 16" xmlns="http://www.w3.org/2000/svg">
<path fill-rule="evenodd" clip-rule="evenodd" d="M14.4509 1.95878C14.6461 1.76352 14.6461 1.44693 14.4509 1.25167C14.2556 1.05641 13.939 1.05641 13.7438 1.25167L12.8093 2.18612C11.5826 1.26643 9.83457 1.36443 8.71889 2.48011L7.84411 3.35489C7.45359 3.74542 7.45359 4.37858 7.84411 4.76911L10.8592 7.78418C11.2497 8.17471 11.8829 8.17471 12.2734 7.78418L13.1482 6.9094C14.238 5.81959 14.3568 4.12646 13.5045 2.90514L14.4509 1.95878ZM8.55122 4.062L11.5663 7.07708L12.4411 6.20229C13.2737 5.3697 13.2737 4.01981 12.4411 3.18722C11.6085 2.35463 10.2586 2.35463 9.426 3.18722L8.55122 4.062ZM6.30583 7.7954L8.12971 9.61928L9.04168 8.70731C9.23694 8.51204 9.55352 8.51204 9.74878 8.70731C9.94405 8.90257 9.94405 9.21915 9.74878 9.41441L8.83295 10.3302C9.1514 10.723 9.12791 11.3008 8.76249 11.6663L7.8877 12.5411C6.77198 13.6568 5.0239 13.7547 3.79713 12.8349L2.86283 13.7692C2.66757 13.9645 2.35099 13.9645 2.15572 13.7692C1.96046 13.574 1.96046 13.2574 2.15572 13.0621L3.10198 12.1159C2.24984 10.8946 2.36865 9.20153 3.45841 8.11176L4.3332 7.23698C4.67272 6.89746 5.19564 6.85312 5.58306 7.10395L6.51068 6.17634C6.70594 5.98107 7.02252 5.98107 7.21779 6.17634C7.41305 6.3716 7.41305 6.68818 7.21779 6.88344L6.30583 7.7954ZM5.0403 7.94409L8.05538 10.9592L7.1806 11.8339C6.34801 12.6665 4.99811 12.6665 4.16552 11.8339C3.33293 11.0014 3.33293 9.65146 4.16552 8.81887L5.0403 7.94409ZM13 11.9999H11V10.9999H13V8.9999H14V10.9999H16V11.9999H14V13.9999H13V11.9999Z" />
</svg>
