<svg viewBox="0 0 16 16" xmlns="http://www.w3.org/2000/svg">
<path fill-rule="evenodd" clip-rule="evenodd" d="M7.03935 2.70181C6.78332 2.54361 6.48827 2.45986 6.1873 2.45996H6.18707H3.52002C3.09037 2.45996 2.67832 2.63064 2.37451 2.93445C2.0707 3.23826 1.90002 3.65031 1.90002 4.07996V11.92C1.90002 12.3496 2.0707 12.7617 2.37451 13.0655C2.67832 13.3693 3.09037 13.54 3.52002 13.54H12.48C12.9097 13.54 13.3217 13.3693 13.6255 13.0655C13.9293 12.7617 14.1 12.3496 14.1 11.92V6.31996C14.1 5.89031 13.9293 5.47826 13.6255 5.17445C13.3217 4.87064 12.9097 4.69996 12.48 4.69996H8.6922H8.69218C8.57703 4.69995 8.46415 4.66788 8.3662 4.60732C8.26824 4.54676 8.18909 4.46012 8.13761 4.3571L8.13756 4.35699L7.63697 3.35582L7.63692 3.35571C7.50235 3.08646 7.29542 2.86003 7.03935 2.70181ZM6.18754 3.45996C6.30275 3.45991 6.41571 3.49196 6.51372 3.55252C6.61174 3.61308 6.69094 3.69976 6.74244 3.80282L6.74249 3.80293L7.24308 4.8041L7.24313 4.80421C7.37764 5.07334 7.58444 5.29969 7.84035 5.4579C8.0963 5.61613 8.39126 5.69995 8.69217 5.69996H8.69218H12.48C12.6445 5.69996 12.8022 5.76528 12.9184 5.88156C13.0347 5.99783 13.1 6.15553 13.1 6.31996V11.92C13.1 12.0844 13.0347 12.2421 12.9184 12.3584C12.8022 12.4746 12.6445 12.54 12.48 12.54H3.52002C3.35559 12.54 3.19789 12.4746 3.08162 12.3584C2.96535 12.2421 2.90002 12.0844 2.90002 11.92V4.07996C2.90002 3.91553 2.96535 3.75783 3.08162 3.64155C3.19789 3.52528 3.35559 3.45996 3.52002 3.45996H6.1873L6.18754 3.45996ZM8.50007 7.43991C8.50007 7.16377 8.27621 6.93991 8.00007 6.93991C7.72393 6.93991 7.50007 7.16377 7.50007 7.43991V8.61991H6.32007C6.04393 8.61991 5.82007 8.84377 5.82007 9.11991C5.82007 9.39605 6.04393 9.61991 6.32007 9.61991H7.50007V10.7999C7.50007 11.0761 7.72393 11.2999 8.00007 11.2999C8.27621 11.2999 8.50007 11.0761 8.50007 10.7999V9.61991H9.68007C9.95621 9.61991 10.1801 9.39605 10.1801 9.11991C10.1801 8.84377 9.95621 8.61991 9.68007 8.61991H8.50007V7.43991Z" />
</svg>
