<svg viewBox="0 0 16 16" xmlns="http://www.w3.org/2000/svg">
<path fill-rule="evenodd" clip-rule="evenodd" d="M13.4 2.6001L4.19995 2.6001V3.2001H3.19995V2.6001C3.19995 2.04781 3.64767 1.6001 4.19995 1.6001H13.4C13.9522 1.6001 14.4 2.04781 14.4 2.6001V11.8001C14.4 12.3524 13.9522 12.8001 13.4 12.8001H12.8V13.4001C12.8 13.9524 12.3523 14.4001 11.8 14.4001H2.59997C2.04769 14.4001 1.59998 13.9524 1.59998 13.4001V7.7001V6.7001V4.2001C1.59998 3.64782 2.04769 3.2001 2.59998 3.2001H11.8C12.3523 3.2001 12.8 3.64782 12.8 4.2001V6.70011V7.70011V11.8001H13.4L13.4 2.6001ZM11.8 4.2001L2.59998 4.2001L2.59998 6.7001L11.8 6.70011V4.2001ZM11.8 13.4001L11.8 7.70011L2.59998 7.7001L2.59997 13.4001L11.8 13.4001Z" />
</svg>
