<svg viewBox="0 0 16 16" xmlns="http://www.w3.org/2000/svg">
<path fill-rule="evenodd" clip-rule="evenodd" d="M7.42573 2.76389C7.58604 2.589 7.79368 2.5 7.99996 2.5C8.20624 2.5 8.41388 2.589 8.57419 2.76389C8.71462 2.91709 8.80661 3.12422 8.82833 3.3507C8.71346 3.3408 8.59756 3.3356 8.48086 3.33532L7.50353 3.33332C7.39224 3.33306 7.28168 3.33732 7.17205 3.34593C7.19461 3.12131 7.28628 2.91601 7.42573 2.76389ZM6.17561 3.54938C6.16971 3.51868 6.16663 3.48697 6.16663 3.45455C6.16663 2.94953 6.35012 2.45738 6.68857 2.08816C7.02836 1.71749 7.499 1.5 7.99996 1.5C8.50092 1.5 8.97156 1.71749 9.31134 2.08816C9.64979 2.45738 9.83329 2.94953 9.83329 3.45455C9.83329 3.4906 9.82948 3.52577 9.82222 3.55966C11.4357 4.10753 12.6558 5.59669 12.6769 7.33399V9.85932C12.6769 10.386 12.7442 10.9007 13.0309 11.3387L13.2222 11.6307C13.5129 12.0733 13.2002 12.6667 12.6769 12.6667H3.32353C2.8002 12.6667 2.48686 12.0733 2.7782 11.6307L2.96953 11.3387C3.25686 10.9007 3.32353 10.3867 3.32353 9.85999V7.33332C3.3357 5.59195 4.55739 4.09163 6.17561 3.54938ZM12.0641 11.6667C11.7332 11.0457 11.6769 10.3888 11.6769 9.85932V7.34057C11.6541 5.73836 10.2039 4.33964 8.47882 4.33532L8.47847 4.33532L7.50148 4.33332L7.50114 4.33332C5.78392 4.32921 4.33666 5.73362 4.32353 7.33709V9.85999C4.32353 10.3885 4.26801 11.0453 3.93645 11.6667H12.0641ZM8.70723 13.3738C8.89477 13.1863 9.00012 12.9319 9.00012 12.6667H10.0001C10.0001 13.1971 9.78941 13.7058 9.41434 14.0809C9.03926 14.456 8.53055 14.6667 8.00012 14.6667C7.46969 14.6667 6.96098 14.456 6.58591 14.0809C6.21084 13.7058 6.00012 13.1971 6.00012 12.6667H7.00012C7.00012 12.9319 7.10548 13.1863 7.29302 13.3738C7.48055 13.5613 7.73491 13.6667 8.00012 13.6667C8.26534 13.6667 8.51969 13.5613 8.70723 13.3738Z" />
</svg>
