<svg viewBox="0 0 16 16" xmlns="http://www.w3.org/2000/svg">
<path fill-rule="evenodd" clip-rule="evenodd" d="M3 3H13V5H3L3 3ZM2 6V5V3C2 2.44772 2.44772 2 3 2H13C13.5523 2 14 2.44772 14 3V5V6V13C14 13.5523 13.5523 14 13 14H3C2.44772 14 2 13.5523 2 13V6ZM13 6V13H3L3 6H13ZM6.14645 11.6464C5.95118 11.4512 5.95118 11.1346 6.14645 10.9393L8.58579 8.5H7C6.72386 8.5 6.5 8.27614 6.5 8C6.5 7.72386 6.72386 7.5 7 7.5H9.79252C9.79277 7.5 9.79302 7.5 9.79327 7.5H10H10.5V8V11C10.5 11.2761 10.2761 11.5 10 11.5C9.72386 11.5 9.5 11.2761 9.5 11V9L6.85355 11.6464C6.65829 11.8417 6.34171 11.8417 6.14645 11.6464Z" />
</svg>
