<svg viewBox="0 0 16 16" xmlns="http://www.w3.org/2000/svg">
<path fill-rule="evenodd" clip-rule="evenodd" d="M12.6 3.3999L3.40002 3.3999L3.40002 12.5999L12.6 12.5999L12.6 3.3999ZM3.40002 2.3999C2.84774 2.3999 2.40002 2.84762 2.40002 3.3999V12.5999C2.40002 13.1522 2.84774 13.5999 3.40002 13.5999H12.6C13.1523 13.5999 13.6 13.1522 13.6 12.5999V3.3999C13.6 2.84762 13.1523 2.3999 12.6 2.3999H3.40002ZM6.09998 4.7999C6.37612 4.7999 6.59998 5.02375 6.59998 5.2999V5.76041C6.9587 5.96789 7.20005 6.35572 7.20005 6.79991C7.20005 7.24411 6.9587 7.63194 6.59998 7.83942L6.59998 10.6999C6.59998 10.976 6.37612 11.1999 6.09998 11.1999C5.82383 11.1999 5.59998 10.976 5.59998 10.6999L5.59998 7.93161C5.13394 7.76685 4.80005 7.32237 4.80005 6.79991C4.80005 6.27745 5.13394 5.83298 5.59998 5.66822V5.2999C5.59998 5.02375 5.82383 4.7999 6.09998 4.7999ZM10.6 5.2999C10.6 5.02375 10.3761 4.7999 10.1 4.7999C9.82383 4.7999 9.59998 5.02375 9.59998 5.2999L9.59998 8.06822C9.13394 8.23297 8.80005 8.67745 8.80005 9.19991C8.80005 9.72237 9.13394 10.1668 9.59998 10.3316V10.6999C9.59998 10.976 9.82383 11.1999 10.1 11.1999C10.3761 11.1999 10.6 10.976 10.6 10.6999V10.2394C10.9587 10.0319 11.2 9.64411 11.2 9.19991C11.2 8.75571 10.9587 8.36788 10.6 8.1604L10.6 5.2999Z" />
</svg>
