<svg viewBox="0 0 16 16" xmlns="http://www.w3.org/2000/svg">
<path fill-rule="evenodd" clip-rule="evenodd" d="M14.6 9.2399V12.4799C14.6 13.0422 14.3767 13.5814 13.9791 13.979C13.5815 14.3765 13.0423 14.5999 12.48 14.5999H9.24003V12.4799C9.24003 12.4481 9.22738 12.4176 9.20488 12.3951C9.18237 12.3725 9.15185 12.3599 9.12003 12.3599C9.0882 12.3599 9.05768 12.3725 9.03517 12.3951C9.01267 12.4176 9.00002 12.4481 9.00002 12.4799V14.5999H5.76003C5.19777 14.5999 4.65853 14.3765 4.26096 13.979C3.86338 13.5814 3.64002 13.0422 3.64002 12.4799V11.2399H3.52002C2.95777 11.2399 2.41853 11.0165 2.02096 10.619C1.62338 10.2214 1.40002 9.68216 1.40002 9.1199C1.40002 8.55764 1.62338 8.01841 2.02096 7.62084C2.41853 7.22326 2.95777 6.9999 3.52002 6.9999H3.64002V5.7599C3.64002 4.59162 4.59174 3.6399 5.76003 3.6399H7.00002V3.5199C7.00002 2.95764 7.22338 2.41841 7.62096 2.02084C8.01854 1.62326 8.55777 1.3999 9.12003 1.3999C9.68228 1.3999 10.2215 1.62326 10.6191 2.02084C11.0167 2.41841 11.24 2.95764 11.24 3.5199V3.6399H12.48C13.0423 3.6399 13.5815 3.86326 13.9791 4.26084C14.3767 4.65841 14.6 5.19764 14.6 5.7599V8.9999H12.48C12.4482 8.9999 12.4177 9.01255 12.3952 9.03505C12.3727 9.05756 12.36 9.08808 12.36 9.1199C12.36 9.15173 12.3727 9.18225 12.3952 9.20476C12.4177 9.22726 12.4482 9.2399 12.48 9.2399H14.6ZM10.24 4.6399V3.5199C10.24 3.22286 10.122 2.93798 9.91198 2.72794C9.70194 2.5179 9.41707 2.3999 9.12003 2.3999C8.82298 2.3999 8.53811 2.5179 8.32807 2.72794C8.11802 2.93798 8.00002 3.22286 8.00002 3.5199V4.6399H5.76003C5.14402 4.6399 4.64002 5.1439 4.64002 5.7599V7.9999H3.52002C3.22298 7.9999 2.93811 8.1179 2.72806 8.32794C2.51802 8.53798 2.40002 8.82286 2.40002 9.1199C2.40002 9.41695 2.51802 9.70182 2.72806 9.91186C2.93811 10.1219 3.22298 10.2399 3.52002 10.2399H4.64002V12.4799C4.64002 12.7769 4.75802 13.0618 4.96807 13.2719C5.17811 13.4819 5.46298 13.5999 5.76003 13.5999H8.00002V12.4799C8.00002 12.1829 8.11802 11.898 8.32807 11.6879C8.53811 11.4779 8.82298 11.3599 9.12003 11.3599C9.41707 11.3599 9.70194 11.4779 9.91198 11.6879C10.122 11.898 10.24 12.1829 10.24 12.4799V13.5999H12.48C12.7771 13.5999 13.0619 13.4819 13.272 13.2719C13.482 13.0618 13.6 12.7769 13.6 12.4799V10.2399H12.48C12.183 10.2399 11.8981 10.1219 11.6881 9.91186C11.478 9.70182 11.36 9.41695 11.36 9.1199C11.36 8.82286 11.478 8.53798 11.6881 8.32794C11.8981 8.1179 12.183 7.9999 12.48 7.9999H13.6V5.7599C13.6 5.46286 13.482 5.17798 13.272 4.96794C13.0619 4.7579 12.7771 4.6399 12.48 4.6399H10.24Z" />
</svg>
