<svg viewBox="0 0 16 16" xmlns="http://www.w3.org/2000/svg">
<path fill-rule="evenodd" clip-rule="evenodd" d="M8.42868 14.9523L14.5537 11.5101C14.8294 11.3552 15 11.0636 15 10.7473V4.31715C15 4.00091 14.8294 3.70928 14.5537 3.55435L8.42868 0.112202C8.16247 -0.0374007 7.83753 -0.0374007 7.57132 0.112202L1.44632 3.55435C1.17064 3.70928 1 4.00091 1 4.31715V10.7473C1 11.0636 1.17064 11.3552 1.44632 11.5101L7.57132 14.9523C7.83753 15.1019 8.16247 15.1019 8.42868 14.9523ZM14.125 10.7473L8 14.1895L1.875 10.7473L1.875 4.31715L8 0.875L14.125 4.31715V10.7473ZM4.92263 5.41223C5.04686 5.20498 5.31557 5.13768 5.52281 5.2619L7.79987 6.6268C7.86447 6.66552 7.92497 6.70931 7.981 6.75749L10.4761 5.2619C10.6833 5.13768 10.9521 5.20498 11.0763 5.41223C11.2005 5.61947 11.1332 5.88818 10.926 6.01241L8.41626 7.51674C8.43032 7.59379 8.43759 7.67266 8.43759 7.75255V11.7111C8.43759 11.9528 8.24171 12.1486 8.00009 12.1486C7.75846 12.1486 7.56259 11.9528 7.56259 11.7111V7.75255C7.56259 7.5988 7.48189 7.45634 7.35002 7.3773L5.07295 6.01241C4.86571 5.88818 4.79841 5.61947 4.92263 5.41223Z" />
</svg>
