<svg viewBox="0 0 16 16" xmlns="http://www.w3.org/2000/svg">
<path fill-rule="evenodd" clip-rule="evenodd" d="M10.5594 2.57784C10.3641 2.38258 10.0476 2.38258 9.8523 2.57784C9.65704 2.77311 9.65704 3.08969 9.8523 3.28495L12.0674 5.50006H6.00005C4.61934 5.50006 3.50005 6.61935 3.50005 8.00006V14.0001C3.50005 14.2762 3.7239 14.5001 4.00005 14.5001C4.27619 14.5001 4.50005 14.2762 4.50005 14.0001V8.00006C4.50005 7.17163 5.17162 6.50006 6.00005 6.50006H11.7929L9.8523 8.44064C9.65704 8.6359 9.65704 8.95248 9.8523 9.14774C10.0476 9.34301 10.3641 9.34301 10.5594 9.14774L13.3489 6.35825C13.3521 6.35518 13.3552 6.35207 13.3582 6.34892L13.4908 6.21635L13.8444 5.86279L13.4908 5.50924L10.5594 2.57784Z" />
</svg>
