<svg viewBox="0 0 16 16" xmlns="http://www.w3.org/2000/svg">
<path fill-rule="evenodd" clip-rule="evenodd" d="M5.94071 2.14645C6.13597 1.95118 6.45256 1.95118 6.64782 2.14645C6.84308 2.34171 6.84308 2.65829 6.64782 2.85355L4.43271 5.06866H10.5001C11.8808 5.06866 13.0001 6.18795 13.0001 7.56866V13.5687C13.0001 13.8448 12.7762 14.0687 12.5001 14.0687C12.2239 14.0687 12.0001 13.8448 12.0001 13.5687V7.56866C12.0001 6.74024 11.3285 6.06866 10.5001 6.06866H4.70724L6.64782 8.00924C6.84308 8.2045 6.84308 8.52108 6.64782 8.71635C6.45256 8.91161 6.13597 8.91161 5.94071 8.71635L3.15121 5.92685C3.14807 5.92378 3.14496 5.92067 3.14189 5.91753L3.00932 5.78495L2.65576 5.4314L3.00932 5.07784L5.94071 2.14645Z" />
</svg>
