<svg viewBox="0 0 16 16" xmlns="http://www.w3.org/2000/svg">
<path d="M11.1827 2.55554C11.5171 2.55554 11.8531 2.80676 11.9371 3.14199L13.2772 7.1631C13.3818 7.2777 13.4413 7.4264 13.4444 7.58154V12.1891C13.4444 12.8588 12.858 13.4452 12.1875 13.4452H3.81088C3.14121 13.4452 2.55554 12.8588 2.55554 12.1891V7.58154C2.55554 7.41432 2.63954 7.2471 2.72276 7.1631L4.06288 3.14199C4.1461 2.80754 4.48132 2.55554 4.81654 2.55554H11.1827ZM5.90543 7.58154H3.39243V12.1891C3.39243 12.4403 3.55965 12.6075 3.81088 12.6075H12.1875C12.4395 12.6075 12.6068 12.4403 12.6068 12.1891V7.58154H10.0938V9.25688C10.0938 9.75932 9.75932 10.0945 9.2561 10.0945H6.7431C6.24065 10.0945 5.90543 9.7601 5.90543 9.25688V7.58154ZM9.2561 7.58154H6.7431V9.25688H9.2561V7.58154ZM11.1827 3.39321H4.81654L3.72765 6.74388H6.07265L6.40788 4.90054C6.49188 4.4821 6.8271 4.23088 7.24554 4.23088H8.75443C9.08888 4.23088 9.4241 4.4821 9.50888 4.90132L9.92732 6.74388H12.2723L11.1834 3.39321H11.1827ZM8.67043 5.06854H7.24554L6.9111 6.74388H9.00488L8.67043 5.06854Z" />
</svg>
