<svg viewBox="0 0 16 16" xmlns="http://www.w3.org/2000/svg">
<path fill-rule="evenodd" clip-rule="evenodd" d="M8 1.8999C7.19893 1.8999 6.40571 2.05768 5.66563 2.36424C4.92554 2.67079 4.25308 3.12011 3.68665 3.68655C3.12021 4.25299 2.67089 4.92545 2.36433 5.66553C2.16806 6.13937 2.03278 6.63498 1.96084 7.14049L1.20365 6.10481C1.04068 5.88189 0.727848 5.83329 0.504927 5.99627C0.282007 6.15925 0.233413 6.47208 0.39639 6.695L1.77586 8.58185C1.93884 8.80477 2.25167 8.85336 2.47459 8.69038L4.35159 7.31812C4.57451 7.15514 4.6231 6.84231 4.46012 6.61939C4.29715 6.39647 3.98432 6.34788 3.7614 6.51085L2.98376 7.07938C3.04847 6.72673 3.15035 6.38105 3.28821 6.04822C3.54451 5.42946 3.92017 4.86724 4.39375 4.39366C4.86733 3.92008 5.42955 3.54442 6.04831 3.28812C6.66707 3.03182 7.33026 2.8999 8 2.8999C8.66974 2.8999 9.33292 3.03182 9.95168 3.28812C10.5704 3.54442 11.1327 3.92008 11.6062 4.39366C12.0798 4.86724 12.4555 5.42946 12.7118 6.04822C12.8175 6.30334 13.1099 6.42449 13.3651 6.31881C13.6202 6.21314 13.7413 5.92066 13.6357 5.66553C13.3291 4.92545 12.8798 4.25299 12.3133 3.68655C11.7469 3.12011 11.0745 2.67079 10.3344 2.36424C9.59428 2.05768 8.80106 1.8999 8 1.8999ZM15.495 10.2904C15.2721 10.4534 14.9593 10.4048 14.7963 10.1818L14.0391 9.14616C13.9672 9.65167 13.8319 10.1473 13.6356 10.6211C13.3291 11.3612 12.8797 12.0337 12.3133 12.6001C11.7469 13.1665 11.0744 13.6159 10.3343 13.9224C9.59423 14.229 8.80101 14.3867 7.99995 14.3867C7.19889 14.3867 6.40567 14.229 5.66558 13.9224C4.92549 13.6159 4.25303 13.1665 3.6866 12.6001C3.12016 12.0337 2.67084 11.3612 2.36428 10.6211C2.25861 10.366 2.37976 10.0735 2.63488 9.96784C2.89 9.86216 3.18249 9.98331 3.28816 10.2384C3.54446 10.8572 3.92013 11.4194 4.3937 11.893C4.86728 12.3666 5.4295 12.7422 6.04826 12.9985C6.66702 13.2548 7.33021 13.3867 7.99995 13.3867C8.66969 13.3867 9.33287 13.2548 9.95163 12.9985C10.5704 12.7422 11.1326 12.3666 11.6062 11.893C12.0798 11.4194 12.4554 10.8572 12.7117 10.2384C12.8496 9.9056 12.9515 9.55992 13.0162 9.20727L12.2386 9.7758C12.0156 9.93878 11.7028 9.89018 11.5398 9.66726C11.3768 9.44434 11.4254 9.13151 11.6484 8.96853L13.5254 7.59627C13.7483 7.43329 14.0611 7.48188 14.2241 7.7048L15.6036 9.59165C15.7665 9.81457 15.7179 10.1274 15.495 10.2904Z" />
</svg>
