<svg viewBox="0 0 16 16" xmlns="http://www.w3.org/2000/svg">
<path fill-rule="evenodd" clip-rule="evenodd" d="M13 3H8.62149V6.08535C9.20408 6.29127 9.62149 6.84689 9.62149 7.5V8.5C9.62149 9.15311 9.20408 9.70873 8.62149 9.91465V13H13V3ZM7.62149 6.08535C7.03889 6.29127 6.62149 6.84689 6.62149 7.5V8.5C6.62149 9.15311 7.03889 9.70873 7.62149 9.91465V13H3L3 3H7.62149V6.08535ZM9 2H8H3C2.44772 2 2 2.44772 2 3V13C2 13.5523 2.44772 14 3 14H13C13.5523 14 14 13.5523 14 13V3C14 2.44772 13.5523 2 13 2H9Z" />
</svg>
