<svg viewBox="0 0 16 16" xmlns="http://www.w3.org/2000/svg">
<path fill-rule="evenodd" clip-rule="evenodd" d="M8.80947 3.7586H13.2414V7.86403C13.2414 8.28299 12.9017 8.62263 12.4828 8.62263H8.05088V4.51719C8.05088 4.09823 8.39051 3.7586 8.80947 3.7586ZM7.29228 4.51719C7.29228 3.67927 7.97155 3 8.80947 3H14V7.86403C14 8.70195 13.3207 9.38122 12.4828 9.38122H7.29228V4.51719ZM3.7586 8.57767C3.7586 7.94923 4.26805 7.43977 4.89649 7.43977H6.45366V6.68118H4.89649C3.84909 6.68118 3 7.53027 3 8.57767V13.2409H8.07774C9.08819 13.2409 9.90732 12.4218 9.90732 11.4113V9.96103H9.14872V11.4113C9.14872 12.0028 8.66923 12.4823 8.07774 12.4823H3.7586V8.57767ZM12.6042 4.94123C12.8137 4.94123 12.9835 5.11104 12.9835 5.32052V7.17243C12.9835 7.80087 12.474 8.31032 11.8456 8.31032H11.2067C10.9973 8.31032 10.8275 8.1405 10.8275 7.93102C10.8275 7.72154 10.9973 7.55173 11.2067 7.55173H11.8456C12.0551 7.55173 12.2249 7.38191 12.2249 7.17243V5.32052C12.2249 5.11104 12.3947 4.94123 12.6042 4.94123ZM10.3676 8.22102C10.522 8.22102 10.6471 8.09116 10.6471 7.93096C10.6471 7.77077 10.522 7.64091 10.3676 7.64091C10.2133 7.64091 10.0881 7.77077 10.0881 7.93096C10.0881 8.09116 10.2133 8.22102 10.3676 8.22102Z" />
</svg>
