<svg viewBox="0 0 16 16" xmlns="http://www.w3.org/2000/svg">
<path fill-rule="evenodd" clip-rule="evenodd" d="M4.50623 3.84627C5.36354 2.98392 6.52567 2.5 7.7368 2.5C8.94794 2.5 10.1101 2.98392 10.9674 3.84627C11.8248 4.70872 12.307 5.87906 12.307 7.1C12.307 8.32094 11.8248 9.49128 10.9674 10.3537C10.1101 11.2161 8.94794 11.7 7.7368 11.7C6.52567 11.7 5.36354 11.2161 4.50623 10.3537C3.64883 9.49128 3.16663 8.32094 3.16663 7.1C3.16663 5.87906 3.64883 4.70872 4.50623 3.84627ZM7.7368 1.5C6.25855 1.5 4.84144 2.09072 3.79706 3.14124C2.75277 4.19167 2.16663 5.61573 2.16663 7.1C2.16663 8.58427 2.75277 10.0083 3.79706 11.0588C4.84144 12.1093 6.25855 12.7 7.7368 12.7C9.07275 12.7 10.3588 12.2175 11.3649 11.3492C11.3666 11.351 11.3683 11.3528 11.3701 11.3546L13.6475 13.6454C13.8422 13.8412 14.1579 13.8412 14.3525 13.6454C14.5472 13.4496 14.5472 13.1321 14.3525 12.9362L12.0751 10.6454C12.0702 10.6405 12.0652 10.6357 12.0602 10.631C12.8633 9.63718 13.307 8.39138 13.307 7.1C13.307 5.61573 12.7208 4.19167 11.6765 3.14124C10.6322 2.09072 9.21505 1.5 7.7368 1.5Z" />
</svg>
