<svg viewBox="0 0 16 16" xmlns="http://www.w3.org/2000/svg">
<path fill-rule="evenodd" clip-rule="evenodd" d="M7.99996 2.75464L12.5425 5.37729V10.6226L7.99996 13.2452L3.4574 10.6226V5.37729L7.99996 2.75464ZM7.49996 1.88861C7.80936 1.70998 8.19056 1.70998 8.49996 1.88861L13.0425 4.51126C13.3519 4.6899 13.5425 5.02002 13.5425 5.37729V10.6226C13.5425 10.9799 13.3519 11.31 13.0425 11.4886L8.49996 14.1113C8.19056 14.2899 7.80936 14.2899 7.49996 14.1113L2.9574 11.4886C2.648 11.31 2.4574 10.9799 2.4574 10.6226V5.37729C2.4574 5.02002 2.648 4.6899 2.9574 4.51126L7.49996 1.88861ZM9.39996 7.99994C9.39996 8.77314 8.77316 9.39994 7.99996 9.39994C7.22676 9.39994 6.59996 8.77314 6.59996 7.99994C6.59996 7.22674 7.22676 6.59994 7.99996 6.59994C8.77316 6.59994 9.39996 7.22674 9.39996 7.99994ZM10.4 7.99994C10.4 9.32542 9.32544 10.3999 7.99996 10.3999C6.67448 10.3999 5.59996 9.32542 5.59996 7.99994C5.59996 6.67445 6.67448 5.59994 7.99996 5.59994C9.32544 5.59994 10.4 6.67445 10.4 7.99994Z" />
</svg>
