<svg viewBox="0 0 16 16" xmlns="http://www.w3.org/2000/svg">
<path fill-rule="evenodd" clip-rule="evenodd" d="M12.0977 2.229C11.856 2.09541 11.5518 2.18303 11.4182 2.42471C11.2846 2.66639 11.3723 2.9706 11.614 3.10419L12.5023 3.59525C10.3829 4.17777 9.01651 5.36168 8.18472 6.68731C7.22795 8.21213 6.99562 9.89525 7.08512 11.0031C7.10736 11.2784 7.34852 11.4835 7.62376 11.4612C7.89901 11.439 8.10411 11.1978 8.08188 10.9226C8.00723 9.99869 8.20497 8.5365 9.03177 7.21882C9.72345 6.11648 10.8679 5.09377 12.7187 4.57297L12.0896 5.30322C11.9094 5.51244 11.9329 5.82815 12.1421 6.00838C12.3513 6.18861 12.667 6.16512 12.8473 5.95591L14.2181 4.36462C14.5081 4.02805 14.4152 3.51001 14.0264 3.2951L12.0977 2.229ZM3.66663 3.75913C3.39048 3.75913 3.16663 3.98298 3.16663 4.25913V12.3332C3.16663 12.6094 3.39048 12.8332 3.66663 12.8332H12.6937C12.9698 12.8332 13.1937 12.6094 13.1937 12.3332V8.29617H14.1937V12.3332C14.1937 13.1616 13.5221 13.8332 12.6937 13.8332H3.66663C2.8382 13.8332 2.16663 13.1616 2.16663 12.3332V4.25913C2.16663 3.4307 2.8382 2.75913 3.66663 2.75913H8.18015V3.75913H3.66663Z" />
</svg>
