<svg viewBox="0 0 16 16" xmlns="http://www.w3.org/2000/svg">
<path fill-rule="evenodd" clip-rule="evenodd" d="M3.66663 1.5C2.8382 1.5 2.16663 2.17157 2.16663 3V13C2.16663 13.8284 2.8382 14.5 3.66663 14.5H7.99996C8.2761 14.5 8.49996 14.2761 8.49996 14C8.49996 13.7239 8.2761 13.5 7.99996 13.5H3.66663C3.39048 13.5 3.16663 13.2761 3.16663 13V3C3.16663 2.72386 3.39048 2.5 3.66663 2.5H12.3333C12.6094 2.5 12.8333 2.72386 12.8333 3V5.5C12.8333 5.77614 13.0572 6 13.3333 6C13.6094 6 13.8333 5.77614 13.8333 5.5V3C13.8333 2.17157 13.1617 1.5 12.3333 1.5H3.66663ZM4.66663 5.27777C4.39048 5.27777 4.16663 5.50163 4.16663 5.77777C4.16663 6.05391 4.39048 6.27777 4.66663 6.27777H6.79993C7.07607 6.27777 7.29993 6.05391 7.29993 5.77777C7.29993 5.50163 7.07607 5.27777 6.79993 5.27777H4.66663ZM4.66663 7.49999C4.39048 7.49999 4.16663 7.72385 4.16663 7.99999C4.16663 8.27614 4.39048 8.49999 4.66663 8.49999H8.39993C8.67607 8.49999 8.89993 8.27614 8.89993 7.99999C8.89993 7.72385 8.67607 7.49999 8.39993 7.49999H4.66663ZM4.66663 9.72222C4.39048 9.72222 4.16663 9.94607 4.16663 10.2222C4.16663 10.4984 4.39048 10.7222 4.66663 10.7222H8.39993C8.67607 10.7222 8.89993 10.4984 8.89993 10.2222C8.89993 9.94607 8.67607 9.72222 8.39993 9.72222H4.66663ZM13 9.20711L12.5251 9.68198C11.8687 10.3384 11.5 11.2286 11.5 12.1569V14H10.5V12.1569C10.5 10.9634 10.9741 9.81879 11.818 8.97487L12.2929 8.5H10.5V7.5H13.5H14V8V11H13V9.20711Z" />
</svg>
