<svg viewBox="0 0 16 16" xmlns="http://www.w3.org/2000/svg">
<path fill-rule="evenodd" clip-rule="evenodd" d="M13.6603 3.62547C13.6629 3.9016 13.4411 4.12753 13.165 4.13011L7.42111 4.18364C7.14498 4.18621 6.91904 3.96445 6.91647 3.68832C6.9139 3.41219 7.13566 3.18626 7.41179 3.18368L13.1557 3.13015C13.4318 3.12758 13.6577 3.34934 13.6603 3.62547ZM5.36141 3.62903C5.3673 3.90511 5.14827 4.13369 4.87219 4.13958L2.81071 4.18355C2.53463 4.18944 2.30605 3.9704 2.30016 3.69432C2.29428 3.41824 2.51331 3.18966 2.78939 3.18378L4.85086 3.1398C5.12694 3.13392 5.35552 3.35295 5.36141 3.62903ZM13.6603 8.04942C13.6617 8.32556 13.439 8.55057 13.1629 8.552L2.80263 8.60553C2.5265 8.60696 2.30148 8.38426 2.30006 8.10812C2.29863 7.83199 2.52133 7.60697 2.79747 7.60555L13.1577 7.55201C13.4339 7.55059 13.6589 7.77328 13.6603 8.04942ZM2.30005 12.5809C2.30005 12.3048 2.52391 12.0809 2.80005 12.0809H4.75517C5.03132 12.0809 5.25517 12.3048 5.25517 12.5809C5.25517 12.857 5.03132 13.0809 4.75517 13.0809H2.80005C2.52391 13.0809 2.30005 12.857 2.30005 12.5809ZM6.91645 12.5809C6.91645 12.3048 7.14031 12.0809 7.41645 12.0809H13.0649C13.3411 12.0809 13.5649 12.3048 13.5649 12.5809C13.5649 12.857 13.3411 13.0809 13.0649 13.0809H7.41645C7.14031 13.0809 6.91645 12.857 6.91645 12.5809Z" />
</svg>
