<svg viewBox="0 0 16 16" xmlns="http://www.w3.org/2000/svg">
<path fill-rule="evenodd" clip-rule="evenodd" d="M7 2.5C6.17157 2.5 5.5 3.17157 5.5 4V4.33331H3C2.44772 4.33331 2 4.78103 2 5.33331V7.83331V8.83331V12.6666C2 13.2189 2.44772 13.6666 3 13.6666H13.6667C14.219 13.6666 14.6667 13.2189 14.6667 12.6666V8.83331V7.83331V5.33331C14.6667 4.78103 14.219 4.33331 13.6667 4.33331H11.4123V4C11.4123 3.17157 10.7407 2.5 9.91232 2.5H7ZM3 12.6666V8.83331H5.55515C5.8221 10.0187 7.02103 10.8333 8.33333 10.8333C9.64564 10.8333 10.8446 10.0187 11.1115 8.83331H13.6667L13.6667 12.6666L3 12.6666ZM10.0586 8.83331H6.60808C6.85188 9.38748 7.48977 9.83331 8.33333 9.83331C9.1769 9.83331 9.81479 9.38748 10.0586 8.83331ZM3 7.83331H13.6667V5.33331L3 5.33331V7.83331ZM10.4123 4.33331V4C10.4123 3.72386 10.1885 3.5 9.91232 3.5H7C6.72386 3.5 6.5 3.72386 6.5 4V4.33331H10.4123Z" />
</svg>
