<svg viewBox="0 0 16 16" xmlns="http://www.w3.org/2000/svg">
<path fill-rule="evenodd" clip-rule="evenodd" d="M10.3131 2.9797C10.5083 2.78444 10.8249 2.78444 11.0202 2.9797L13.6868 5.64637C13.8821 5.84163 13.8821 6.15821 13.6868 6.35347L11.0202 9.02014C10.8249 9.2154 10.5083 9.2154 10.3131 9.02014C10.1178 8.82488 10.1178 8.50829 10.3131 8.31303L12.1262 6.49992H5.33329C5.05715 6.49992 4.83329 6.27606 4.83329 5.99992C4.83329 5.72378 5.05715 5.49992 5.33329 5.49992H12.1262L10.3131 3.68681C10.1178 3.49154 10.1178 3.17496 10.3131 2.9797ZM5.68685 8.31303C5.88211 8.50829 5.88211 8.82488 5.68685 9.02014L3.87373 10.8333H10.6666C10.9428 10.8333 11.1666 11.0571 11.1666 11.3333C11.1666 11.6094 10.9428 11.8333 10.6666 11.8333H3.87373L5.68685 13.6464C5.88211 13.8416 5.88211 14.1582 5.68685 14.3535C5.49158 14.5487 5.175 14.5487 4.97974 14.3535L2.31307 11.6868C2.11781 11.4915 2.11781 11.175 2.31307 10.9797L4.97974 8.31303C5.175 8.11777 5.49158 8.11777 5.68685 8.31303Z" />
</svg>
