<svg viewBox="0 0 16 16" xmlns="http://www.w3.org/2000/svg">
<path fill-rule="evenodd" clip-rule="evenodd" d="M8.38611 9.37851L9.09725 9.53104C10.0458 9.7345 11.0549 9.31726 11.5637 8.43772L12.2221 7.29965C12.6749 6.51676 12.6108 5.57698 12.1343 4.87494L11.1152 6.63655C10.5659 7.58624 9.35086 7.91015 8.40137 7.36302C7.45075 6.81525 7.12356 5.60032 7.67359 4.6495L8.69021 2.89206C7.84229 2.83215 6.99436 3.2472 6.54143 4.03017L5.88309 5.16824C5.45681 5.90514 5.48759 6.78128 5.89271 7.46972L6.18861 7.97257L3.99309 11.768C3.72503 12.2314 3.88332 12.8248 4.34966 13.0935L4.91981 13.422C5.38728 13.6914 5.98415 13.5308 6.25286 13.0662L8.38611 9.37851ZM11.8828 3.31253L10.2496 6.13582C9.97692 6.60723 9.37297 6.76874 8.90065 6.49658C8.42833 6.22441 8.2665 5.62163 8.53919 5.15022L10.1724 2.32693C10.1724 2.32692 10.1724 2.32694 10.1724 2.32693C9.87031 2.15287 9.55202 2.032 9.22854 1.96146C7.86607 1.66435 6.41039 2.2596 5.67583 3.52944L5.01748 4.66752C4.40342 5.72904 4.45037 6.99042 5.03086 7.97688L3.12748 11.2672C2.58209 12.21 2.90575 13.4156 3.85039 13.9599L4.42053 14.2885C5.36517 14.8328 6.57308 14.5098 7.11847 13.567L8.88753 10.5088C10.2469 10.8004 11.6967 10.2049 12.4293 8.93845L13.0877 7.80037C13.8222 6.53053 13.6109 4.9747 12.6719 3.9456C12.4513 3.70389 12.1906 3.49124 11.8926 3.31818C11.8893 3.31629 11.8861 3.31441 11.8828 3.31253Z" />
</svg>
