<svg viewBox="0 0 16 16" xmlns="http://www.w3.org/2000/svg">
<path fill-rule="evenodd" clip-rule="evenodd" d="M9.40005 4.3999C9.40005 4.95219 8.95234 5.3999 8.40005 5.3999C7.84777 5.3999 7.40005 4.95219 7.40005 4.3999C7.40005 3.84762 7.84777 3.3999 8.40005 3.3999C8.95234 3.3999 9.40005 3.84762 9.40005 4.3999ZM10.4001 4.3999C10.4001 5.50447 9.50462 6.3999 8.40005 6.3999C7.29548 6.3999 6.40005 5.50447 6.40005 4.3999C6.40005 3.29533 7.29548 2.3999 8.40005 2.3999C9.50462 2.3999 10.4001 3.29533 10.4001 4.3999ZM12.6001 4.79992C12.6001 5.13129 12.3314 5.39992 12.0001 5.39992C11.6687 5.39992 11.4001 5.13129 11.4001 4.79992C11.4001 4.46855 11.6687 4.19992 12.0001 4.19992C12.3314 4.19992 12.6001 4.46855 12.6001 4.79992ZM13.6001 4.79992C13.6001 5.68358 12.8837 6.39992 12.0001 6.39992C11.1164 6.39992 10.4001 5.68358 10.4001 4.79992C10.4001 3.91627 11.1164 3.19992 12.0001 3.19992C12.8837 3.19992 13.6001 3.91627 13.6001 4.79992ZM4.80005 5.39992C4.46868 5.39992 4.20005 5.13129 4.20005 4.79992C4.20005 4.46855 4.46868 4.19992 4.80005 4.19992C5.13142 4.19992 5.40005 4.46855 5.40005 4.79992C5.40005 5.13129 5.13142 5.39992 4.80005 5.39992ZM4.80005 6.39992C3.9164 6.39992 3.20005 5.68358 3.20005 4.79992C3.20005 3.91627 3.9164 3.19992 4.80005 3.19992C5.68371 3.19992 6.40005 3.91627 6.40005 4.79992C6.40005 5.68358 5.68371 6.39992 4.80005 6.39992ZM10.2 9.1999V12.5999H6.60001V9.1999C6.60001 8.20579 7.40589 7.3999 8.4 7.3999C9.39412 7.3999 10.2 8.20579 10.2 9.1999ZM5.6 9.1999C5.6 7.65351 6.85361 6.3999 8.4 6.3999C9.9464 6.3999 11.2 7.65351 11.2 9.1999V13.2399C11.2 13.4387 11.0388 13.5999 10.84 13.5999H5.96C5.76118 13.5999 5.6 13.4387 5.6 13.2399V9.1999ZM12.0001 13.5999H14.0401C14.2389 13.5999 14.4001 13.4387 14.4001 13.2399V9.1999C14.4001 7.65351 13.1465 6.3999 11.6001 6.3999C11.2966 6.3999 11.0043 6.4482 10.7306 6.53752C11.1559 6.70448 11.5102 7.01292 11.7354 7.40491C12.6663 7.4741 13.4001 8.25131 13.4001 9.1999V12.5999H12.0001V13.5999ZM2.76002 13.5999H4.80002V12.5999H3.40002V9.1999C3.40002 8.25131 4.13379 7.4741 5.0647 7.40491C5.28994 7.01292 5.64418 6.70448 6.06949 6.53752C5.79579 6.4482 5.50355 6.3999 5.20002 6.3999C3.65363 6.3999 2.40002 7.65351 2.40002 9.1999V13.2399C2.40002 13.4387 2.5612 13.5999 2.76002 13.5999Z" />
</svg>
