<svg viewBox="0 0 16 16" xmlns="http://www.w3.org/2000/svg">
<path fill-rule="evenodd" clip-rule="evenodd" d="M2 6.5C1.72386 6.5 1.5 6.27614 1.5 6V1.5H6C6.27614 1.5 6.5 1.72386 6.5 2C6.5 2.27614 6.27614 2.5 6 2.5H2.5V6C2.5 6.27614 2.27614 6.5 2 6.5Z" />
<path fill-rule="evenodd" clip-rule="evenodd" d="M6.5 14C6.5 14.2761 6.27614 14.5 6 14.5H1.5V10C1.5 9.72386 1.72386 9.5 2 9.5C2.27614 9.5 2.5 9.72386 2.5 10V13.5H6C6.27614 13.5 6.5 13.7239 6.5 14Z" />
<path fill-rule="evenodd" clip-rule="evenodd" d="M14 6.5C13.7239 6.5 13.5 6.27614 13.5 6V2.5H10C9.72386 2.5 9.5 2.27614 9.5 2C9.5 1.72386 9.72386 1.5 10 1.5H14.5V6C14.5 6.27614 14.2761 6.5 14 6.5Z" />
<path fill-rule="evenodd" clip-rule="evenodd" d="M14.5 14.5H10C9.72386 14.5 9.5 14.2761 9.5 14C9.5 13.7239 9.72386 13.5 10 13.5H13.5V10C13.5 9.72386 13.7239 9.5 14 9.5C14.2761 9.5 14.5 9.72386 14.5 10V14.5Z" />
</svg>
