<svg viewBox="0 0 16 16" xmlns="http://www.w3.org/2000/svg">
<path fill-rule="evenodd" clip-rule="evenodd" d="M5.50006 7H6.50006V6L6.50006 3L9.50006 3V6V7H10.5001L12.0001 7V9H10.5001H8.00006H5.50006H4.00006V7H5.50006ZM7.50006 10L7.50006 13.5C7.50006 13.7761 7.72392 14 8.00006 14C8.2762 14 8.50006 13.7761 8.50006 13.5V10H10.5001H12.0001C12.5523 10 13.0001 9.55228 13.0001 9V7C13.0001 6.44772 12.5523 6 12.0001 6H11.5001H10.5001V5V3H12.0001C12.2762 3 12.5001 2.77614 12.5001 2.5C12.5001 2.22386 12.2762 2 12.0001 2L10.5001 2L9.50006 2L6.50006 2L5.50006 2H4.00006C3.72392 2 3.50006 2.22386 3.50006 2.5C3.50006 2.77614 3.72392 3 4.00006 3H5.50006L5.50006 5V6H4.50006H4.00006C3.44778 6 3.00006 6.44772 3.00006 7L3.00006 9C3.00006 9.55228 3.44778 10 4.00006 10H5.50006H7.50006Z" />
</svg>
