<svg viewBox="0 0 16 16" xmlns="http://www.w3.org/2000/svg">
<path fill-rule="evenodd" clip-rule="evenodd" d="M14.125 8C14.125 11.3827 11.3827 14.125 8 14.125C4.61726 14.125 1.875 11.3827 1.875 8C1.875 4.61726 4.61726 1.875 8 1.875C11.3827 1.875 14.125 4.61726 14.125 8ZM15 8C15 11.866 11.866 15 8 15C4.13401 15 1 11.866 1 8C1 4.13401 4.13401 1 8 1C11.866 1 15 4.13401 15 8ZM11.0936 7.19362L8.30936 4.40939C8.1385 4.23854 7.8615 4.23854 7.69064 4.40939L4.90641 7.19362C4.73555 7.36448 4.73555 7.64149 4.90641 7.81234C5.07726 7.9832 5.35427 7.9832 5.52513 7.81234L7.5625 5.77497V12.375C7.5625 12.6166 7.75838 12.8125 8 12.8125C8.24162 12.8125 8.4375 12.6166 8.4375 12.375V5.77497L10.4749 7.81234C10.6457 7.9832 10.9227 7.9832 11.0936 7.81234C11.2644 7.64149 11.2644 7.36448 11.0936 7.19362Z" />
</svg>
