<svg viewBox="0 0 16 16" xmlns="http://www.w3.org/2000/svg">
<path fill-rule="evenodd" clip-rule="evenodd" d="M3.66977 7.02694C3.7417 6.99484 3.81342 6.96572 3.88437 6.93953L5.82204 6.22432L5.18131 8.18788C5.09398 8.45552 5.03423 8.72747 5.00224 8.99934L6.66726 10.6644C6.86241 10.6328 7.09678 10.5828 7.3367 10.5317C7.44516 10.5086 7.55474 10.4853 7.66235 10.4633L9.20129 10.1486L8.83511 11.6761C8.80401 11.8059 8.762 11.9328 8.71141 12.0555C9.10543 12.0346 9.52493 11.8703 9.85771 11.5375C10.3423 11.0529 10.4759 10.399 10.2838 9.84087L10.0805 9.25011L10.5223 8.80833L10.6578 8.67281C12.1629 7.16769 12.8861 5.04923 12.6467 3.05163C10.6768 2.79396 8.5751 3.51216 7.03447 5.04889L6.89939 5.18397L6.45762 5.62574L5.86687 5.42244C5.34604 5.2432 4.6819 5.39964 4.20159 5.87995C3.85926 6.22228 3.68953 6.6366 3.66977 7.02694ZM2.72808 7.65412C2.53036 6.80372 2.81526 5.85207 3.49448 5.17285C4.20699 4.46034 5.26168 4.15661 6.19228 4.47686L6.32779 4.34135C8.22893 2.44472 10.9132 1.61756 13.3836 2.167C13.4805 2.19573 13.5433 2.25857 13.54 2.32338C14.0577 4.8097 13.2321 7.51273 11.3649 9.37992L11.2294 9.51544C11.5497 10.446 11.3114 11.498 10.5648 12.2446C9.89173 12.9177 8.93154 13.1855 8.09161 13.0027L8.08897 13.0022C8.04786 12.9932 8.00704 12.9831 7.96656 12.9719C7.75109 12.9125 7.54517 12.8224 7.356 12.7007C7.33205 12.6767 7.28983 12.6345 7.272 12.5871C7.26646 12.5723 7.26328 12.5571 7.26373 12.5417C7.26641 12.4763 7.26975 12.4115 7.33793 12.3433C7.57489 12.1063 7.78389 11.7716 7.86267 11.443C7.78648 11.4586 7.70052 11.477 7.60859 11.4967L7.60767 11.4969L7.60761 11.4969L7.60744 11.497C7.3139 11.5599 6.9597 11.6359 6.66841 11.6738C6.6402 11.6774 6.61258 11.6807 6.58566 11.6836C6.52665 11.69 6.47102 11.6944 6.41995 11.6964C6.32236 11.6684 6.22685 11.6396 6.19545 11.6082L6.19617 11.6075L4.0374 9.44871C3.99844 9.3933 3.97814 9.32602 3.97915 9.25567L3.98122 9.2118C3.98485 9.14135 3.98998 9.0709 3.9966 9.0005C4.03214 8.62227 4.11061 8.24554 4.23064 7.87767C3.93414 7.98711 3.63286 8.16281 3.39589 8.39979C3.36183 8.43385 3.26293 8.46984 3.19673 8.47325C3.14912 8.47519 3.10221 8.44101 3.06837 8.41044C3.05667 8.39987 3.04653 8.38973 3.03847 8.38167C2.91048 8.1862 2.81652 7.97648 2.75506 7.75896C2.74536 7.72463 2.73647 7.69009 2.72838 7.65539L2.72808 7.65412ZM9.55114 5.58124C9.34567 5.78671 9.37316 6.07405 9.51882 6.21971C9.66442 6.36531 9.95173 6.39284 10.1572 6.18734C10.3628 5.98176 10.3352 5.69443 10.1897 5.54886C10.044 5.40324 9.75668 5.3757 9.55114 5.58124ZM8.84403 4.87414C8.2692 5.44897 8.2547 6.3698 8.81171 6.92681C9.3687 7.4838 10.2895 7.46928 10.8643 6.89444C11.4392 6.31957 11.4538 5.39874 10.8968 4.84175C10.3398 4.28474 9.4189 4.29927 8.84403 4.87414ZM4.72037 11.6744C4.91563 11.4791 4.91563 11.1626 4.72037 10.9673C4.52511 10.772 4.20853 10.772 4.01327 10.9673L2.63531 12.3452C2.44005 12.5405 2.44005 12.8571 2.63531 13.0524C2.83058 13.2476 3.14716 13.2476 3.34242 13.0524L4.72037 11.6744ZM3.71024 9.9571C3.9055 10.1524 3.9055 10.4689 3.71024 10.6642L2.85355 11.5209C2.65829 11.7162 2.34171 11.7162 2.14645 11.5209C1.95118 11.3256 1.95118 11.0091 2.14645 10.8138L3.00313 9.9571C3.1984 9.76184 3.51498 9.76184 3.71024 9.9571ZM5.73063 12.6846C5.92589 12.4893 5.92589 12.1728 5.73063 11.9775C5.53536 11.7822 5.21878 11.7822 5.02352 11.9775L4.16683 12.8342C3.97157 13.0294 3.97157 13.346 4.16683 13.5413C4.36209 13.7365 4.67868 13.7365 4.87394 13.5413L5.73063 12.6846Z" />
</svg>
