<svg viewBox="0 0 16 16" xmlns="http://www.w3.org/2000/svg">
<path fill-rule="evenodd" clip-rule="evenodd" d="M6.24659 1.55811C7.28675 1.36735 8.36054 1.57923 9.25028 2.15081C10.0085 2.63791 10.5847 3.35518 10.8988 4.19114C11.2789 4.14799 11.6643 4.16191 12.042 4.2332C12.5739 4.3336 13.0785 4.54551 13.5227 4.85499C13.9668 5.16446 14.3403 5.56448 14.6186 6.02872C14.897 6.49296 15.0739 7.01088 15.1377 7.54841C15.2014 8.08594 15.1506 8.63088 14.9886 9.14736C14.8266 9.66384 14.5571 10.1402 14.1977 10.545C13.8383 10.9497 13.3973 11.2738 12.9037 11.4959C12.41 11.718 11.8749 11.833 11.3336 11.8334C11.0575 11.8335 10.8335 11.6098 10.8333 11.3337C10.8331 11.0576 11.0568 10.8335 11.333 10.8334C11.733 10.8331 12.1285 10.7481 12.4934 10.5839C12.8583 10.4198 13.1842 10.1803 13.4499 9.88106C13.7155 9.58186 13.9147 9.2298 14.0345 8.84805C14.1542 8.46631 14.1918 8.06353 14.1446 7.66622C14.0975 7.26892 13.9667 6.8861 13.761 6.54297C13.5553 6.19984 13.2792 5.90417 12.9509 5.67543C12.6227 5.44669 12.2497 5.29006 11.8566 5.21585C11.4658 5.14209 11.0639 5.15142 10.677 5.2432L9.79794 5.48247C9.53149 5.55499 9.2567 5.39778 9.18418 5.13133C9.11166 4.86488 9.26887 4.59009 9.53532 4.51757L9.91149 4.41518C9.66411 3.83455 9.24707 3.33732 8.70978 2.99216C8.03358 2.55776 7.2175 2.39673 6.42698 2.54171C5.63645 2.68669 4.93063 3.12684 4.45259 3.77293C3.97772 4.41474 3.76292 5.21208 3.85082 6.00522L3.85185 6.01072C3.85447 6.02442 3.85859 6.0453 3.86422 6.07178C3.87554 6.12504 3.89261 6.19936 3.91533 6.28244C3.96412 6.46089 4.02652 6.6326 4.09042 6.73467C4.23694 6.96874 4.16598 7.27726 3.93192 7.42378C3.69785 7.57031 3.38933 7.49934 3.2428 7.26528C3.14052 7.10189 3.06412 6.9097 3.0089 6.74082C2.69449 6.9039 2.42245 7.1428 2.21923 7.4391C1.9204 7.8748 1.79095 8.40463 1.85522 8.92904C1.91948 9.45345 2.17302 9.93635 2.56822 10.287C2.96328 10.6375 3.47272 10.8318 4.00086 10.8333H4.66672C4.94287 10.8333 5.16672 11.0572 5.16672 11.3333C5.16672 11.6095 4.94287 11.8333 4.66672 11.8333H4.00006L3.99873 11.8333C3.22671 11.8313 2.48199 11.5474 1.90452 11.035C1.32704 10.5226 0.956544 9.81697 0.862641 9.05067C0.768737 8.28438 0.957888 7.51016 1.39456 6.87349C1.75107 6.35368 2.25254 5.95477 2.83208 5.72331C2.81743 4.81211 3.10215 3.91684 3.64871 3.17814C4.27771 2.32802 5.20642 1.74888 6.24659 1.55811ZM8.13588 7.51867C8.16141 7.52586 8.18654 7.53515 8.21101 7.54655L8.2167 7.54924C8.25333 7.56682 8.28812 7.58902 8.32015 7.61576L9.97907 8.9429C10.1947 9.1154 10.2297 9.43005 10.0572 9.64568C9.88465 9.86131 9.57001 9.89627 9.35437 9.72377L8.50006 9.04031V14C8.50006 14.2761 8.2762 14.5 8.00006 14.5C7.72391 14.5 7.50006 14.2761 7.50006 14V9.04031L6.64574 9.72377C6.43011 9.89627 6.11546 9.86131 5.94296 9.64568C5.77045 9.43005 5.80541 9.1154 6.02104 8.9429L7.67997 7.61576C7.712 7.58902 7.74679 7.56681 7.78341 7.54924C7.79467 7.54383 7.80615 7.53882 7.81785 7.53424C7.8388 7.52604 7.86013 7.51933 7.88171 7.51408C7.92066 7.50462 7.96041 7.49996 8.00006 7.49998C8.04565 7.49995 8.09138 7.50613 8.13588 7.51867ZM7.50006 8.00398V8C7.50006 7.95292 7.50656 7.90736 7.51872 7.86417L7.50006 8.00398Z" />
</svg>
