<svg viewBox="0 0 16 16" xmlns="http://www.w3.org/2000/svg">
<path fill-rule="evenodd" clip-rule="evenodd" d="M10.3974 5.75308C10.3974 7.27911 9.16916 8.50616 7.66632 8.50616C6.16347 8.50616 4.93518 7.27911 4.93518 5.75308C4.93518 4.22706 6.16347 3 7.66632 3C9.16916 3 10.3974 4.22706 10.3974 5.75308ZM9.04654 9.24101C10.424 8.68903 11.3974 7.33541 11.3974 5.75308C11.3974 3.68031 9.72696 2 7.66632 2C5.60567 2 3.93518 3.68031 3.93518 5.75308C3.93518 7.3355 4.90879 8.68919 6.28633 9.2411C5.17915 9.47047 4.15109 9.97392 3.32646 10.7112C2.16496 11.7497 1.5 13.1711 1.5 14.6666C1.5 14.9428 1.72386 15.1666 2 15.1666C2.27614 15.1666 2.5 14.9428 2.5 14.6666C2.5 13.4747 3.02908 12.3186 3.993 11.4567C4.95875 10.5932 6.27944 10.1 7.66667 10.1C9.05389 10.1 10.3746 10.5932 11.3403 11.4567C12.3043 12.3186 12.8333 13.4747 12.8333 14.6666C12.8333 14.9428 13.0572 15.1666 13.3333 15.1666C13.6095 15.1666 13.8333 14.9428 13.8333 14.6666C13.8333 13.1711 13.1684 11.7497 12.0069 10.7112C11.1821 9.97382 10.1539 9.47032 9.04654 9.24101Z" />
</svg>
