<svg viewBox="0 0 16 16" xmlns="http://www.w3.org/2000/svg">
<path fill-rule="evenodd" clip-rule="evenodd" d="M3.6 4.1335H12.4C12.8418 4.1335 13.2 4.49167 13.2 4.9335V11.0668C13.2 11.5087 12.8418 11.8668 12.4 11.8668H3.6C3.15817 11.8668 2.8 11.5087 2.8 11.0668V4.9335C2.8 4.49167 3.15817 4.1335 3.6 4.1335ZM2 4.9335C2 4.04984 2.71634 3.3335 3.6 3.3335H12.4C13.2837 3.3335 14 4.04984 14 4.9335V11.0668C14 11.9505 13.2837 12.6668 12.4 12.6668H3.6C2.71634 12.6668 2 11.9505 2 11.0668V4.9335ZM9.37998 8.33349L7.46666 9.85239L7.46666 6.81458L9.37998 8.33349ZM9.87739 7.70692C10.2808 8.02721 10.2808 8.63977 9.87739 8.96005L7.96406 10.479C7.43977 10.8952 6.66666 10.5218 6.66666 9.85239V6.81458C6.66666 6.14517 7.43978 5.77181 7.96406 6.18801L9.87739 7.70692Z" />
</svg>
