<svg viewBox="0 0 16 16" xmlns="http://www.w3.org/2000/svg">
<path d="M0 4.23119L2.26678 12.7688H3.23273L4.80402 5.89908L6.34955 12.7688H7.32838L9.59516 4.23119H8.46177L6.82608 11.1505L5.28056 4.23119H4.3146L2.76907 11.1505L1.13339 4.23119H0Z" />
<path d="M12.8135 4C12.0665 4 11.4483 4.21468 10.9846 4.64404C10.4823 5.07339 10.2376 5.63486 10.2376 6.36147C10.2376 7.08807 10.4823 7.63303 10.9975 8.02936C11.3066 8.29358 11.8604 8.54128 12.6461 8.78899C13.3673 9.02018 13.8438 9.20183 14.0628 9.33394C14.4749 9.59816 14.6939 9.96147 14.6939 10.4404C14.6939 11.3982 14.0886 11.8936 12.9037 11.8936C12.337 11.8936 11.9119 11.7615 11.6286 11.4972C11.3452 11.2 11.1521 10.7211 11.0748 10.044H10.0702C10.2247 12.0092 11.1778 13 12.9294 13C14.8098 13 15.75 12.1083 15.75 10.3578C15.75 9.61468 15.4795 9.0367 14.9515 8.60734C14.6037 8.3266 14.037 8.06238 13.2385 7.81468C12.5688 7.58349 12.1051 7.40183 11.8604 7.25321C11.474 7.0055 11.2937 6.69174 11.2937 6.32844C11.2937 5.94862 11.4354 5.65138 11.7187 5.4367C11.9763 5.2055 12.337 5.10642 12.8006 5.10642C13.3287 5.10642 13.7408 5.23853 14.0242 5.50275C14.2817 5.73394 14.4492 6.13027 14.5393 6.65871H15.5439C15.3636 4.87523 14.4621 4 12.8135 4Z" />
</svg>
