<svg width="16" height="16" viewBox="0 0 16 16" fill="none" xmlns="http://www.w3.org/2000/svg">
<g clip-path="url(#clip0_17309_185095)">
<path d="M11.15 9.04441C11.0719 9.04447 10.9956 9.02072 10.9313 8.97632C10.867 8.93192 10.8178 8.86899 10.7902 8.79591C10.4052 7.78231 9.82699 7.17751 9.07169 6.99761C8.81019 6.93736 8.53962 6.92738 8.27439 6.96821V8.29821C8.27383 8.37279 8.25161 8.4456 8.21044 8.50779C8.16927 8.56999 8.11093 8.61888 8.04249 8.64854C7.97406 8.6782 7.89849 8.68734 7.82495 8.67485C7.75142 8.66237 7.6831 8.62879 7.62829 8.57821L4.84999 6.01761C4.81089 5.98168 4.77968 5.93802 4.75833 5.8894C4.73698 5.84078 4.72595 5.78826 4.72595 5.73516C4.72595 5.68206 4.73698 5.62953 4.75833 5.58091C4.77968 5.5323 4.81089 5.48864 4.84999 5.45271L7.62479 2.88581C7.67949 2.83491 7.74784 2.80105 7.82148 2.78839C7.89512 2.77573 7.97085 2.78481 8.03941 2.81453C8.10796 2.84424 8.16637 2.89329 8.20749 2.95568C8.2486 3.01807 8.27063 3.09109 8.27089 3.16581V4.44121C8.91139 4.50281 10.1896 4.74571 10.9806 5.70611C11.6022 6.46211 11.7849 7.48201 11.5231 8.73781C11.5062 8.82002 11.4628 8.89444 11.3996 8.94967C11.3364 9.00491 11.2568 9.03794 11.1731 9.04371L11.15 9.04441ZM5.67949 5.73481L7.49949 7.42111V6.66301C7.49964 6.58373 7.52416 6.50641 7.56974 6.44155C7.61532 6.37668 7.67975 6.32741 7.75429 6.30041C7.77529 6.29271 9.56939 5.67461 10.8434 7.30911C10.8007 6.90298 10.6423 6.51765 10.387 6.19891C9.56099 5.18951 7.90619 5.18881 7.89009 5.19091H7.88659C7.78442 5.19091 7.68642 5.15037 7.61411 5.07819C7.5418 5.00601 7.50108 4.90808 7.50089 4.80591V4.04921L5.67949 5.73481Z" fill="white"/>
<path d="M2.71847 9.88089L1.97437 9.68419L3.93996 2.27119C4.00954 2.00857 4.16393 1.77629 4.37913 1.61046C4.59433 1.44463 4.85828 1.35454 5.12996 1.35419H11.2403C11.5119 1.35477 11.7757 1.44495 11.9909 1.61075C12.206 1.77654 12.3605 2.00869 12.4303 2.27119L14.3903 9.68419L13.6455 9.88089L11.6855 2.46999C11.6592 2.3714 11.6011 2.28425 11.5202 2.22209C11.4394 2.15993 11.3402 2.12625 11.2382 2.12629H5.12996C5.02762 2.12591 4.92802 2.15942 4.84673 2.22159C4.76543 2.28377 4.707 2.37111 4.68056 2.46999L2.71847 9.88089Z" fill="white"/>
<path d="M13.1618 14.6416H3.20429C2.87759 14.641 2.56445 14.511 2.3335 14.2799C2.10256 14.0488 1.97266 13.7356 1.97229 13.4089V9.63379H5.92309C6.08139 9.63397 6.23316 9.69694 6.3451 9.80888C6.45704 9.92082 6.52001 10.0726 6.52019 10.2309V11.0009C6.52019 11.0112 6.52422 11.021 6.53142 11.0284C6.53862 11.0357 6.54842 11.0399 6.55869 11.0401H9.80739C9.81254 11.0401 9.81764 11.0391 9.82239 11.0371C9.82715 11.0351 9.83147 11.0322 9.83511 11.0286C9.83875 11.025 9.84164 11.0206 9.84361 11.0159C9.84558 11.0111 9.84659 11.006 9.84659 11.0009V10.2309C9.84678 10.0727 9.90965 9.92104 10.0214 9.80913C10.1332 9.69721 10.2848 9.63416 10.443 9.63379H14.3945V13.4089C14.3941 13.7357 14.2641 14.049 14.033 14.2801C13.8019 14.5112 13.4886 14.6412 13.1618 14.6416ZM2.74229 10.4038V13.4089C2.74247 13.5314 2.79119 13.6489 2.87777 13.7356C2.96435 13.8223 3.08175 13.8712 3.20429 13.8716H13.1618C13.2844 13.8714 13.402 13.8226 13.4888 13.7359C13.5755 13.6491 13.6243 13.5315 13.6245 13.4089V10.4038H10.6145V11.0016C10.6143 11.2161 10.529 11.4219 10.3773 11.5736C10.2256 11.7253 10.0198 11.8106 9.80529 11.8108H6.55869C6.3442 11.8106 6.13856 11.7253 5.98695 11.5735C5.83535 11.4218 5.75019 11.2161 5.75019 11.0016V10.4038H2.74229Z" fill="white"/>
</g>
<defs>
<clipPath id="clip0_17309_185095">
<rect width="14" height="14" fill="white" transform="translate(1 1)"/>
</clipPath>
</defs>
</svg>
