<svg width="14" height="14" viewBox="0 0 14 14" fill="none" xmlns="http://www.w3.org/2000/svg">
<path d="M0.45017 6.14729C0.445765 6.29294 0.527156 6.42158 0.654888 6.48545C0.654892 6.48545 0.654895 6.48546 0.654898 6.48546L5.22413 8.77136L7.55516 13.3961L7.59988 13.3737L7.55523 13.3962L7.55517 13.3961C7.62438 13.5345 7.76731 13.5452 7.88558 13.5452H7.8856H7.88562H7.88565H7.88567H7.88569H7.88571H7.88574H7.88576H7.88578H7.8858H7.88583H7.88585H7.88587H7.88589H7.88592H7.88594H7.88596H7.88598H7.886H7.88603H7.88605H7.88607H7.88609H7.88612H7.88614H7.88616H7.88618H7.8862H7.88623H7.88625H7.88627H7.88629H7.88631H7.88633H7.88636H7.88638H7.8864H7.88642H7.88644H7.88647H7.88649H7.88651H7.88653H7.88655H7.88657H7.88659H7.88662H7.88664H7.88666H7.88668H7.8867H7.88672H7.88674H7.88677H7.88679H7.88681H7.88683H7.88685H7.88687H7.88689H7.88691H7.88693H7.88696H7.88698H7.887H7.88702H7.88704H7.88706H7.88708H7.8871H7.88712H7.88715H7.88717H7.88719H7.88721H7.88723H7.88725H7.88727H7.88729H7.88731H7.88733H7.88735H7.88737H7.88739H7.88741H7.88744H7.88746H7.88748H7.8875H7.88752H7.88754H7.88756H7.88758H7.8876H7.88762H7.88764H7.88766H7.88768H7.8877H7.88772H7.88774H7.88776H7.88778H7.8878H7.88782H7.88784H7.88786H7.88788H7.8879H7.88792H7.88794H7.88796H7.88799H7.88801H7.88803H7.88805H7.88807H7.88809H7.88811H7.88813H7.88815H7.88817H7.88819H7.88821H7.88823H7.88825H7.88827H7.88829H7.8883H7.88832H7.88834H7.88836H7.88838H7.8884H7.88842H7.88844H7.88846H7.88848H7.8885H7.88852H7.88854H7.88856H7.88858H7.8886H7.88862H7.88864H7.88866H7.88868H7.8887H7.88872H7.88874H7.88876H7.88878H7.8888H7.88882H7.88884H7.88886H7.88888H7.8889H7.88891H7.88893H7.88895H7.88897H7.88899H7.88901H7.88903H7.88905H7.88907H7.88909H7.88911H7.88913H7.88915H7.88917H7.88919H7.8892H7.88922H7.88924H7.88926H7.88928H7.8893H7.88932H7.88934H7.88936H7.88938H7.8894H7.88942H7.88944H7.88946H7.88947H7.88949H7.88951H7.88953H7.88955H7.88957H7.88959H7.88961H7.88963H7.88965H7.88967H7.88969H7.8897H7.88972H7.88974H7.88976H7.88978H7.8898H7.88982H7.88984H7.88986H7.88988H7.8899H7.88991H7.88993H7.88995H7.88997H7.88999H7.89001H7.89003H7.89005H7.89007H7.89009H7.8901H7.89012H7.89014H7.89016H7.89018H7.8902H7.89022H7.89024H7.89026H7.89028H7.89029H7.89031H7.89033H7.89035H7.89037H7.89039H7.89041H7.89043H7.89045H7.89047H7.89048H7.8905H7.89052H7.89054H7.89056H7.89058H7.8906H7.89062H7.89064H7.89065H7.89067H7.89069H7.89071H7.89073H7.89075H7.89077H7.89079H7.89081H7.89082H7.89084H7.89086H7.89088H7.8909H7.89092H7.89094H7.89096H7.89098H7.891H7.89101H7.89103H7.89105H7.89107H7.89109H7.89111H7.89113H7.89115H7.89117H7.89118H7.8912H7.89122H7.89124H7.89126H7.89128H7.8913H7.89132H7.89134H7.89136H7.89137H7.89139H7.89141H7.89143H7.89145H7.89147H7.89149H7.89151H7.89153H7.89155H7.89156H7.89158H7.8916H7.89162H7.89164H7.89166H7.89168H7.8917H7.89172H7.89174H7.89176H7.89177H7.89179H7.89181H7.89183H7.89185H7.89187H7.89189H7.89191H7.89193H7.89195H7.89197H7.89199H7.892H7.89202H7.89204H7.89206H7.89208H7.8921H7.89212H7.89214H7.89216H7.89218H7.8922H7.89222H7.89224H7.89225H7.89227H7.89229H7.89231H7.89233H7.89235H7.89237H7.89239H7.89241H7.89243H7.89245H7.89247H7.89249H7.89251H7.89253H7.89255H7.89256H7.89258H7.8926H7.89262H7.89264H7.89266H7.89268H7.8927H7.89272H7.89274H7.89276H7.89278H7.8928H7.89282H7.89284H7.89286H7.89288H7.8929H7.89292H7.89294H7.89296H7.89298H7.893H7.89302H7.89303H7.89305H7.89307H7.89309H7.89311H7.89313H7.89315H7.89317H7.89319H7.89321H7.89323H7.89325H7.89327H7.89329H7.89331H7.89333H7.89335H7.89337H7.89339H7.89341H7.89343H7.89345H7.89347H7.89349H7.89351H7.89353H7.89355H7.89357H7.89359H7.89361H7.89363H7.89365H7.89367H7.8937H7.89372H7.89374H7.89376H7.89378H7.8938H7.89382H7.89384H7.89386H7.89388H7.8939H7.89392H7.89394H7.89396H7.89398H7.894H7.89402H7.89404H7.89406H7.89408H7.8941H7.89412H7.89415H7.89417H7.89419H7.89421H7.89423H7.89425H7.89427H7.89429H7.89431H7.89433H7.89435H7.89437H7.8944H7.89442H7.89444H7.89446H7.89448H7.8945H7.89452H7.89454H7.89456H7.89458H7.89461H7.89463H7.89465H7.89467H7.89469H7.89471H7.89473H7.89475H7.89478H7.8948H7.89482H7.89484H7.89486H7.89488H7.8949H7.89493H7.89495H7.89497H7.89499H7.89501H7.89503H7.89506H7.89508H7.8951H7.89512H7.89514H7.89516H7.89519H7.89521H7.89523H7.89525H7.89527H7.8953H7.89532H7.89534H7.89536H7.89538H7.89541H7.89543H7.89545H7.89547H7.89549H7.89552H7.89554H7.89556H7.89558H7.8956H7.89563H7.89565H7.89567H7.89569H7.89572H7.89574H7.89576H7.89578H7.89581H7.89583H7.89585H7.89587H7.8959H7.89592C8.02276 13.5452 8.16424 13.5206 8.22631 13.3752L8.18032 13.3556L8.22631 13.3752L13.5201 0.973977L13.5201 0.973925C13.5798 0.833652 13.5484 0.672293 13.4409 0.564781C13.3338 0.457647 13.1725 0.424369 13.0329 0.484397L13.0328 0.484421L0.674431 5.81819C0.674381 5.81821 0.674331 5.81823 0.674281 5.81825C0.541815 5.87488 0.45327 6.00187 0.45017 6.14729ZM0.45017 6.14729C0.450172 6.1472 0.450175 6.14712 0.450178 6.14703L0.500154 6.14858L0.450164 6.14755C0.450166 6.14746 0.450168 6.14737 0.45017 6.14729ZM5.56056 8.13283L1.70031 6.19082L11.9659 1.75873L5.56056 8.13283ZM5.86645 8.42469L12.246 2.07649L7.85731 12.4014L5.86645 8.42469Z" fill="white" stroke="white" stroke-width="0.1"/>
</svg>
