<svg width="12" height="11" viewBox="0 0 12 11" fill="none" xmlns="http://www.w3.org/2000/svg">
<path d="M5.53988 10.4444V9.33332L8.93422 6.19258L10.0987 7.30369L6.79554 10.4444H5.53988ZM1.32694 6.48147C0.96226 6.48147 0.666626 6.21616 0.666626 5.88888C0.666626 5.5616 0.96226 5.29628 1.32694 5.29628H4.54289C4.90757 5.29628 5.20321 5.5616 5.20321 5.88888C5.20321 6.21616 4.90757 6.48147 4.54289 6.48147H1.32694ZM10.5741 6.74073L9.38787 5.62962L9.85773 5.19999C9.97655 5.09134 10.1278 5.03702 10.3114 5.03702C10.495 5.03702 10.6462 5.09134 10.765 5.19999L11.044 5.48147C11.1628 5.59011 11.2222 5.72838 11.2222 5.89628C11.2222 6.06418 11.1628 6.20246 11.044 6.3111L10.5741 6.74073ZM1.32694 4.1111C0.96226 4.1111 0.666626 3.84578 0.666626 3.51851C0.666626 3.19123 0.96226 2.92591 1.32694 2.92591H6.24634C6.61102 2.92591 6.90665 3.19123 6.90665 3.51851C6.90665 3.84578 6.61102 4.1111 6.24634 4.1111H1.32694ZM1.32694 1.74073C0.96226 1.74073 0.666626 1.47541 0.666626 1.14813C0.666626 0.820855 0.96226 0.555542 1.32694 0.555542H6.24634C6.61102 0.555542 6.90665 0.820855 6.90665 1.14813C6.90665 1.47541 6.61102 1.74073 6.24634 1.74073H1.32694Z" fill="white"/>
</svg>
