<svg width="15" height="15" viewBox="0 0 15 15" fill="none" xmlns="http://www.w3.org/2000/svg">
<path d="M7.50015 2.54188C10.2155 2.54188 12.4251 4.7565 12.4251 7.49877H13.3264C13.3264 4.26341 10.7179 1.64063 7.50015 1.64062C5.40358 1.64062 3.56565 2.75411 2.53941 4.42501L2.53941 2.47736H1.64062V5.35838C1.64062 5.63452 1.86448 5.85838 2.14062 5.85838L5.00321 5.85838V4.95467L3.2723 4.95467C4.1335 3.50822 5.70649 2.54188 7.50015 2.54188Z" fill="white"/>
<path d="M1.67394 7.49872H2.57519C2.57519 10.241 4.78481 12.4556 7.50014 12.4557C9.29381 12.4557 10.8668 11.4893 11.728 10.0429H9.99679V9.13915H12.8594C13.1355 9.13915 13.3594 9.36301 13.3594 9.63915V12.5202H12.4606V10.573C11.4343 12.2436 9.59652 13.3569 7.50014 13.3569C4.28242 13.3569 1.67394 10.7341 1.67394 7.49872Z" fill="white"/>
<path d="M9.29122 10H8.55162L8.12018 6.959C8.09964 6.82232 8.06061 6.48064 8.00308 5.93394L7.87365 6.959L7.43606 10H6.69646L6 5H6.65948L7.10324 8.82688L7.13405 8.48519L7.20185 7.9385L7.62096 5H8.37288L8.79199 7.9385C8.81664 8.09795 8.84951 8.39408 8.8906 8.82688L8.96456 8.21185L9.35285 5H10L9.29122 10Z" fill="white"/>
</svg>
