<svg width="16" height="16" viewBox="0 0 16 16" fill="none" xmlns="http://www.w3.org/2000/svg">
<path d="M13 10.4V7.83335C13 7.56669 12.7667 7.33335 12.5 7.33335H8.5V5.33335H12.3333C12.7 5.33335 13 5.03335 13 4.66669V2.33335C13 1.96669 12.7 1.66669 12.3333 1.66669H3.66667C3.3 1.66669 3 1.96669 3 2.33335V4.66669C3 5.03335 3.3 5.33335 3.66667 5.33335H7.5V7.33335H3.5C3.23333 7.33335 3 7.56669 3 7.83335V10.4C2.13333 10.6334 1.5 11.4 1.5 12.3334C1.5 13.4334 2.4 14.3334 3.5 14.3334C4.6 14.3334 5.5 13.4334 5.5 12.3334C5.5 11.4 4.86667 10.6334 4 10.4V8.33335H7.5V10.4C6.63333 10.6334 6 11.4 6 12.3334C6 13.4334 6.9 14.3334 8 14.3334C9.1 14.3334 10 13.4334 10 12.3334C10 11.4 9.36667 10.6334 8.5 10.4V8.33335H12V10.4C11.1333 10.6334 10.5 11.4 10.5 12.3334C10.5 13.4334 11.4 14.3334 12.5 14.3334C13.6 14.3334 14.5 13.4334 14.5 12.3334C14.5 11.4 13.8667 10.6334 13 10.4ZM4 2.66669H12V4.33335H4V2.66669ZM4.5 12.3334C4.5 12.9 4.06667 13.3334 3.5 13.3334C2.93333 13.3334 2.5 12.9 2.5 12.3334C2.5 11.7667 2.93333 11.3334 3.5 11.3334C4.06667 11.3334 4.5 11.7667 4.5 12.3334ZM9 12.3334C9 12.9 8.56667 13.3334 8 13.3334C7.43333 13.3334 7 12.9 7 12.3334C7 11.7667 7.43333 11.3334 8 11.3334C8.56667 11.3334 9 11.7667 9 12.3334ZM12.5 13.3334C11.9333 13.3334 11.5 12.9 11.5 12.3334C11.5 11.7667 11.9333 11.3334 12.5 11.3334C13.0667 11.3334 13.5 11.7667 13.5 12.3334C13.5 12.9 13.0667 13.3334 12.5 13.3334Z" fill="white"/>
</svg>
