<svg width="16" height="16" viewBox="0 0 16 16" fill="none" xmlns="http://www.w3.org/2000/svg">
<path fill-rule="evenodd" clip-rule="evenodd" d="M1 8.5C1 8.22386 1.22386 8 1.5 8H5.5C5.77614 8 6 8.22386 6 8.5C6 8.77614 5.77614 9 5.5 9H1.5C1.22386 9 1 8.77614 1 8.5Z" fill="white"/>
<path fill-rule="evenodd" clip-rule="evenodd" d="M1 13.5C1 13.2239 1.22386 13 1.5 13H5.5C5.77614 13 6 13.2239 6 13.5C6 13.7761 5.77614 14 5.5 14H1.5C1.22386 14 1 13.7761 1 13.5Z" fill="white"/>
<path fill-rule="evenodd" clip-rule="evenodd" d="M1 3.5C1 3.22386 1.22386 3 1.5 3H5.5C5.77614 3 6 3.22386 6 3.5C6 3.77614 5.77614 4 5.5 4H1.5C1.22386 4 1 3.77614 1 3.5Z" fill="white"/>
<path fill-rule="evenodd" clip-rule="evenodd" d="M14.8497 13.855C14.6523 14.0514 14.3357 14.0479 14.1426 13.8472L10.9485 10.5273L7.86309 13.8411C7.67325 14.0451 7.35678 14.0539 7.15625 13.8608C6.95572 13.6678 6.94706 13.346 7.13691 13.1421L10.2223 9.82825C10.6124 9.40935 11.2666 9.4039 11.6634 9.81625L14.8574 13.1361C15.0505 13.3368 15.047 13.6587 14.8497 13.855Z" fill="white"/>
<path fill-rule="evenodd" clip-rule="evenodd" d="M7.12733 3.16944C7.31142 2.96016 7.62751 2.94225 7.83334 3.12944L11.0519 6.05656L10.3852 6.81444L7.16667 3.88732C6.96085 3.70013 6.94323 3.37873 7.12733 3.16944ZM10.3852 6.81444C10.7695 7.1639 11.352 7.15907 11.7306 6.80328L14.8394 3.88174C15.0422 3.69116 15.0546 3.3695 14.8672 3.1633C14.6798 2.9571 14.3634 2.94444 14.1606 3.13502L11.0519 6.05656L10.3852 6.81444Z" fill="white"/>
</svg>
