<svg width="12" height="13" viewBox="0 0 12 13" fill="none" xmlns="http://www.w3.org/2000/svg">
<path fill-rule="evenodd" clip-rule="evenodd" d="M2.39278 8.90485C2.06074 9.23689 2.06074 9.77524 2.39278 10.1073C2.72482 10.4393 3.26316 10.4393 3.5952 10.1073L6.00001 7.70247L8.40481 10.1073C8.73685 10.4393 9.27519 10.4393 9.60723 10.1073C9.93927 9.77524 9.93927 9.2369 9.60723 8.90486L7.20243 6.50005L9.60731 4.09517C9.93935 3.76313 9.93935 3.22479 9.60731 2.89275C9.27527 2.56071 8.73693 2.56071 8.40489 2.89275L6.00001 5.29763L3.59513 2.89275C3.26309 2.56071 2.72475 2.56071 2.39271 2.89275C2.06067 3.22479 2.06067 3.76313 2.39271 4.09517L4.79758 6.50005L2.39278 8.90485Z" />
</svg>
