<svg width="13" height="11" viewBox="0 0 13 11" fill="none" xmlns="http://www.w3.org/2000/svg">
<path fill-rule="evenodd" clip-rule="evenodd" d="M2 0.5C2 0.223858 2.22386 0 2.5 0H12.5C12.7761 0 13 0.223858 13 0.5C13 0.776142 12.7761 1 12.5 1H2.5C2.22386 1 2 0.776142 2 0.5Z" fill="white"/>
<path fill-rule="evenodd" clip-rule="evenodd" d="M5 5.5C5 5.22386 5.22386 5 5.5 5H12.5C12.7761 5 13 5.22386 13 5.5C13 5.77614 12.7761 6 12.5 6H5.5C5.22386 6 5 5.77614 5 5.5Z" fill="white"/>
<path fill-rule="evenodd" clip-rule="evenodd" d="M2 10.5C2 10.2239 2.22386 10 2.5 10H12.5C12.7761 10 13 10.2239 13 10.5C13 10.7761 12.7761 11 12.5 11H2.5C2.22386 11 2 10.7761 2 10.5Z" fill="white"/>
<path d="M1.1784 5.076C0.865064 5.27184 0.865065 5.72817 1.1784 5.924L3.735 7.52188C4.06803 7.73002 4.5 7.49059 4.5 7.09788V3.90212C4.5 3.50941 4.06802 3.26998 3.735 3.47812L1.1784 5.076Z" fill="white"/>
</svg>
