<svg width="16" height="16" viewBox="0 0 16 16" fill="none" xmlns="http://www.w3.org/2000/svg">
<g clip-path="url(#clip0_17309_185084)">
<path d="M8.9028 9.35842C8.79272 9.35908 8.68674 9.31669 8.60748 9.24029L7.15623 7.75529L5.63748 9.24029C5.578 9.2986 5.50259 9.33799 5.42076 9.35351C5.33893 9.36903 5.25433 9.35998 5.17763 9.32749C5.10094 9.29501 5.03557 9.24055 4.98978 9.17098C4.94398 9.10141 4.91981 9.01983 4.9203 8.93654V1.85748C4.9203 1.74559 4.96474 1.63829 5.04386 1.55917C5.12298 1.48006 5.23028 1.43561 5.34217 1.43561H8.9028C9.01468 1.43561 9.12199 1.48006 9.20111 1.55917C9.28022 1.63829 9.32467 1.74559 9.32467 1.85748V8.93654C9.3254 9.02009 9.30079 9.1019 9.2541 9.17118C9.20741 9.24047 9.14082 9.29398 9.06311 9.32467C9.01294 9.34799 8.95811 9.35954 8.9028 9.35842ZM7.15623 6.73436C7.21141 6.73468 7.26597 6.74604 7.31669 6.76778C7.3674 6.78952 7.41326 6.82118 7.45155 6.86092L8.48092 7.92404V2.27936H5.76405V7.92404L6.81873 6.86092C6.86249 6.81668 6.91533 6.78245 6.97359 6.7606C7.03186 6.73875 7.09417 6.7298 7.15623 6.73436Z" fill="white"/>
<path d="M13.3746 14.6403H2.62526C2.28804 14.6381 1.96526 14.5032 1.7268 14.2647C1.48835 14.0263 1.35341 13.7035 1.3512 13.3663V2.61688C1.35342 2.28044 1.48864 1.95854 1.72733 1.72143C1.96602 1.48432 2.28881 1.35125 2.62526 1.35126H13.3746C13.7111 1.35125 14.0339 1.48432 14.2726 1.72143C14.5113 1.95854 14.6465 2.28044 14.6487 2.61688V13.3663C14.6465 13.7035 14.5115 14.0263 14.2731 14.2647C14.0346 14.5032 13.7119 14.6381 13.3746 14.6403ZM2.62526 2.19501C2.56915 2.19388 2.51338 2.20397 2.46122 2.22467C2.40906 2.24536 2.36155 2.27626 2.32148 2.31555C2.28141 2.35484 2.24957 2.40172 2.22785 2.45346C2.20612 2.50521 2.19494 2.56076 2.19495 2.61688V13.3663C2.19495 13.4804 2.24028 13.5898 2.32098 13.6705C2.40168 13.7512 2.51113 13.7966 2.62526 13.7966H13.3746C13.4888 13.7966 13.5982 13.7512 13.6789 13.6705C13.7596 13.5898 13.8049 13.4804 13.8049 13.3663V2.61688C13.805 2.56076 13.7938 2.50521 13.772 2.45346C13.7503 2.40172 13.7185 2.35484 13.6784 2.31555C13.6383 2.27626 13.5908 2.24536 13.5387 2.22467C13.4865 2.20397 13.4307 2.19388 13.3746 2.19501H2.62526Z" fill="white"/>
</g>
<defs>
<clipPath id="clip0_17309_185084">
<rect width="13.5" height="13.5" fill="white" transform="translate(1.25 1.25)"/>
</clipPath>
</defs>
</svg>
