<svg width="16" height="16" viewBox="0 0 16 16" fill="none" xmlns="http://www.w3.org/2000/svg">
<path d="M13.5938 1.96875H10.3719C10.1 1.96875 9.85781 2.15469 9.79375 2.42656C9.59844 3.25156 8.85938 3.84375 8 3.84375C7.14062 3.84375 6.40156 3.25156 6.20625 2.42656C6.14219 2.15469 5.90156 1.96875 5.62813 1.96875H2.40625C2.02656 1.96875 1.71875 2.27656 1.71875 2.65625V6.59375C1.71875 6.97344 2.02656 7.28125 2.40625 7.28125H3.57812V13.3438C3.57812 13.7234 3.88594 14.0312 4.26562 14.0312H11.7344C12.1141 14.0312 12.4219 13.7234 12.4219 13.3438V7.28125H13.5938C13.9734 7.28125 14.2812 6.97344 14.2812 6.59375V2.65625C14.2812 2.27656 13.9734 1.96875 13.5938 1.96875ZM13.1562 6.15625H11.2969V12.9062H4.70312V6.15625H2.84375V3.09375H5.23906C5.67969 4.20625 6.7625 4.96875 8 4.96875C9.2375 4.96875 10.3203 4.20625 10.7609 3.09375H13.1562V6.15625Z" fill="white"/>
</svg>
