<svg width="16" height="16" viewBox="0 0 16 16" fill="none" xmlns="http://www.w3.org/2000/svg">
<path fill-rule="evenodd" clip-rule="evenodd" d="M7.5 3.20001C7.22386 3.20001 7 2.97615 7 2.70001V2.10001C7 1.82386 7.22386 1.60001 7.5 1.60001C7.77614 1.60001 8 1.82386 8 2.10001V2.70001C8 2.97615 7.77614 3.20001 7.5 3.20001ZM8 11C9.65685 11 11 9.65685 11 7.99999C11 6.34314 9.65685 4.99999 8 4.99999C6.34315 4.99999 5 6.34314 5 7.99999C5 9.65685 6.34315 11 8 11ZM8 12C10.2091 12 12 10.2091 12 7.99999C12 5.79085 10.2091 3.99999 8 3.99999C5.79086 3.99999 4 5.79085 4 7.99999C4 10.2091 5.79086 12 8 12ZM11.0406 3.54523C10.8453 3.74049 10.8453 4.05707 11.0406 4.25234C11.2359 4.4476 11.5525 4.4476 11.7477 4.25234L12.172 3.82807C12.3672 3.63281 12.3672 3.31623 12.172 3.12097C11.9767 2.9257 11.6601 2.9257 11.4649 3.12097L11.0406 3.54523ZM12.8 7.49999C12.8 7.22385 13.0239 6.99999 13.3 6.99999H13.9C14.1762 6.99999 14.4 7.22385 14.4 7.49999C14.4 7.77614 14.1762 7.99999 13.9 7.99999H13.3C13.0239 7.99999 12.8 7.77614 12.8 7.49999ZM12.4548 11.0405C12.2596 10.8453 11.943 10.8453 11.7477 11.0405C11.5525 11.2358 11.5525 11.5524 11.7477 11.7477L12.172 12.1719C12.3672 12.3672 12.6838 12.3672 12.8791 12.1719C13.0744 11.9767 13.0744 11.6601 12.8791 11.4648L12.4548 11.0405ZM7.5 14.4C7.22386 14.4 7 14.1761 7 13.9V13.3C7 13.0238 7.22386 12.8 7.5 12.8C7.77614 12.8 8 13.0238 8 13.3V13.9C8 14.1761 7.77614 14.4 7.5 14.4ZM3.12093 11.4648C2.92567 11.6601 2.92567 11.9767 3.12093 12.1719C3.3162 12.3672 3.63278 12.3672 3.82804 12.1719L4.2523 11.7477C4.44757 11.5524 4.44757 11.2358 4.2523 11.0406C4.05704 10.8453 3.74046 10.8453 3.5452 11.0406L3.12093 11.4648ZM1.59998 7.49999C1.59998 7.22385 1.82383 6.99999 2.09998 6.99999H2.69998C2.97612 6.99999 3.19998 7.22385 3.19998 7.49999C3.19998 7.77614 2.97612 7.99999 2.69998 7.99999H2.09998C1.82383 7.99999 1.59998 7.77614 1.59998 7.49999ZM4.53515 3.12096C4.33989 2.9257 4.0233 2.9257 3.82804 3.12096C3.63278 3.31622 3.63278 3.6328 3.82804 3.82807L4.2523 4.25233C4.44757 4.44759 4.76415 4.44759 4.95941 4.25233C5.15467 4.05707 5.15467 3.74048 4.95941 3.54522L4.53515 3.12096Z" fill="#666666"/>
</svg>
