<svg width="12" height="13" viewBox="0 0 12 13" fill="none" xmlns="http://www.w3.org/2000/svg">
<path d="M1 6.79999C1 6.30294 1.40294 5.89999 1.9 5.89999H10.1C10.5971 5.89999 11 6.30294 11 6.79999C11 7.29705 10.5971 7.69999 10.1 7.69999H1.9C1.40294 7.69999 1 7.29705 1 6.79999Z" fill="#2B2B2B"/>
<path d="M6.30002 11.5C5.80297 11.5 5.40002 11.0971 5.40002 10.6L5.40002 2.4C5.40002 1.90294 5.80297 1.5 6.30002 1.5C6.79708 1.5 7.20002 1.90294 7.20002 2.4L7.20002 10.6C7.20002 11.0971 6.79708 11.5 6.30002 11.5Z" fill="#2B2B2B"/>
</svg>
