<?xml version="1.0" encoding="utf-8"?>
<!-- Generator: Adobe Illustrator 26.0.1, SVG Export Plug-In . SVG Version: 6.00 Build 0)  -->
<svg version="1.1" id="图层_1" xmlns="http://www.w3.org/2000/svg" xmlns:xlink="http://www.w3.org/1999/xlink" x="0px" y="0px"
	 viewBox="0 0 298.9 100.9" style="enable-background:new 0 0 298.9 100.9;" xml:space="preserve">
<style type="text/css">
	.st0{fill:#252525;}
	.st1{fill:#FFB806;}
	.st2{fill:#3A86FF;}
	.st3{fill:#1F72EA;}
</style>
<g>
	<path class="st0" d="M125.4,61.7h-11.3l-2.6,7.2h-5.2l10.1-27h6.8l10,27h-5.4L125.4,61.7z M123.9,57.4l-3.8-11h-0.5l-3.9,11H123.9z
		"/>
	<path class="st0" d="M155.3,39.3v29.6h-4.3l-0.5-3.1c-0.4,1-1.1,1.8-2.2,2.5c-1,0.6-2.5,1-4.4,1c-1.7,0-3.1-0.3-4.2-0.8
		c-1.1-0.5-2-1.2-2.6-2.2c-0.6-0.9-1.1-2.1-1.3-3.4c-0.2-1.3-0.4-2.8-0.4-4.5c0-1.5,0.1-2.9,0.4-4.2c0.2-1.3,0.7-2.5,1.3-3.5
		c0.6-1,1.5-1.8,2.6-2.4c1.1-0.6,2.5-0.9,4.2-0.9c1,0,1.8,0.1,2.5,0.2c0.7,0.2,1.3,0.4,1.8,0.7c0.5,0.3,0.9,0.7,1.3,1.1
		c0.3,0.4,0.6,0.9,0.8,1.4V39.3H155.3z M145.3,65.4c1.1,0,1.9-0.2,2.6-0.5c0.7-0.3,1.3-0.8,1.7-1.4c0.4-0.6,0.7-1.3,0.8-2.2
		c0.2-0.9,0.2-1.9,0.2-3c0-1.1-0.1-2-0.2-2.9c-0.2-0.9-0.4-1.6-0.9-2.3c-0.4-0.6-1-1.1-1.7-1.5c-0.7-0.4-1.6-0.5-2.6-0.5
		c-1.1,0-1.9,0.2-2.6,0.6s-1.1,0.9-1.4,1.6c-0.3,0.7-0.6,1.4-0.6,2.3c-0.1,0.9-0.1,1.8-0.1,2.7c0,1,0.1,2,0.2,2.8
		c0.1,0.9,0.3,1.6,0.7,2.3c0.3,0.6,0.8,1.1,1.4,1.5S144.2,65.4,145.3,65.4z"/>
	<path class="st0" d="M179.1,56.5c0,0.5,0,1-0.1,1.5c0,0.5-0.1,0.9-0.1,1.3l-13.8,0.9c0.1,1.8,0.5,3.1,1.5,3.9
		c0.9,0.8,2.5,1.2,4.5,1.2c0.6,0,1.3,0,1.9-0.1c0.7-0.1,1.3-0.2,1.9-0.3c0.6-0.1,1.2-0.3,1.7-0.5c0.5-0.2,1-0.3,1.3-0.5v4
		c-0.6,0.4-1.6,0.7-3,1c-1.4,0.3-3,0.4-4.7,0.4c-1.6,0-3-0.2-4.3-0.5c-1.2-0.3-2.3-0.9-3.2-1.8c-0.9-0.8-1.5-1.9-2-3.3
		c-0.5-1.4-0.7-3.2-0.7-5.3c0-2.1,0.2-3.9,0.7-5.3c0.5-1.4,1.1-2.5,2-3.3c0.9-0.8,1.9-1.4,3.2-1.7s2.7-0.5,4.3-0.5
		c1.8,0,3.3,0.2,4.4,0.7c1.1,0.5,2,1.1,2.7,2c0.6,0.8,1.1,1.8,1.3,2.9C179,54.1,179.1,55.2,179.1,56.5z M174.6,56
		c0-0.6,0-1.3-0.1-1.8c-0.1-0.6-0.3-1.1-0.6-1.5c-0.3-0.4-0.7-0.8-1.3-1c-0.6-0.3-1.3-0.4-2.2-0.4c-1,0-1.8,0.1-2.5,0.4
		c-0.6,0.2-1.2,0.6-1.6,1c-0.4,0.5-0.7,1-0.9,1.7c-0.2,0.7-0.3,1.5-0.3,2.4L174.6,56z"/>
	<path class="st0" d="M189.6,69c-1.2,0-2.3-0.1-3.5-0.2c-1.2-0.1-2.2-0.3-3-0.5v-4.1c0.9,0.3,1.9,0.5,3.1,0.7
		c1.2,0.2,2.2,0.3,3.2,0.3c1.3,0,2.3-0.2,3-0.5c0.6-0.3,1-1,1-2c0-0.5-0.1-0.9-0.2-1.2c-0.1-0.3-0.3-0.6-0.6-0.8
		c-0.3-0.2-0.7-0.4-1.3-0.6c-0.6-0.2-1.3-0.4-2.2-0.6c-1.1-0.3-2.1-0.6-2.8-0.9c-0.7-0.3-1.3-0.7-1.7-1.2c-0.4-0.5-0.7-1-0.9-1.6
		c-0.2-0.6-0.3-1.4-0.3-2.3c0-1.9,0.6-3.4,1.9-4.5c1.3-1.1,3.3-1.6,6.2-1.6c1.1,0,2.2,0.1,3.2,0.2c1,0.1,1.8,0.3,2.4,0.5l-0.2,3.8
		c-0.6-0.2-1.3-0.4-2.3-0.5c-1-0.2-1.9-0.2-2.9-0.2c-1.3,0-2.3,0.2-2.9,0.5c-0.6,0.3-0.8,0.9-0.8,1.8c0,0.4,0.1,0.8,0.2,1
		c0.1,0.3,0.3,0.5,0.6,0.7c0.3,0.2,0.7,0.4,1.2,0.5c0.5,0.2,1.2,0.3,2,0.5c1.2,0.3,2.1,0.6,2.9,0.9c0.8,0.3,1.4,0.7,1.9,1.2
		c0.5,0.5,0.8,1.1,1,1.7c0.2,0.7,0.3,1.5,0.3,2.5c0,2.4-0.7,4-2.2,5C194.3,68.6,192.2,69,189.6,69z"/>
	<path class="st0" d="M205.3,44.6c-0.5,0-1,0-1.3-0.1c-0.4-0.1-0.6-0.2-0.9-0.4c-0.2-0.2-0.4-0.5-0.4-0.8s-0.1-0.8-0.1-1.4
		c0-0.6,0-1.1,0.1-1.4s0.2-0.6,0.4-0.8c0.2-0.2,0.5-0.3,0.9-0.3c0.3-0.1,0.8-0.1,1.3-0.1c0.5,0,1,0,1.3,0.1c0.4,0.1,0.6,0.2,0.9,0.3
		c0.2,0.2,0.4,0.4,0.4,0.8s0.1,0.8,0.1,1.4c0,0.6,0,1.1-0.1,1.4s-0.2,0.6-0.4,0.8c-0.2,0.2-0.5,0.3-0.9,0.4
		C206.3,44.6,205.9,44.6,205.3,44.6z M202.9,47.8h4.9v21h-4.9V47.8z"/>
	<path class="st0" d="M232.6,47.8v19.4c0,1.5-0.2,2.8-0.6,3.9c-0.4,1.2-1,2.1-1.9,3c-0.9,0.8-2,1.4-3.4,1.9
		c-1.4,0.4-3.1,0.6-5.2,0.6c-0.9,0-1.9-0.1-3-0.2c-1-0.1-1.9-0.2-2.7-0.3v-3.9c0.8,0.2,1.7,0.4,2.6,0.4s1.9,0.1,2.8,0.1
		c2.3,0,4-0.4,5-1.3c1-0.9,1.6-2.3,1.6-4.5v-1.5c-0.4,1-1.1,1.8-2.1,2.4c-1,0.6-2.4,0.9-4.4,0.9c-1.7,0-3.1-0.3-4.2-0.8
		c-1.1-0.5-2-1.2-2.6-2.2c-0.6-0.9-1.1-2.1-1.3-3.4c-0.2-1.3-0.4-2.8-0.4-4.4c0-1.5,0.1-2.8,0.4-4.1c0.2-1.3,0.7-2.4,1.3-3.4
		c0.6-1,1.5-1.7,2.6-2.3c1.1-0.6,2.5-0.9,4.2-0.9c1,0,1.8,0.1,2.6,0.3c0.7,0.2,1.3,0.4,1.9,0.7s0.9,0.7,1.3,1.1s0.6,0.9,0.8,1.4
		v-3.1H232.6z M222.6,65.2c1.1,0,2-0.2,2.7-0.5c0.7-0.3,1.3-0.8,1.7-1.4c0.4-0.6,0.7-1.3,0.8-2.2c0.1-0.9,0.2-1.9,0.2-3
		c0-1.1-0.1-2-0.2-2.9s-0.4-1.6-0.8-2.2c-0.4-0.6-1-1.1-1.7-1.4c-0.7-0.3-1.6-0.5-2.7-0.5c-1.1,0-1.9,0.2-2.6,0.6s-1.1,0.9-1.4,1.5
		c-0.3,0.6-0.6,1.4-0.6,2.2c-0.1,0.8-0.1,1.7-0.1,2.6c0,1,0.1,1.9,0.2,2.7c0.1,0.8,0.3,1.6,0.7,2.2c0.3,0.6,0.8,1.2,1.4,1.5
		C220.7,65,221.5,65.2,222.6,65.2z"/>
	<path class="st0" d="M250.3,47.4c1.3,0,2.4,0.2,3.3,0.5s1.6,0.8,2.2,1.4c0.5,0.6,0.9,1.3,1.2,2.2c0.2,0.9,0.3,1.9,0.3,3v14.4h-4.9
		v-13c0-1.5-0.2-2.6-0.7-3.3c-0.5-0.7-1.4-1-2.9-1c-1.2,0-2.3,0.2-3.2,0.7c-0.9,0.5-1.5,1.3-2,2.7v14h-4.9v-21h4.9v2.6
		c0.6-1.1,1.5-1.9,2.7-2.3S248.8,47.4,250.3,47.4z"/>
</g>
<g>
	<polygon class="st1" points="64.7,38.6 53.4,45.1 53.4,58.2 64.7,64.7 76,58.2 76,45.1 	"/>
	<g>
		<polygon class="st2" points="64.7,51.7 53.4,58.1 53.4,45 64.7,38.7 		"/>
	</g>
	<g>
		<polygon class="st3" points="53.4,58.1 64.7,64.7 76,58.2 64.7,51.7 		"/>
	</g>
	<polygon class="st2" points="47.6,54.7 47.6,41.3 58.4,35.2 53.7,32.5 43,38.6 43,52 	"/>
	<polygon class="st1" points="71.1,35 82.2,41.3 82.2,54.8 86.8,52.2 86.8,38.6 75.8,32.4 	"/>
	<polygon class="st2" points="76,64.7 64.6,71.3 53.4,64.8 53.4,70.1 64.5,76.7 76,70 	"/>
</g>
</svg>
