<?xml version="1.0" encoding="utf-8"?>
<!-- Generator: Adobe Illustrator 26.0.1, SVG Export Plug-In . SVG Version: 6.00 Build 0)  -->
<svg version="1.1" id="图层_1" xmlns="http://www.w3.org/2000/svg" xmlns:xlink="http://www.w3.org/1999/xlink" x="0px" y="0px"
	 viewBox="0 0 749 461.1" style="enable-background:new 0 0 749 461.1;" xml:space="preserve">
<style type="text/css">
	.st0{fill:#3998FF;}
	.st1{fill:#EEF6FF;}
	.st2{fill:none;stroke:#EEF6FF;stroke-miterlimit:10;}
	.st3{fill:none;stroke:#3998FF;stroke-miterlimit:10;}
	.st4{fill-rule:evenodd;clip-rule:evenodd;fill:#006DFE;}
	.st5{fill-rule:evenodd;clip-rule:evenodd;fill:#EBF5FF;}
	.st6{fill-rule:evenodd;clip-rule:evenodd;fill:#BDDEFF;}
	.st7{fill-rule:evenodd;clip-rule:evenodd;fill:#FFCC3A;}
	.st8{fill-rule:evenodd;clip-rule:evenodd;fill:#3998FF;}
	.st9{fill-rule:evenodd;clip-rule:evenodd;fill:#1E2889;}
	.st10{fill:#00B77B;}
	.st11{fill:#00D967;}
	.st12{fill:none;stroke:#FFFFFF;stroke-width:0.4109;stroke-linecap:round;stroke-linejoin:round;stroke-miterlimit:10;}
	.st13{fill:#D9ECFF;}
	.st14{fill:#FFFFFF;}
	.st15{fill:#FFFFFF;stroke:#3998FF;stroke-width:0.5;stroke-miterlimit:10;}
	.st16{fill:#89C1FC;}
	.st17{fill:#A6D1FF;}
	.st18{fill-rule:evenodd;clip-rule:evenodd;fill:#1F83FF;}
	.st19{fill-rule:evenodd;clip-rule:evenodd;fill:#221E41;}
	.st20{fill-rule:evenodd;clip-rule:evenodd;fill:#FE9F9F;}
	.st21{fill-rule:evenodd;clip-rule:evenodd;fill:#151928;}
	.st22{fill-rule:evenodd;clip-rule:evenodd;fill:#222942;}
	.st23{fill-rule:evenodd;clip-rule:evenodd;fill:#FFA990;}
	.st24{fill-rule:evenodd;clip-rule:evenodd;fill:#3F171B;}
	.st25{fill-rule:evenodd;clip-rule:evenodd;fill:#EEF6FF;}
	.st26{fill-rule:evenodd;clip-rule:evenodd;fill:#FFFFFF;}
	.st27{opacity:0.37;fill-rule:evenodd;clip-rule:evenodd;fill:#BDDEFF;}
	.st28{fill:#ADD8FF;}
	.st29{fill-rule:evenodd;clip-rule:evenodd;fill:#FFD6C2;}
	.st30{fill-rule:evenodd;clip-rule:evenodd;fill:#1D1F36;}
	.st31{fill-rule:evenodd;clip-rule:evenodd;}
	.st32{fill-rule:evenodd;clip-rule:evenodd;fill:#2633A4;}
	.st33{fill-rule:evenodd;clip-rule:evenodd;fill:#3644BE;}
	.st34{fill-rule:evenodd;clip-rule:evenodd;fill:#FF7272;}
	.st35{fill-rule:evenodd;clip-rule:evenodd;fill:#4E598D;}
	.st36{fill-rule:evenodd;clip-rule:evenodd;fill:#FF803A;}
	.st37{fill-rule:evenodd;clip-rule:evenodd;fill:#3A1200;}
	.st38{fill:url(#SVGID_1_);}
	.st39{fill:#0ACE68;}
	.st40{fill:#DAEBFF;}
	.st41{fill-rule:evenodd;clip-rule:evenodd;fill:#FFBA99;}
	.st42{fill-rule:evenodd;clip-rule:evenodd;fill:#343434;}
	.st43{fill-rule:evenodd;clip-rule:evenodd;fill:#5C5C5C;}
	.st44{fill-rule:evenodd;clip-rule:evenodd;fill:#1F2137;}
	.st45{fill-rule:evenodd;clip-rule:evenodd;fill:#EF6F32;}
	.st46{fill-rule:evenodd;clip-rule:evenodd;fill:#FF7F42;}
	.st47{fill-rule:evenodd;clip-rule:evenodd;fill:#E25A1A;}
	.st48{fill-rule:evenodd;clip-rule:evenodd;fill:#FF8348;}
	.st49{display:none;}
	.st50{display:inline;fill:#F5B315;}
	.st51{display:inline;}
	.st52{fill:none;stroke:#FFFFFF;stroke-miterlimit:10;}
	.st53{fill:#FFFFFF;stroke:#3998FF;stroke-miterlimit:10;}
	.st54{clip-path:url(#SVGID_00000016759505992031390600000004541715304022414505_);fill:#3998FF;}
	.st55{clip-path:url(#SVGID_00000016759505992031390600000004541715304022414505_);fill:#3D3D3D;}
	.st56{font-family:'Alibaba-PuHuiTi-M';}
	.st57{font-size:5px;}
	.st58{fill:none;stroke:#3998FF;stroke-width:0.5;stroke-miterlimit:10;}
	.st59{fill:#FFCC3A;}
	.st60{fill:#F5F5F5;}
	.st61{fill:#848484;}
	.st62{font-family:'Alibaba-PuHuiTi-R';}
	.st63{font-size:13px;}
</style>
<g>
	<path class="st0" d="M124.3,181.5H92.1c-1.9,0-3.4-1.5-3.4-3.4v-12.8c0-1.9,1.5-3.4,3.4-3.4h32.1c1.9,0,3.4,1.5,3.4,3.4v12.8
		C127.6,180,126.1,181.5,124.3,181.5z"/>
	<circle class="st1" cx="99.7" cy="171.7" r="5.7"/>
	<g>
		<line class="st2" x1="109.1" y1="169.6" x2="118.3" y2="169.6"/>
		<line class="st2" x1="109.1" y1="171.7" x2="118.3" y2="171.7"/>
		<line class="st2" x1="109.1" y1="173.9" x2="115.6" y2="173.9"/>
	</g>
	<g>
		<circle class="st3" cx="99.7" cy="170.2" r="1.5"/>
		<path class="st3" d="M96.7,174.7c0-1.7,1.3-3,3-3s3,1.3,3,3"/>
	</g>
</g>
<path id="Shape_00000121967885452391381420000001178140509554634649_" class="st4" d="M221.3,352.6h356.8c0,6.7-5.4,12.1-12.1,12.1
	H233.4C226.7,364.8,221.3,359.3,221.3,352.6z"/>
<path id="Shape_00000031179852506084468290000008432481574584366222_" class="st4" d="M253.4,132.8h292.6c7.9,0,14.3,6.4,14.3,14.3
	v199.8H239.1V147.1C239.1,139.2,245.5,132.8,253.4,132.8z"/>
<path id="Shape_00000049942549471785988960000008617583886785025701_" class="st5" d="M255.8,139.8H275v207.1h-30.6V153.6
	C244.3,146,249.4,139.8,255.8,139.8z"/>
<path id="Shape_00000052803056458000095440000003662579449942245032_" class="st6" d="M253.2,152h13.5v4.6h-13.5V152z M253.2,166.3
	h13.5v4.6h-13.5V166.3z M253.2,180.6h13.5v4.6h-13.5V180.6z M253.2,194.8h13.5v4.3h-13.5V194.8z M253.2,208.7h13.5v4.3h-13.5V208.7z
	 M253.2,222.3h13.5v4.3h-13.5V222.3z M253.2,235.9h13.5v4.3h-13.5V235.9z M253.2,249.4h13.5v4.3h-13.5V249.4z M253.2,263h13.5v4.3
	h-13.5V263z M253.2,276.5h13.5v4.3h-13.5V276.5z M253.2,290.1h13.5v4.3h-13.5V290.1z M253.2,303.7h13.5v4.3h-13.5V303.7z"/>
<path id="Shape_00000037662673680397354250000012015005473151552138_" class="st5" d="M279.1,161.3h272.6c0.8,0,1.4,0.7,1.4,1.5
	v178.7c0,0.8-0.6,1.5-1.4,1.5H279.1c-0.8,0-1.4-0.7-1.4-1.5V162.8C277.6,162,278.3,161.3,279.1,161.3z"/>
<path id="Shape_00000049905612056113076190000000467290691467621797_" class="st7" d="M367.3,278.4h46.4v4.6h-46.4V278.4z"/>
<path id="Shape_00000046336120490441293130000012311902859596026774_" class="st6" d="M334.4,181h172v4.6h-172V181z M295.9,195.3
	h64.2v4.6h-64.2V195.3z M392.2,264.9h113.8v4.6H392.2V264.9z M420.8,278.4h85.3v4.6h-85.3V278.4z M420.8,293h85.3v4.3h-85.3V293z
	 M367.3,195.3h53.5v4.6h-53.5V195.3z M367.3,264.9h17.8v4.6h-17.8V264.9z M360.1,293h53.5v4.3h-53.5V293z M295.9,209.6H378v4.6
	h-82.1V209.6z M385.1,209.6h53.5v4.6h-53.5V209.6z M506.1,209.6v4.6h-60.4v-4.6H506.1z M295.9,223.8H353v4.3h-57.1V223.8z
	 M413.7,223.8h92.1v4.3h-92.1V223.8z M295.9,237.7h74.9v4.3h-74.9V237.7z M378,237.7h127.7v4.3H378V237.7z M410.1,251.3h95.3v4.3
	h-95.3V251.3z M295.9,265.2h64.2v4.3h-64.2V265.2z M295.9,279.1h64.2v4.3h-64.2V279.1z M295.9,293H353v4.3h-57.1V293z M367.3,307
	h139.1v4.3H367.3V307z"/>
<path id="Shape_00000155856569567321675590000000035335766660183475_" class="st8" d="M423.9,195.3h78.1v4.6h-78.1V195.3z
	 M291.9,251.3h107v4.3h-107V251.3z"/>
<path id="Shape_00000088848459823448862910000013102600127344469132_" class="st8" d="M356.1,223.8h46.4v4.3h-46.4V223.8z
	 M291.9,307h64.2v4.3h-64.2V307z"/>
<path id="Shape_00000062914100096070011960000007634549858068465338_" class="st5" d="M279.1,140h272.6c0.8,0,1.4,0.7,1.4,1.5v15.7
	c0,0.8-0.6,1.5-1.4,1.5H279.1c-0.8,0-1.4-0.7-1.4-1.5v-15.7C277.6,140.6,278.3,140,279.1,140z"/>
<path id="Shape_00000028325992383922068040000000504786747950035130_" class="st9" d="M434.9,352.6c-1.2,3.5-4.5,6.1-8.5,6.1h-53.2
	c-3.9,0-7.3-2.5-8.5-6.1H221.3v-5.7h356.8v5.7H434.9L434.9,352.6z"/>
<g>
	<path class="st10" d="M247.9,286.6c0,0-5.1,10.7-14.2,14.7s-21.9-1.1-29-7c-7.1-5.9-14.1-14.3-14.8-20.6
		c-0.6-6.2,11.4-3.8,11.4-3.8s-5.3-7.6-7.5-13.1c-2.2-5.5,0.4-11.1,7.6-7.7c7.2,3.4,7.2,3.4,7.2,3.4s-5.5-11.8-5.5-19.2
		c0.1-7.4,4.3-18.5,12.1-10.6c7.8,7.8,8.6,24.2,8.6,24.2s1.7-7,4.2-12.1c2.5-5.1,7.6-4.5,10,2.7c2.3,7.1,3.3,17.3,3.3,17.3
		s2.3-7.9,6-6.6c3.7,1.3,5.8,10.4,5.3,19.5C251.8,276.8,247.9,286.6,247.9,286.6z"/>
	<g>
		<path class="st11" d="M246.3,267.4c0,0-0.3-38.9-28.7-52.8c0,0-13,32.7,6.7,60.8c19.7,28,15.7,21.5,15.7,21.5L246.3,267.4z"/>
		<line class="st12" x1="224.6" y1="232.9" x2="240.8" y2="290.7"/>
	</g>
</g>
<g>
	<g>
		<path class="st0" d="M600.9,154.2c0-3.5-2.9-6.4-6.4-6.4h-108c-3.5,0-6.4,2.9-6.4,6.4v7.2h120.7V154.2z"/>
		<path class="st13" d="M480.2,161.4v56.7c0,3.5,2.9,6.4,6.4,6.4h108c3.5,0,6.4-2.9,6.4-6.4v-56.7H480.2z"/>
	</g>
	<g>
		<circle class="st14" cx="571.9" cy="154.9" r="2.5"/>
		<g>
			<circle class="st14" cx="581.8" cy="154.9" r="2.5"/>
		</g>
		<g>
			<circle class="st14" cx="591.7" cy="154.9" r="2.5"/>
		</g>
	</g>
	<rect x="495.1" y="168.7" class="st15" width="91" height="11.3"/>
</g>
<g id="Stair" transform="translate(1062.557819, 344.652624)">
	<path id="Shape_00000010993099270061485970000005783231096005731260_" class="st16" d="M-474.6-126.3l-1.8,11.9h32.8l1.8-11.9
		H-474.6z M-474.1-129.3h32.8l2.1-13.7l2.9,0l-26.8,174.5h-2.9l1.3-8.8h-32.8l-1.4,8.8l-2.9,0L-475-143l2.9,0L-474.1-129.3z
		 M-476.9-111.4l-1.8,11.9h32.8l1.8-11.9H-476.9z M-479.2-96.5l-1.8,11.9h32.8l1.8-11.9H-479.2z M-481.5-81.6l-1.8,11.9h32.8
		l1.8-11.9H-481.5L-481.5-81.6z M-483.7-66.7l-1.8,11.9h32.8l1.8-11.9H-483.7z M-486-51.7l-1.8,11.9h32.8l1.8-11.9H-486L-486-51.7z
		 M-488.3-36.8l-1.8,11.9h32.8l1.8-11.9H-488.3z M-490.6-21.9l-1.8,11.9h32.8l1.8-11.9H-490.6z M-492.9-7l-1.8,11.9h32.8l1.8-11.9
		H-492.9z M-495.2,7.9l-1.8,11.9h32.8l1.8-11.9H-495.2z"/>
</g>
<g id="Women" transform="translate(1096.796221, 217.384261)">
	<path id="Shape_00000091696169172431128000000008288402656730471098_" class="st17" d="M-471.9,1h-32.8l1.8,11.9h32.8L-471.9,1z
		 M-472.3-2l-2.1-13.6l2.9,0l26.8,174.5h-2.9l-1.3-8.8h-32.8l1.3,8.8h-2.9l-26.8-174.5l2.9,0l2.1,13.7H-472.3z M-469.6,15.9h-32.8
		l1.8,11.9h32.8L-469.6,15.9z M-467.3,30.8h-32.8l1.8,11.9h32.8L-467.3,30.8z M-465,45.7h-32.8l1.8,11.9h32.8L-465,45.7z
		 M-462.7,60.6h-32.8l1.8,11.9h32.8L-462.7,60.6L-462.7,60.6z M-460.4,75.5h-32.8l1.8,11.9h32.8L-460.4,75.5z M-458.1,90.4h-32.8
		l1.8,11.9h32.8L-458.1,90.4L-458.1,90.4z M-455.8,105.3h-32.8l1.8,11.9h32.8L-455.8,105.3L-455.8,105.3z M-453.5,120.3h-32.8
		l1.8,11.9h32.8L-453.5,120.3L-453.5,120.3z M-451.2,135.2h-32.8l1.8,11.9h32.8L-451.2,135.2L-451.2,135.2z"/>
	<path id="Shape_00000156553295986454666780000014142645244592755630_" class="st18" d="M-460.5-29l9.5,5.9l10,20.7
		c1.6,3.4,1,7.5-1.7,10.2l-7.1,7.1l-2.2-7.5l3.5-4.6l-7.3-17.6L-460.5-29z"/>
	<path id="Shape_00000002360312571328240160000013313601338172961441_" class="st19" d="M-478.9,98.5c1.3-0.8,2.5-1.4,3.7-1.8
		c1.7-0.6,1.8,0,1.8,0.8s0,2.4,0,3.7c0,1.3-0.4,1.5-2.8,1.3c-2.3-0.2-2.6-0.4-5.1,0c-2.5,0.4-7.4,0.3-8.5-1.4
		c-1.1-1.7,2.4-2.4,5.5-2.9C-482.3,98-480.5,98.1-478.9,98.5z"/>
	<path id="Shape_00000108290764308607133280000016056873199076497035_" class="st20" d="M-473.4,90.7v7.1l-1.5,0.6
		c-2.8,1.1-6,1-8.7-0.3l3.8-0.8v-6.7H-473.4z"/>
	<path id="Shape_00000026142106514489108940000001217885412235116463_" class="st19" d="M-460.1,113.4c1.3-0.8,2.5-1.4,3.7-1.8
		c1.7-0.6,1.8,0,1.8,0.8c0,0.7,0,2.4,0,3.7c0,1.3-0.4,1.5-2.8,1.3c-2.3-0.2-2.6-0.4-5.1,0c-2.5,0.4-7.4,0.3-8.5-1.4
		c-1.1-1.7,2.4-2.4,5.5-2.9C-463.5,112.9-461.7,113-460.1,113.4z"/>
	<path id="Shape_00000049931505805944041280000007872560809533805729_" class="st20" d="M-454.6,105.6v7.1l-1.5,0.6
		c-2.8,1.1-6,1-8.7-0.3l3.8-0.8v-6.7H-454.6z"/>
	<polygon id="Shape_00000178181140767416700510000007356859525593570721_" class="st21" points="-462,109.5 -471,23.8 -449.9,23.3 
		-453.7,109.5 	"/>
	<path id="Shape_00000114789352664211815620000006492968083025410444_" class="st22" d="M-482.4,91.5l-2.6-27.8
		c-0.3-3.5-0.1-7,0.6-10.5l6-29.4l28.6-0.5l-19.9,40.2l-2.5,27.9H-482.4z"/>
	<path id="Shape_00000018232960000834428630000002246634135431048375_" class="st23" d="M-468.6-27.4c-0.8-4-1.9-6.1-3.1-6.4
		c-1.9-0.4-3.4-1.2-3.4-3.2c0-1.3-0.7-2.2-2-2.7l1.4-6.5c7.6-5,12.4-4.9,14.4,0.4s2,9.7,0,13.2l0.7,3.3L-468.6-27.4z"/>
	<path id="Shape_00000062167100337568476940000013278785637686472337_" class="st20" d="M-482.7-23.3l-1.1,9.2l-18.8,0.3
		c-1.7,0-3.4-0.7-4.5-2l-12.2-13.5c-1.3,0.1-2.3-0.4-3.2-1.5s-1.1-2.5-0.6-4.2c0,0-1.7-2.4-3.2-3.4c-1.1-0.7-0.5-2.1-0.5-2.1
		l23.6,18.2L-482.7-23.3z"/>
	<path id="Shape_00000045604698630211432060000011988456205306958260_" class="st18" d="M-465.9-29.7c1.3,0,2.6,0,3.9,0
		c6.9,0,12.5,5.6,12.5,12.5v41.1h-29.1l1.6-24.8c-2.1-1.6-3.1-3.7-3.1-6.3s0.3-4.4,1-5.6H-502c-2.7,0-5.2-1.2-6.9-3.2l-8.6-10.3
		l3.9-4.6l10.8,8.5C-480.9-27.3-468.6-29.7-465.9-29.7z"/>
	<path id="Shape_00000103980398144726349010000004343146365859100581_" class="st14" d="M-465.8,25.8l-0.7,2l-0.3-0.1l0.7-2
		L-465.8,25.8z M-467.6,30.5l-0.7,2l-0.3-0.1l0.7-2L-467.6,30.5z M-469.4,35.3l-0.7,2l-0.3-0.1l0.7-2L-469.4,35.3z M-471.1,40.1
		l-0.7,2l-0.3-0.1l0.7-2L-471.1,40.1z M-472.9,44.8l-0.7,2l-0.3-0.1l0.7-2L-472.9,44.8z M-474.7,49.6l-0.7,2l-0.3-0.1l0.7-2
		L-474.7,49.6z M-476.4,54.3c-0.2,0.7-0.4,1.3-0.6,2l-0.3-0.1c0.2-0.7,0.4-1.3,0.6-2L-476.4,54.3z M-477.7,59.2
		c-0.1,0.7-0.2,1.4-0.3,2.1l-0.3,0c0.1-0.7,0.2-1.4,0.3-2.1L-477.7,59.2z M-478.2,64.2c0,0.3,0,0.7,0,1l0,1.1l-0.3,0l0-1.1
		c0-0.3,0-0.7,0-1L-478.2,64.2z M-478,69.3l0.1,2.1l-0.3,0l-0.1-2.1L-478,69.3z M-477.9,74.3l0.1,2.1l-0.3,0l-0.1-2.1L-477.9,74.3z
		 M-477.7,79.4l0.1,2.1l-0.3,0l-0.1-2.1L-477.7,79.4z M-477.5,84.5l0.1,2.1l-0.3,0l-0.1-2.1L-477.5,84.5z"/>
	<path id="Shape_00000159451177019314178850000008511105078366870955_" class="st24" d="M-458.3-47.9c4.8-2.3,8.9-0.8,7.8,5.2
		c-1.3,6.6,2.1,6.5,4.3,10.3c1.4,2.5,0.1,6.2-3.9,10.9c-1.2-2.8-3.1-5-5.6-6.5c-3.8-2.3,1-10.5,1.5-14.9c0.3-2.6-0.7-3.6-3-2.9
		c1.1,3,0.7,6.5-1.2,10.5c-1.8,2.7-3.6,3.4-5.3,1.9c-2.6-2.2-1.9-3.8-0.6-4.2c1.3-0.5,1.5-3.1,0-3.5c-1.5-0.4-2.5,1.7-2.9,0
		c-0.4-1.7,0.3-3.4-1.7-3.4s-6.6,0.7-7.5-2.3c-0.9-3,1.5-6.8,6.8-6.8C-465.1-53.6-460.7-51.6-458.3-47.9L-458.3-47.9z"/>
</g>
<g id="Tab" transform="translate(337.000000, 453.000000)">
	<path id="Shape_00000064320356192388530530000000707382743543558069_" class="st25" d="M-205.3-191.3h153.6c1.7,0,3.1,1.3,3.1,3
		v121.7c0,1.6-1.4,3-3.1,3h-153.6c-1.7,0-3.1-1.3-3.1-3v-121.7C-208.3-189.9-206.9-191.3-205.3-191.3z"/>
	<path id="Shape_00000049901903650686165410000003423163866408189354_" class="st8" d="M-205.3-191.3h153.6c1.7,0,3.1,1.4,3.1,3.1
		v15.3h-159.8v-15.3C-208.3-189.9-206.9-191.3-205.3-191.3z"/>
	<path id="Shape_00000078760397688143741240000005374008297415502482_" class="st26" d="M-193.3-179c-1.7,0-3.1-1.4-3.1-3.1
		c0-1.7,1.4-3.1,3.1-3.1c1.7,0,3.1,1.4,3.1,3.1C-190.2-180.4-191.6-179-193.3-179z M-181-179c-1.7,0-3.1-1.4-3.1-3.1
		c0-1.7,1.4-3.1,3.1-3.1c1.7,0,3.1,1.4,3.1,3.1C-178-180.4-179.3-179-181-179z M-168.8-179c-1.7,0-3.1-1.4-3.1-3.1
		c0-1.7,1.4-3.1,3.1-3.1s3.1,1.4,3.1,3.1C-165.7-180.4-167.1-179-168.8-179z"/>
	<g>
		<path class="st14" d="M-64.7-105.4h-125.2c-2.6,0-4.7-2.1-4.7-4.7v-44.8c0-2.6,2.1-4.7,4.7-4.7h125.2c2.6,0,4.7,2.1,4.7,4.7v44.8
			C-60-107.5-62.1-105.4-64.7-105.4z"/>
		<rect x="-151" y="-148.5" class="st6" width="20.7" height="4.3"/>
		<rect x="-151" y="-141.5" class="st27" width="76.3" height="4.3"/>
		<rect x="-151" y="-127.5" class="st6" width="20.7" height="4.3"/>
		<rect x="-151" y="-120.5" class="st27" width="76.3" height="4.3"/>
		<g>
			<path class="st0" d="M-162.3-139c0-5.7-4.6-10.3-10.3-10.3s-10.3,4.6-10.3,10.3c0,3.3,1.5,6.2,3.9,8.1v-2.2c0-2,1.6-3.6,3.6-3.6
				h5.5c2,0,3.6,1.6,3.6,3.6v2.2C-163.8-132.8-162.3-135.7-162.3-139z"/>
			<path class="st28" d="M-169.8-136.7h-5.5c-2,0-3.6,1.6-3.6,3.6v2.2c1.7,1.4,4,2.2,6.3,2.2s4.6-0.8,6.3-2.2v-2.2
				C-166.2-135.1-167.8-136.7-169.8-136.7z"/>
			<circle class="st28" cx="-172.6" cy="-141.5" r="3.3"/>
		</g>
	</g>
	<path class="st26" d="M-57.6-178.3h-3.7c-1.2,0-2.1-0.9-2.1-2.1v-3.7c0-1.2,0.9-2.1,2.1-2.1h3.7c1.2,0,2.1,0.9,2.1,2.1v3.7
		C-55.5-179.2-56.5-178.3-57.6-178.3z"/>
	<g>
		<line class="st3" x1="-60.9" y1="-183.7" x2="-58" y2="-180.9"/>
		<line class="st3" x1="-58" y1="-183.7" x2="-60.9" y2="-180.9"/>
	</g>
	<path class="st14" d="M-146.8-77.4h-43.3c-2.6,0-4.7-2.1-4.7-4.7v-10.4c0-2.6,2.1-4.7,4.7-4.7h43.3c2.6,0,4.7,2.1,4.7,4.7v10.4
		C-142.1-79.5-144.2-77.4-146.8-77.4z"/>
	<g>
		<path class="st0" d="M-182.6-90.6v1.7l-3,1.5l3,1.6v1.7l-4.8-2.5v-1.4L-182.6-90.6z"/>
		<path class="st0" d="M-174.4-83.7h-1.6V-91h1.6V-83.7z"/>
		<path class="st0" d="M-172.7-82.6h-1.4l5.4-9.3h1.4L-172.7-82.6z"/>
		<path class="st0" d="M-161.1-91v1.3h-4.5v1.7h2.3c0.5,0,0.8,0,1.1,0.1c0.3,0.1,0.5,0.2,0.7,0.3c0.5,0.4,0.8,1,0.8,1.7
			c0,0.9-0.4,1.6-1.2,2c-0.4,0.2-1.1,0.3-2,0.3h-3.2V-85h3.2c0.4,0,0.8,0,1-0.1c0.1-0.1,0.3-0.1,0.3-0.3c0.1-0.1,0.1-0.3,0.1-0.5
			c0-0.2,0-0.4-0.1-0.5c-0.1-0.2-0.2-0.2-0.4-0.3c-0.1,0-0.4-0.1-1-0.1h-3.2V-91H-161.1z"/>
		<path class="st0" d="M-154.5-84.1v-1.7l3-1.5l-3-1.6v-1.7l4.8,2.5v1.4L-154.5-84.1z"/>
	</g>
</g>
<g id="Men-2" transform="translate(248.212393, 156.359400)">
	<polygon id="Shape_00000087398222771558265730000016466766338552425919_" class="st29" points="-128.3,130.2 -129.9,136.6 
		-136.3,135 -134.7,128.6 	"/>
	<path id="Shape_00000132780641059301998690000001367459501437951371_" class="st30" d="M-129.4,136l-1.1,4.5
		c-0.2,0.8-1,1.3-1.8,1.1l-12.6-3.1c-0.5-0.1-0.8-0.7-0.6-1.3c0.6-2.4,2.5-2.2,4.8-2.5l4.6-0.4L-129.4,136z"/>
	<polygon id="Shape_00000016797466486997323870000016641098928826287267_" class="st29" points="-110.1,129.9 -108.9,136.5 
		-115.4,136.5 -116.7,129.9 	"/>
	<path id="Shape_00000116940843113782515600000010383375198732337537_" class="st31" d="M-108.8,135.7v4.7c0,0.8-0.7,1.5-1.5,1.5
		h-12.9c-0.5,0-0.9-0.5-0.9-1.1c0-2.4,1.9-2.8,4.1-3.5l4.4-1.5H-108.8z"/>
	<path id="Shape_00000104706289723261874270000007930821104440515985_" class="st29" d="M-116.8,77.6c-0.7-0.3-3.1-0.9-4.8-0.4
		c-1.7,0.4-2.2,0-2.8-0.4c1.3-1.1,3.5-1.7,6.4-1.7c2.1,0,5.9,0.8,10.7,0.8s8.3-0.8,19.7-3.1l1-10.1l10,0.8L-79.8,81
		c-7.5,0.7-13.3,0.9-17.6,0.6c-6.3-0.5-9-1.5-13.2-1.5s-3.8,0.2-5.6,0.9c-1.8,0.8-6.1-0.6-3.1-1.1c1.5-0.3,1.5-0.2,2.3-0.7
		S-116.2,77.9-116.8,77.6z"/>
	<path id="Shape_00000106126210853026762610000013413117581692456084_" class="st32" d="M-127.5,133.4l-9.5-1.8l5-39.1
		c0.5-3.7,3.6-6.4,7.3-6.4c36.6,0,54.9,0,55.1,0l-1.5,6.9c-1.6,7.2-8.3,12.2-15.7,11.5l-32-2.9L-127.5,133.4z"/>
	<path id="Shape_00000074404346566734136580000002027597905087982229_" class="st33" d="M-108,133.2h-10.4l-14-37.1
		c-1.4-3.8,0.5-8,4.3-9.5c0.8-0.3,1.7-0.5,2.6-0.5c37.1,0,55.7,0,55.8,0v4.5c0,8.1-6.6,14.7-14.7,14.7h-29.8L-108,133.2z"/>
	<path id="Shape_00000140719953691020865400000012687965314519915914_" class="st7" d="M-79.7,40.1c-3.4-1.4-7.4,0.1-12,4.7
		c-4.6,4.5-5.1,18.4-1.5,41.6c3.9,0,11.8,0,23.7,0c0-6,0-13.1,0-21.3c0-12.3-0.7-17.8-3.8-21.8C-75.4,40.6-77.5,39.5-79.7,40.1z"/>
	<path id="Shape_00000049188230697239554560000015032671730377491120_" class="st34" d="M-123.5,77.6c-0.2,0-2.6-0.1-3.4,0.2
		c-0.9,0.2-0.5,1.1,1.7,0.9S-123.3,77.6-123.5,77.6z"/>
	<path id="Shape_00000044861227276206953360000000313376994079419556_" class="st35" d="M-138.3,65.5l11.3,20.7l-5.9,0l-0.3-0.1
		c-0.2-0.1-0.4-0.2-0.5-0.4l-12.9-24.5c0,0,0-0.1,0-0.2c0-0.2,0.2-0.4,0.4-0.4l0.2,0L-138.3,65.5z"/>
	<polygon id="Shape_00000040559130395440315320000011585353826757081734_" class="st25" points="-138,65.5 -126.6,86.1 -132.7,85.4 
		-146,60.6 	"/>
	<path id="Shape_00000043418734365433290400000013436283360145567118_" class="st35" d="M-101.4,84.7c0.2,0,0.4,0.2,0.4,0.4l0,0.4
		c0,0,0,0.1,0,0.1c0,0.2-0.3,0.4-0.5,0.4l-31.6,0.1c-0.2,0-0.4-0.2-0.4-0.4l0-0.4c0,0,0-0.1,0-0.1c0-0.2,0.3-0.4,0.5-0.4
		L-101.4,84.7z"/>
	<path id="Shape_00000149381754600202899600000007777292610781104011_" class="st36" d="M-86.5,57.6l-4.7,19.8
		c5.2,0.8,7.8,1.1,7.8,0.8c0-0.3,0.8-3.1,2.3-8.4L-86.5,57.6z"/>
	<path id="Shape_00000124127214284892989880000006739321266286662562_" class="st29" d="M-122.7,82.1c0-0.3-1.5,0.6-2.5,1
		c-1,0.4-2,0.4-1.2-0.2c0.7-0.6,1.7-1.2,2.7-2c0.7-0.5,0-0.3-1.9,0.7c-0.8,0.6-3.2,2-2.2,0.7c0.6-0.9,2-2,3.9-3.1
		c-1.7,0.3-3.1,2.1-4.1,2.3c-0.7,0.1-0.8-0.1-0.4-0.7c1.5-1.7,3.1-2.8,4.7-3.3c2.1,0,5.6,0,10.4,0c4.8,0,13.5-0.8,26.1-2.3l1-10.1
		l10,0.8l-3.2,17.6c-7.5,0.7-13.3,0.9-17.6,0.6c-6.3-0.5-14.8-1.6-19.2-1.8c-4.3-0.1-4.6,0.4-6.3,1.1s-3.5,0.7-1.7-0.4
		C-123.1,82.6-122.7,82.3-122.7,82.1z"/>
	<path id="Shape_00000158747524763494435920000006079541678458646930_" class="st29" d="M-79.5,37.6c-1.5-2.8-2.5-4.9-3.1-6.3
		s-1.2-3-1.9-4.8c0.4-3.1-0.7-5.1-3.2-5.9c-3.7-1.3-9.8,0.7-11.4,2.4c-1.6,1.7-2.1,6,0,8.6l-0.5,3.1c0.7,0.5,1.3,0.6,2,0.3
		c1,1.5,1.7,2.5,2.2,2.8c0.7,0.6,2.3,2.3,5.9,0.6c0.8,1.5,1.4,2.7,1.8,3.4c0.5,0.9-2.7,2,0,4.4c1.8,1.6,5.1-0.4,9.7-6.1L-79.5,37.6z
		"/>
	<path id="Shape_00000096751811620394304310000010651784867538430608_" class="st37" d="M-81.7,35.3c-2.4,1.3-4,1.6-4.7,1.1
		c-1.1-0.8-2.3-2.8-2.6-3.4s0.6-0.8,1.2-1.2c0.6-0.3,0.7-2.1-0.4-2.7c-1.1-0.6-1.8,0-2.1,0.4c-0.3,0.4-1.5,0.5-2.1-1.2
		c-0.6-1.7-0.7-3.6-1.7-3c-1,0.6-7.1,3.2-9.6-0.5s-1.6-7.2,3.1-7.5c4.6-0.3,5.7-1.1,8.8-2.1s6.2-1.7,9.6,2.7c3.3,4.4,2.8,8,1.6,11
		c-1.2,3-0.4,3.2-0.1,4.4C-80.8,33.9-81.1,34.6-81.7,35.3z"/>
	<path id="Shape_00000059288723315105532540000007771145318800364987_" class="st7" d="M-86.5,56.3l-0.7,10.9c8,1.3,12,1.9,12,1.9
		l0.5-11.4"/>
	<path id="Shape_00000117660121136653210630000001986977311641657006_" class="st14" d="M-115.4,129l-0.3,0.1l-0.5-2.1l0.3-0.1
		L-115.4,129z M-116.7,124l-0.3,0.1l-0.5-2.1l0.3-0.1L-116.7,124z M-118,118.9l-0.3,0.1l-0.5-2.1l0.3-0.1L-118,118.9z M-119.3,113.9
		l-0.3,0.1l-0.5-2.1l0.3-0.1L-119.3,113.9z M-120.6,108.8l-0.3,0.1l-0.5-2.1l0.3-0.1L-120.6,108.8z M-121.8,103.8l-0.3,0.1l-0.5-2.1
		l0.3-0.1L-121.8,103.8z M-122.7,98.7l-0.3-0.1c0.2-0.7,0.7-1.4,1.3-1.8l0.2,0.3C-122.1,97.5-122.5,98.1-122.7,98.7z M-118.6,96.7
		l0-0.3l2.1,0l0,0.3L-118.6,96.7z M-113.4,96.7l0-0.3l2.1,0l0,0.3L-113.4,96.7z M-108.2,96.8l0-0.3l2.1,0l0,0.3L-108.2,96.8z
		 M-102.9,96.8l0-0.3l2.1,0l0,0.3L-102.9,96.8z M-97.7,96.8l0-0.3l2.1,0l0,0.3L-97.7,96.8z M-92.5,96.9l0-0.3l2.1,0l0,0.3
		L-92.5,96.9z M-87.3,96.8l0-0.3c0.7-0.1,1.4-0.3,2-0.7l0.1,0.3C-85.8,96.5-86.5,96.7-87.3,96.8z M-82.9,94l-0.3-0.2c0,0,0,0,0-0.1
		l1.1-1.8l0.3,0.2L-82.9,94C-82.9,94-82.9,94-82.9,94z M-80.1,89.6l-0.3-0.2l0.6-0.9l0.3,0.2L-80.1,89.6z"/>
</g>
<g>
	<g>
		<g>
			<g>
				<path class="st0" d="M292.9,110.4c0-2.5-2-4.6-4.6-4.6h-78c-2.5,0-4.6,2-4.6,4.6v5.2h87.2V110.4z"/>
				
					<linearGradient id="SVGID_1_" gradientUnits="userSpaceOnUse" x1="249.1836" y1="-433.8658" x2="249.6159" y2="-382.8444" gradientTransform="matrix(1 0 0 1 0 546.0001)">
					<stop  offset="0" style="stop-color:#B0D8FF"/>
					<stop  offset="1.537955e-02" style="stop-color:#B3D9FF"/>
					<stop  offset="0.145" style="stop-color:#C4E1FF"/>
					<stop  offset="0.3014" style="stop-color:#D1E7FF"/>
					<stop  offset="0.5117" style="stop-color:#D8EAFF"/>
					<stop  offset="1" style="stop-color:#F1F9FE"/>
				</linearGradient>
				<path class="st38" d="M205.8,115.6v41c0,2.5,2,4.6,4.6,4.6h78c2.5,0,4.6-2,4.6-4.6v-41H205.8z"/>
			</g>
			<g>
				<circle class="st14" cx="271.9" cy="110.9" r="1.8"/>
				<g>
					<circle class="st14" cx="279.1" cy="110.9" r="1.8"/>
				</g>
				<g>
					<ellipse class="st14" cx="286.3" cy="111" rx="1.8" ry="1.8"/>
				</g>
			</g>
		</g>
		<path class="st14" d="M275.4,150h-23.6c-1.2,0-2.2-1-2.2-2.2v-21.5c0-1.2,1-2.2,2.2-2.2h23.6c1.2,0,2.2,1,2.2,2.2v21.5
			C277.6,149,276.6,150,275.4,150z"/>
		<g>
			<g>
				<path class="st39" d="M238.2,134.5c-1.2-5.2-5.8-9-11.2-9v11.5L238.2,134.5z"/>
				<path class="st14" d="M227,137.1v-11.5c-6.4,0-11.5,5.2-11.5,11.5c0,6.4,5.2,11.5,11.5,11.5c6.4,0,11.5-5.2,11.5-11.5
					c0-0.9-0.1-1.7-0.3-2.6L227,137.1z"/>
			</g>
			<circle class="st40" cx="227" cy="137.2" r="8.8"/>
		</g>
	</g>
	<g>
		<line class="st3" x1="258.2" y1="129.5" x2="258.2" y2="144.8"/>
		<circle class="st0" cx="258.2" cy="142.2" r="1.7"/>
		<line class="st3" x1="264.4" y1="129.5" x2="264.4" y2="144.8"/>
		<line class="st3" x1="270.4" y1="129.5" x2="270.4" y2="144.8"/>
		<circle class="st0" cx="270.4" cy="133.5" r="1.7"/>
		<circle class="st0" cx="264.4" cy="136.6" r="1.7"/>
	</g>
</g>
<g id="人物_x2F_男性_x2F_2">
	<g id="头型1-" transform="translate(46.000000, -2.000000)">
		<path id="圆角矩形-5" class="st41" d="M476.6,260c2,0,3.6,1.7,3.6,3.9v11.9c0,2.1-1.6,3.9-3.6,3.9c-2,0-3.6-1.7-3.6-3.9v-11.9
			C473.1,261.7,474.7,260,476.6,260z"/>
		<path id="Combined-shape-564" class="st29" d="M471.9,253.5c6.4-0.4,7.3,3.8,7.2,7.1c0.3-0.3,0.8-0.6,1.1-0.5
			c1.3,0.1,1.2,1.8,1.2,1.8s0.2,0.7-0.6,1.8c-0.6,0.8-2.2,1.5-2.7,1.7l-0.2,0.7c0,0-0.9,2-1.8,3c-1.2,1.3-1.8,1.8-1.8,1.8
			s-1.1,0.9-2.4,1.2c-1.1,0.3-2.4,0-2.4,0s-1.5-0.2-1.8-2.4c-0.2-1.3-0.2-3-0.2-4.7l0-0.4c0-3.2,0.2-6.1,0.2-6.1
			S468.1,253.7,471.9,253.5z"/>
		<path id="形状-17" class="st37" d="M474.2,258.8c0,0-3.9,0.7-5.9,0c-2.1-0.8-2.4-3-2.4-3s-0.1-1.7,0.6-3c0.5-1,1.8-1.8,1.8-1.8
			s1.1-0.8,2.4-0.6c1,0.2,1.8,1.2,1.8,1.2s1.4,1.3,2.4,1.8c1.1,0.5,2.4,0,2.4,0s2.1-0.5,3.6,1.2c2.3,2.5,1.8,5.9,1.8,5.9
			s-0.4,2.2-1.2,4.2c-0.7,1.6-1.8,2.4-1.8,2.4s-0.6,0.4-1.2,0c-0.7-0.5,0-1.2,0-1.2l0.6-1.2c0,0,2.3,0,2.4-3.6
			c0-0.6-1.2-0.6-1.2-0.6s-0.7,0-1.2,0.6c-0.3,0.3-0.6,1.8-0.6,1.8s-0.2-2.9-1.2-3.6C476.1,258.6,474.2,258.8,474.2,258.8z"/>
	</g>
	<g id="裤子" transform="translate(36.000000, 130.000000)">
		<path id="形状-30-拷贝" class="st31" d="M500.1,266.9l3.5,5.5l-15,9.6c0,0-1.2-1.6-0.4-4c0.8-2.4,4.3-4.2,4.3-4.2
			s1.2-0.7,1.7-1.8c0.4-0.8,0.4-1.6,0.4-1.6L500.1,266.9z"/>
		<path id="形状-34" class="st42" d="M473,198l-3,29.1c0,0-0.1,0.9,0,1.8c0.2,1.2,0.6,2.4,0.6,2.4l21.4,40.9l7.1-4.7
			c0,0-4.7-19.2-8.9-29.7c-1.7-4.3-5.9-7.1-5.9-7.1s5.5-10.5,8.3-20.2c1.5-5.2,1.2-12.5,1.2-12.5H473z"/>
		<path id="形状-29-拷贝" class="st43" d="M478.3,196.8c0,0,0.5,18.1,2.4,36.2c2.3,22.4,5.9,45.7,5.9,45.7h6.5
			c0,0,3.2-21.5,3.6-36.2c0.2-9.2-1.8-14.2-1.8-14.2s2-8.9,3.6-17.8c1.1-6.3,1.2-13.6,1.2-13.6H478.3z"/>
		<path id="形状-30" class="st44" d="M493.1,278.7v6.5h-17.8c0,0-0.2-2,1.8-3.6c1.9-1.6,5.9-1.2,5.9-1.2s1.4,0.1,2.4-0.6
			c0.8-0.5,1.2-1.2,1.2-1.2H493.1z"/>
	</g>
	<g id="衣服" transform="translate(-2.000000, 36.000000)">
		<path id="形状-26-拷贝" class="st29" d="M493.9,249.4c0,0-1.7-2.5-2.6-3.3c-0.7-0.7-0.7,1.1-0.7,1.1s-0.5,0-1.1-0.7
			c-0.3-0.3-0.8-1.6-1-1.9c-0.2-0.5-0.5-0.7-0.5-0.7s-2.1-1.2-2.7,2.6c-0.3,2.1,3.2,7.6,3.2,7.6L493.9,249.4z"/>
		<path id="形状-31" class="st45" d="M511,245.7l-5.3,16.6l-11.3-13.1l-5.3,4.7l15.4,19.6c0,0,0.9,0.6,1.8,0.6
			c0.9,0,1.8-0.6,1.8-0.6l7.7-6.5L511,245.7z"/>
		<path id="形状-24" class="st46" d="M521.1,237.4c0,0,0.1,1.4,0.6,2.4c0.4,0.8,1.2,1.2,1.2,1.2s2.1-1.3,3.6-3
			c1.1-1.3,1.8-3,1.8-3l7.7,4.2c0,0,2.3,1.1,3.6,3c1.2,1.9,1.2,4.2,1.2,4.2V292H511v-46.3c0,0,0.4-3,3-5.3
			C516.7,237.8,521.1,237.4,521.1,237.4z"/>
		<polygon id="形状-33" class="st47" points="532.9,252.9 537.1,264.1 527,280.2 531.7,285.5 540.6,281.9 540.6,276 540.6,252.9 
					"/>
		<path id="形状-26" class="st29" d="M526.6,280.8c0,0-2.4,1.9-3.1,2.8c-0.6,0.8,1.2,0.7,1.2,0.7s0.1,0.5-0.7,1.2
			c-0.3,0.3-1.5,0.9-1.8,1.1c-0.5,0.3-0.6,0.6-0.6,0.6s-1,2.2,2.8,2.5c2.1,0.2,7.3-3.8,7.3-3.8L526.6,280.8z"/>
		<path id="形状-32" class="st48" d="M540,242.8l10.7,21.4c0,0,0.5,1.1,0.6,1.8c0.1,1.2-0.6,1.8-0.6,1.8l-19,18.4l-5.3-5.9
			l14.2-15.4l-7.7-12.5"/>
	</g>
</g>
<g class="st49">
	<circle class="st50" cx="629.1" cy="94.5" r="20.8"/>
	<g class="st51">
		<g>
			<path class="st14" d="M624.9,100.2l-7-4.5c-0.2-0.1-0.4-0.4-0.4-0.8V94c0-0.3,0.2-0.6,0.4-0.8l7-4.5c0.4-0.2,0.8,0.2,0.8,0.8v0.3
				c0,0.3-0.2,0.6-0.4,0.8l-4.8,2.9c-0.5,0.3-0.5,1.4,0,1.7l4.8,2.9c0.2,0.1,0.4,0.4,0.4,0.8v0.3
				C625.7,100.1,625.3,100.6,624.9,100.2z"/>
		</g>
		<g>
			<path class="st14" d="M631.7,87.6l-3.8,14.2c-0.1,0.4-0.4,0.5-0.6,0.5l0,0c-0.4,0-0.8-0.4-0.6-1l3.8-14.2
				c0.1-0.4,0.4-0.5,0.6-0.5l0,0C631.4,86.7,631.8,87.1,631.7,87.6z"/>
		</g>
		<g>
			<path class="st14" d="M640.2,95.8l-7,4.5c-0.4,0.2-0.8-0.2-0.8-0.8v-0.3c0-0.3,0.2-0.6,0.4-0.8l4.8-2.9c0.5-0.3,0.5-1.4,0-1.7
				l-4.8-2.9c-0.2-0.1-0.4-0.4-0.4-0.8v-0.3c0-0.6,0.5-1,0.8-0.8l7,4.5c0.2,0.1,0.4,0.4,0.4,0.8v0.9
				C640.5,95.3,640.5,95.6,640.2,95.8z"/>
		</g>
	</g>
</g>
<g>
	<path class="st1" d="M103.9,200.7H65.4c-1.9,0-3.4-1.5-3.4-3.4v-16c0-1.9,1.5-3.4,3.4-3.4h38.5c1.9,0,3.4,1.5,3.4,3.4v16
		C107.3,199.2,105.8,200.7,103.9,200.7z"/>
	<circle class="st0" cx="74.7" cy="189.3" r="6.6"/>
	<g>
		<line class="st3" x1="85.7" y1="186.9" x2="96.4" y2="186.9"/>
		<line class="st3" x1="85.7" y1="189.4" x2="96.4" y2="189.4"/>
		<line class="st3" x1="85.7" y1="191.8" x2="93.3" y2="191.8"/>
	</g>
	<g>
		<circle class="st52" cx="74.7" cy="187.6" r="1.7"/>
		<path class="st52" d="M71.2,192.8c0-1.9,1.6-3.5,3.5-3.5s3.5,1.6,3.5,3.5"/>
	</g>
</g>
<g>
	<path class="st1" d="M100.3,151.4H74.6c-1.9,0-3.4-1.5-3.4-3.4v-9.6c0-1.9,1.5-3.4,3.4-3.4h25.7c1.9,0,3.4,1.5,3.4,3.4v9.6
		C103.7,149.9,102.1,151.4,100.3,151.4z"/>
	<circle class="st0" cx="80.3" cy="143.3" r="4.8"/>
	<g>
		<line class="st3" x1="88.2" y1="141.5" x2="95.8" y2="141.5"/>
		<line class="st3" x1="88.2" y1="143.3" x2="95.8" y2="143.3"/>
		<line class="st3" x1="88.2" y1="145.1" x2="93.6" y2="145.1"/>
	</g>
	<g>
		<circle class="st52" cx="80.3" cy="142" r="1.2"/>
		<path class="st52" d="M77.8,145.8c0-1.4,1.1-2.5,2.5-2.5s2.5,1.1,2.5,2.5"/>
	</g>
</g>
<g>
	<path class="st53" d="M302.2,187.4h11.1c2.8,0,5-2.3,5-5l0,0c0-2.8-2.3-5-5-5h-11.1c-2.8,0-5,2.3-5,5l0,0
		C297.2,185.1,299.4,187.4,302.2,187.4z"/>
	<circle class="st0" cx="302.2" cy="182.3" r="4.2"/>
</g>
<g>
	<g>
		<defs>
			<rect id="SVGID_00000054974552416016431550000000205124680599118012_" x="576.5" y="173" width="5.3" height="3"/>
		</defs>
		<clipPath id="SVGID_00000059283877642027241720000002707871190016029081_">
			<use xlink:href="#SVGID_00000054974552416016431550000000205124680599118012_"  style="overflow:visible;"/>
		</clipPath>
		<path style="clip-path:url(#SVGID_00000059283877642027241720000002707871190016029081_);fill:#3998FF;" d="M579,175.8L579,175.8
			l-2.4-2.4c-0.1-0.1-0.1-0.3,0-0.4c0,0,0.1-0.1,0.2-0.1s0.1,0,0.2,0.1l2.2,2.2l2.2-2.2c0,0,0.1-0.1,0.2-0.1c0.1,0,0.1,0,0.2,0.1
			c0.1,0.1,0.1,0.3,0,0.4l-2.5,2.5L579,175.8L579,175.8z"/>
		<path style="clip-path:url(#SVGID_00000059283877642027241720000002707871190016029081_);fill:#3D3D3D;" d="M579,175.8"/>
	</g>
</g>
<circle class="st15" cx="499.6" cy="190" r="4.3"/>
<circle class="st0" cx="499.6" cy="210.1" r="4.3"/>
<rect x="510.3" y="186.3" class="st6" width="23.9" height="4.3"/>
<rect x="510.3" y="193.3" class="st6" width="63.3" height="4.3"/>
<rect x="510.3" y="204.3" class="st6" width="23.9" height="4.3"/>
<rect x="510.3" y="211.3" class="st6" width="63.3" height="4.3"/>
<line class="st15" x1="499.4" y1="196.8" x2="499.4" y2="203.9"/>
<text transform="matrix(1 0 0 1 498.144 211.8284)" class="st14 st56 st57">2</text>
<polyline class="st58" points="497.8,189.7 499.7,191.1 505.1,184.8 "/>
<path class="st59" d="M489.6,81.9l2,4.1c0.1,0.1,0.2,0.2,0.3,0.2l4.5,0.7c0.3,0,0.5,0.5,0.2,0.7l-3.3,3.2c-0.1,0.1-0.1,0.2-0.1,0.4
	l0.8,4.5c0.1,0.3-0.3,0.6-0.6,0.4l-4-2.1c-0.1-0.1-0.3-0.1-0.4,0l-4,2.1c-0.3,0.2-0.7-0.1-0.6-0.4l0.8-4.5c0-0.1,0-0.3-0.1-0.4
	l-3.3-3.2c-0.2-0.2-0.1-0.7,0.2-0.7l4.5-0.7c0.1,0,0.3-0.1,0.3-0.2l2-4.1C489,81.6,489.4,81.6,489.6,81.9z"/>
<path class="st59" d="M510.6,81.9l2,4.1c0.1,0.1,0.2,0.2,0.3,0.2l4.5,0.7c0.3,0,0.5,0.5,0.2,0.7l-3.3,3.2c-0.1,0.1-0.1,0.2-0.1,0.4
	l0.8,4.5c0.1,0.3-0.3,0.6-0.6,0.4l-4-2.1c-0.1-0.1-0.3-0.1-0.4,0l-4,2.1c-0.3,0.2-0.7-0.1-0.6-0.4l0.8-4.5c0-0.1,0-0.3-0.1-0.4
	l-3.3-3.2c-0.2-0.2-0.1-0.7,0.2-0.7l4.5-0.7c0.1,0,0.3-0.1,0.3-0.2l2-4.1C510,81.6,510.4,81.6,510.6,81.9z"/>
<path class="st59" d="M531.6,81.9l2,4.1c0.1,0.1,0.2,0.2,0.3,0.2l4.5,0.7c0.3,0,0.5,0.5,0.2,0.7l-3.3,3.2c-0.1,0.1-0.1,0.2-0.1,0.4
	l0.8,4.5c0.1,0.3-0.3,0.6-0.6,0.4l-4-2.1c-0.1-0.1-0.3-0.1-0.4,0l-4,2.1c-0.3,0.2-0.7-0.1-0.6-0.4l0.8-4.5c0-0.1,0-0.3-0.1-0.4
	l-3.3-3.2c-0.2-0.2-0.1-0.7,0.2-0.7l4.5-0.7c0.1,0,0.3-0.1,0.3-0.2l2-4.1C531,81.6,531.4,81.6,531.6,81.9z"/>
<path class="st59" d="M552.6,81.9l2,4.1c0.1,0.1,0.2,0.2,0.3,0.2l4.5,0.7c0.3,0,0.5,0.5,0.2,0.7l-3.3,3.2c-0.1,0.1-0.1,0.2-0.1,0.4
	l0.8,4.5c0.1,0.3-0.3,0.6-0.6,0.4l-4-2.1c-0.1-0.1-0.3-0.1-0.4,0l-4,2.1c-0.3,0.2-0.7-0.1-0.6-0.4l0.8-4.5c0-0.1,0-0.3-0.1-0.4
	l-3.3-3.2c-0.2-0.2-0.1-0.7,0.2-0.7l4.5-0.7c0.1,0,0.3-0.1,0.3-0.2l2-4.1C552,81.6,552.4,81.6,552.6,81.9z"/>
<path class="st60" d="M573.6,81.9l2,4.1c0.1,0.1,0.2,0.2,0.3,0.2l4.5,0.7c0.3,0,0.5,0.5,0.2,0.7l-3.3,3.2c-0.1,0.1-0.1,0.2-0.1,0.4
	l0.8,4.5c0.1,0.3-0.3,0.6-0.6,0.4l-4-2.1c-0.1-0.1-0.3-0.1-0.4,0l-4,2.1c-0.3,0.2-0.7-0.1-0.6-0.4l0.8-4.5c0-0.1,0-0.3-0.1-0.4
	l-3.3-3.2c-0.2-0.2-0.1-0.7,0.2-0.7l4.5-0.7c0.1,0,0.3-0.1,0.3-0.2l2-4.1C573,81.6,573.4,81.6,573.6,81.9z"/>
<g>
	<text transform="matrix(1 0 0 1 588.2037 95.0738)" class="st61 st62 st63">4.5</text>
</g>
<path class="st59" d="M573.2,81.7c-0.1,0-0.3,0.1-0.4,0.2l-2,4.1c-0.1,0.1-0.2,0.2-0.3,0.2l-4.5,0.7c-0.3,0-0.5,0.5-0.2,0.7l3.3,3.2
	c0.1,0.1,0.1,0.2,0.1,0.4l-0.8,4.5c-0.1,0.3,0.3,0.6,0.6,0.4l4-2.1c0.1,0,0.1,0,0.2,0V81.7z"/>
<path id="Shape_00000004510770223626299650000012330274003734604729_" class="st25" d="M36,322c0,1.1-0.9,2-2,2c-1.1,0-2-0.9-2-2
	c0-1.1,0.9-2,2-2C35.1,320,36,320.9,36,322z M36,314c0,1.1-0.9,2-2,2c-1.1,0-2-0.9-2-2c0-1.1,0.9-2,2-2C35.1,312,36,312.9,36,314z
	 M36,305.9c0,1.1-0.9,2-2,2c-1.1,0-2-0.9-2-2c0-1.1,0.9-2,2-2C35.1,303.9,36,304.8,36,305.9z M36,297.9c0,1.1-0.9,2-2,2
	c-1.1,0-2-0.9-2-2c0-1.1,0.9-2,2-2C35.1,295.9,36,296.8,36,297.9z M36,289.9c0,1.1-0.9,2-2,2c-1.1,0-2-0.9-2-2c0-1.1,0.9-2,2-2
	C35.1,287.9,36,288.8,36,289.9z M36,281.8c0,1.1-0.9,2-2,2c-1.1,0-2-0.9-2-2c0-1.1,0.9-2,2-2C35.1,279.8,36,280.7,36,281.8z M44,322
	c0,1.1-0.9,2-2,2s-2-0.9-2-2c0-1.1,0.9-2,2-2S44,320.9,44,322z M44,314c0,1.1-0.9,2-2,2s-2-0.9-2-2c0-1.1,0.9-2,2-2S44,312.9,44,314
	z M44,305.9c0,1.1-0.9,2-2,2s-2-0.9-2-2c0-1.1,0.9-2,2-2S44,304.8,44,305.9z M44,297.9c0,1.1-0.9,2-2,2s-2-0.9-2-2c0-1.1,0.9-2,2-2
	S44,296.8,44,297.9z M44,289.9c0,1.1-0.9,2-2,2s-2-0.9-2-2c0-1.1,0.9-2,2-2S44,288.8,44,289.9z M44,281.8c0,1.1-0.9,2-2,2
	s-2-0.9-2-2c0-1.1,0.9-2,2-2S44,280.7,44,281.8z M52,322c0,1.1-0.9,2-2,2s-2-0.9-2-2c0-1.1,0.9-2,2-2S52,320.9,52,322z M52,314
	c0,1.1-0.9,2-2,2s-2-0.9-2-2c0-1.1,0.9-2,2-2S52,312.9,52,314z M52,305.9c0,1.1-0.9,2-2,2s-2-0.9-2-2c0-1.1,0.9-2,2-2
	S52,304.8,52,305.9z M52,297.9c0,1.1-0.9,2-2,2s-2-0.9-2-2c0-1.1,0.9-2,2-2S52,296.8,52,297.9z M52,289.9c0,1.1-0.9,2-2,2
	s-2-0.9-2-2c0-1.1,0.9-2,2-2S52,288.8,52,289.9z M52,281.8c0,1.1-0.9,2-2,2s-2-0.9-2-2c0-1.1,0.9-2,2-2S52,280.7,52,281.8z
	 M60.1,322c0,1.1-0.9,2-2,2c-1.1,0-2-0.9-2-2c0-1.1,0.9-2,2-2C59.2,320,60.1,320.9,60.1,322z M60.1,314c0,1.1-0.9,2-2,2
	c-1.1,0-2-0.9-2-2c0-1.1,0.9-2,2-2C59.2,312,60.1,312.9,60.1,314z M60.1,305.9c0,1.1-0.9,2-2,2c-1.1,0-2-0.9-2-2c0-1.1,0.9-2,2-2
	C59.2,303.9,60.1,304.8,60.1,305.9z M60.1,297.9c0,1.1-0.9,2-2,2c-1.1,0-2-0.9-2-2c0-1.1,0.9-2,2-2
	C59.2,295.9,60.1,296.8,60.1,297.9z M60.1,289.9c0,1.1-0.9,2-2,2c-1.1,0-2-0.9-2-2c0-1.1,0.9-2,2-2
	C59.2,287.9,60.1,288.8,60.1,289.9z M60.1,281.8c0,1.1-0.9,2-2,2c-1.1,0-2-0.9-2-2c0-1.1,0.9-2,2-2
	C59.2,279.8,60.1,280.7,60.1,281.8z M68.1,322c0,1.1-0.9,2-2,2c-1.1,0-2-0.9-2-2c0-1.1,0.9-2,2-2C67.2,320,68.1,320.9,68.1,322z
	 M68.1,314c0,1.1-0.9,2-2,2c-1.1,0-2-0.9-2-2c0-1.1,0.9-2,2-2C67.2,312,68.1,312.9,68.1,314z M68.1,305.9c0,1.1-0.9,2-2,2
	c-1.1,0-2-0.9-2-2c0-1.1,0.9-2,2-2C67.2,303.9,68.1,304.8,68.1,305.9z M68.1,297.9c0,1.1-0.9,2-2,2c-1.1,0-2-0.9-2-2
	c0-1.1,0.9-2,2-2C67.2,295.9,68.1,296.8,68.1,297.9z M68.1,289.9c0,1.1-0.9,2-2,2c-1.1,0-2-0.9-2-2c0-1.1,0.9-2,2-2
	C67.2,287.9,68.1,288.8,68.1,289.9z M68.1,281.8c0,1.1-0.9,2-2,2c-1.1,0-2-0.9-2-2c0-1.1,0.9-2,2-2
	C67.2,279.8,68.1,280.7,68.1,281.8z M76.2,322c0,1.1-0.9,2-2,2c-1.1,0-2-0.9-2-2c0-1.1,0.9-2,2-2C75.3,320,76.2,320.9,76.2,322z
	 M76.2,314c0,1.1-0.9,2-2,2c-1.1,0-2-0.9-2-2c0-1.1,0.9-2,2-2C75.3,312,76.2,312.9,76.2,314z M76.2,305.9c0,1.1-0.9,2-2,2
	c-1.1,0-2-0.9-2-2c0-1.1,0.9-2,2-2C75.3,303.9,76.2,304.8,76.2,305.9z M76.2,297.9c0,1.1-0.9,2-2,2c-1.1,0-2-0.9-2-2
	c0-1.1,0.9-2,2-2C75.3,295.9,76.2,296.8,76.2,297.9z M76.2,289.9c0,1.1-0.9,2-2,2c-1.1,0-2-0.9-2-2c0-1.1,0.9-2,2-2
	C75.3,287.9,76.2,288.8,76.2,289.9z M76.2,281.8c0,1.1-0.9,2-2,2c-1.1,0-2-0.9-2-2c0-1.1,0.9-2,2-2
	C75.3,279.8,76.2,280.7,76.2,281.8z"/>
</svg>
