<svg width="13" height="10" viewBox="0 0 13 10" fill="none" xmlns="http://www.w3.org/2000/svg">
<path d="M12.2352 0.378931C12.1346 0.281309 12.0005 0.229045 11.8625 0.233683C11.7245 0.23832 11.594 0.299477 11.4997 0.403646L4.58373 8.02454L0.997946 4.91472C0.856221 4.7858 0.657959 4.74627 0.479915 4.81141C0.301871 4.87656 0.171995 5.03617 0.140567 5.22844C0.109139 5.42071 0.181093 5.61546 0.328572 5.7373L4.29173 9.17434C4.3854 9.25573 4.50397 9.30027 4.62641 9.30006C4.77044 9.30053 4.90814 9.239 5.00638 9.13028L12.2592 1.13866C12.3536 1.03466 12.4042 0.896165 12.3997 0.753672C12.3952 0.611179 12.336 0.476371 12.2352 0.378931Z" fill="white"/>
</svg>
