<svg width="24" height="24" viewBox="0 0 24 24" fill="none" xmlns="http://www.w3.org/2000/svg">
<g clip-path="url(#clip0_9350_101200)">
<path fill-rule="evenodd" clip-rule="evenodd" d="M4.41747 3.35385C6.12752 1.85417 8.24387 0.895269 10.4989 0.598389C12.7539 0.301509 15.0463 0.679989 17.0863 1.68597C19.1262 2.69195 20.822 4.28024 21.9592 6.25L19.3612 7.75C18.5206 6.29409 17.2672 5.12014 15.7594 4.37659C14.2516 3.63304 12.5572 3.35329 10.8905 3.57272C9.22372 3.79216 7.65946 4.50091 6.39551 5.60937C5.13156 6.71782 4.22469 8.17618 3.78958 9.80004C3.35447 11.4239 3.41066 13.1403 3.95104 14.7322C4.49143 16.3242 5.49174 17.7201 6.82548 18.7435C8.15922 19.7669 9.76648 20.3719 11.444 20.4818C13.1216 20.5918 14.794 20.2018 16.2499 19.3612L17.7499 21.9593C15.7802 23.0965 13.5174 23.6241 11.2478 23.4754C8.9782 23.3266 6.80366 22.5082 4.99919 21.1236C3.19472 19.7389 1.84136 17.8503 1.11025 15.6966C0.379143 13.5428 0.303122 11.2206 0.891802 9.02359C1.48048 6.8266 2.70742 4.85352 4.41747 3.35385Z"  />
</g>
<defs>
<clipPath id="clip0_9350_101200">
<rect width="24" height="24" fill="white"/>
</clipPath>
</defs>
</svg>
