<svg width="8" height="8" viewBox="0 0 8 8" fill="none" xmlns="http://www.w3.org/2000/svg">
<path fill-rule="evenodd" clip-rule="evenodd" d="M7.71685 1.35365C7.91212 1.15839 7.91212 0.841805 7.71685 0.646542C7.52159 0.45128 7.20501 0.45128 7.00975 0.646542L4.36321 3.29308L1.42377 0.353649C1.22851 0.158387 0.911926 0.158387 0.716663 0.353649C0.521401 0.548912 0.521401 0.865494 0.716663 1.06076L3.6561 4.00019L0.645787 7.0105C0.450525 7.20576 0.450525 7.52235 0.645787 7.71761C0.841049 7.91287 1.15763 7.91287 1.35289 7.71761L4.36321 4.7073L7.08062 7.42472C7.27589 7.61998 7.59247 7.61998 7.78773 7.42472C7.98299 7.22945 7.98299 6.91287 7.78773 6.71761L5.07031 4.00019L7.71685 1.35365Z" />
</svg>
