<svg width="16" height="16" viewBox="0 0 16 16" fill="none" xmlns="http://www.w3.org/2000/svg">
<path fill-rule="evenodd" fill='currentColor' clip-rule="evenodd" d="M2.59998 2.60001H13.4L13.4 13.4L2.59998 13.4V2.60001ZM1.59998 2.60001C1.59998 2.04772 2.04769 1.60001 2.59998 1.60001H13.4C13.9523 1.60001 14.4 2.04772 14.4 2.60001V13.4C14.4 13.9523 13.9523 14.4 13.4 14.4H2.59998C2.04769 14.4 1.59998 13.9523 1.59998 13.4V2.60001ZM5.70704 8.26274L7.21622 6.75355L6.50912 6.04644L4.64638 7.90918L4.29282 8.26274L4.64638 8.61629L6.50912 10.479L7.21622 9.77192L5.70704 8.26274ZM10.3942 8.26274L8.88497 6.75355L9.59208 6.04644L11.4548 7.90918L11.8084 8.26274L11.4548 8.61629L9.59208 10.479L8.88497 9.77192L10.3942 8.26274Z"  />
</svg>



