<svg width="121" height="28" viewBox="0 0 121 28" fill="none" xmlns="http://www.w3.org/2000/svg">
<path fill-rule="evenodd" clip-rule="evenodd" d="M26.6897 13.549C26.6897 19.05 23.2564 23.7492 18.4157 25.6205C16.9689 26.1799 15.3963 26.4866 13.7521 26.4866C13.0355 26.4866 12.3326 26.4284 11.6477 26.3163L12.3399 25.1173C12.8028 25.1732 13.2741 25.202 13.7521 25.202C15.3711 25.202 16.913 24.8719 18.3141 24.2752L17.214 9.71135C17.1257 8.54252 15.8819 7.83508 14.8321 8.35667L2.15109 14.6576C2.41531 17.4571 3.6699 19.9684 5.56076 21.8373L4.89907 22.9833C2.77821 20.9924 1.32889 18.2944 0.927349 15.2657C0.852885 14.704 0.814453 14.131 0.814453 13.549C0.814453 6.40371 6.60683 0.611328 13.7521 0.611328C20.8974 0.611328 26.6897 6.40371 26.6897 13.549ZM7.89147 21.5785C7.91122 21.7038 7.87898 21.8332 7.7999 21.9426L5.92173 24.5405C5.84265 24.6499 5.7299 24.721 5.60472 24.7416C5.47953 24.7621 5.34191 24.732 5.23724 24.6563C5.13257 24.5807 5.06085 24.4594 5.0411 24.3341C5.02136 24.2088 5.0536 24.0794 5.13268 23.9701L7.01085 21.3721C7.08993 21.2627 7.20267 21.1916 7.32786 21.171C7.45304 21.1505 7.59066 21.1806 7.69534 21.2563C7.80001 21.3319 7.87173 21.4532 7.89147 21.5785ZM9.84877 21.8938C10.0758 22.0387 10.1428 22.3414 9.99777 22.5686L7.15086 27.0285C7.0058 27.2558 6.70298 27.3224 6.476 27.1775C6.24901 27.0326 6.18192 26.7299 6.32699 26.5026L9.1739 22.0427C9.31896 21.8155 9.62178 21.7489 9.84877 21.8938ZM11.7208 23.927C11.8609 23.6882 11.7812 23.3903 11.5489 23.254C11.3166 23.1178 11.0177 23.1937 10.8776 23.4326L9.11138 26.4443C8.9713 26.6832 9.05096 26.9811 9.28325 27.1173C9.51554 27.2536 9.81443 27.1776 9.95452 26.9388L11.7208 23.927ZM14.578 16.1706C14.578 17.3361 13.6332 18.281 12.4676 18.281C11.3021 18.281 10.3572 17.3361 10.3572 16.1706C10.3572 15.005 11.3021 14.0602 12.4676 14.0602C13.6332 14.0602 14.578 15.005 14.578 16.1706Z" fill="#409eff"/>
<path d="M42.4548 16.28H35.6868L34.2468 20.408H30.4548L36.6708 3.752H41.5668L47.7348 20.408H43.8708L42.4548 16.28ZM41.3988 13.256L39.2388 6.944H38.9508L36.7428 13.256H41.3988Z" fill="#409eff"/>
<path d="M56.9175 7.208C57.9735 7.208 58.8295 7.368 59.4855 7.688C60.1575 7.992 60.6855 8.44 61.0695 9.032C61.4535 9.608 61.7175 10.312 61.8615 11.144C62.0055 11.976 62.0775 12.904 62.0775 13.928C62.0775 14.856 62.0055 15.728 61.8615 16.544C61.7175 17.36 61.4535 18.072 61.0695 18.68C60.6855 19.288 60.1575 19.768 59.4855 20.12C58.8295 20.472 57.9735 20.648 56.9175 20.648C55.7335 20.648 54.8455 20.48 54.2535 20.144C53.6775 19.792 53.2615 19.328 53.0055 18.752V25.208H49.5255V7.448H53.0055V9.008C53.2615 8.528 53.6935 8.112 54.3015 7.76C54.9095 7.392 55.7815 7.208 56.9175 7.208ZM55.8135 18.008C56.4055 18.008 56.8775 17.904 57.2295 17.696C57.5975 17.472 57.8775 17.176 58.0695 16.808C58.2615 16.44 58.3815 16.008 58.4295 15.512C58.4935 15.016 58.5255 14.488 58.5255 13.928C58.5255 13.336 58.4935 12.792 58.4295 12.296C58.3655 11.784 58.2375 11.344 58.0455 10.976C57.8535 10.608 57.5815 10.32 57.2295 10.112C56.8775 9.904 56.4055 9.8 55.8135 9.8C55.2215 9.8 54.7335 9.896 54.3495 10.088C53.9655 10.264 53.6535 10.528 53.4135 10.88C53.1895 11.232 53.0295 11.664 52.9335 12.176C52.8535 12.688 52.8135 13.272 52.8135 13.928C52.8135 14.552 52.8535 15.12 52.9335 15.632C53.0295 16.128 53.1895 16.552 53.4135 16.904C53.6535 17.256 53.9655 17.528 54.3495 17.72C54.7335 17.912 55.2215 18.008 55.8135 18.008Z" fill="#409eff"/>
<path d="M66.5805 5.648C66.1965 5.648 65.8765 5.632 65.6205 5.6C65.3645 5.552 65.1645 5.464 65.0205 5.336C64.8765 5.208 64.7725 5.024 64.7085 4.784C64.6605 4.544 64.6365 4.216 64.6365 3.8C64.6365 3.4 64.6605 3.08 64.7085 2.84C64.7725 2.6 64.8765 2.416 65.0205 2.288C65.1645 2.16 65.3645 2.08 65.6205 2.048C65.8765 2.016 66.1965 2 66.5805 2C66.9805 2 67.3005 2.016 67.5405 2.048C67.7965 2.08 67.9965 2.16 68.1405 2.288C68.2845 2.416 68.3805 2.6 68.4285 2.84C68.4925 3.08 68.5245 3.4 68.5245 3.8C68.5245 4.216 68.4925 4.544 68.4285 4.784C68.3805 5.024 68.2845 5.208 68.1405 5.336C67.9965 5.464 67.7965 5.552 67.5405 5.6C67.3005 5.632 66.9805 5.648 66.5805 5.648ZM64.8285 7.448H68.3085V20.408H64.8285V7.448Z" fill="#409eff"/>
<path d="M79.1596 7.208C80.2156 7.208 81.0716 7.368 81.7276 7.688C82.3996 7.992 82.9276 8.44 83.3116 9.032C83.6956 9.608 83.9596 10.312 84.1036 11.144C84.2476 11.976 84.3196 12.904 84.3196 13.928C84.3196 14.856 84.2476 15.728 84.1036 16.544C83.9596 17.36 83.6956 18.072 83.3116 18.68C82.9276 19.288 82.3996 19.768 81.7276 20.12C81.0716 20.472 80.2156 20.648 79.1596 20.648C77.9756 20.648 77.0876 20.48 76.4956 20.144C75.9196 19.792 75.5036 19.328 75.2476 18.752V25.208H71.7676V7.448H75.2476V9.008C75.5036 8.528 75.9356 8.112 76.5436 7.76C77.1516 7.392 78.0236 7.208 79.1596 7.208ZM78.0556 18.008C78.6476 18.008 79.1196 17.904 79.4716 17.696C79.8396 17.472 80.1196 17.176 80.3116 16.808C80.5036 16.44 80.6236 16.008 80.6716 15.512C80.7356 15.016 80.7676 14.488 80.7676 13.928C80.7676 13.336 80.7356 12.792 80.6716 12.296C80.6076 11.784 80.4796 11.344 80.2876 10.976C80.0956 10.608 79.8236 10.32 79.4716 10.112C79.1196 9.904 78.6476 9.8 78.0556 9.8C77.4636 9.8 76.9756 9.896 76.5916 10.088C76.2076 10.264 75.8956 10.528 75.6556 10.88C75.4316 11.232 75.2716 11.664 75.1756 12.176C75.0956 12.688 75.0556 13.272 75.0556 13.928C75.0556 14.552 75.0956 15.12 75.1756 15.632C75.2716 16.128 75.4316 16.552 75.6556 16.904C75.8956 17.256 76.2076 17.528 76.5916 17.72C76.9756 17.912 77.4636 18.008 78.0556 18.008Z" fill="#409eff"/>
<path d="M92.8306 20.648C91.8226 20.648 90.9186 20.544 90.1186 20.336C89.3346 20.128 88.6706 19.768 88.1266 19.256C87.5986 18.744 87.1906 18.056 86.9026 17.192C86.6146 16.328 86.4706 15.24 86.4706 13.928C86.4706 12.616 86.6146 11.528 86.9026 10.664C87.1906 9.8 87.5986 9.112 88.1266 8.6C88.6706 8.088 89.3346 7.728 90.1186 7.52C90.9186 7.312 91.8226 7.208 92.8306 7.208C93.8386 7.208 94.7346 7.312 95.5186 7.52C96.3026 7.728 96.9586 8.088 97.4866 8.6C98.0306 9.112 98.4466 9.8 98.7346 10.664C99.0226 11.528 99.1666 12.616 99.1666 13.928C99.1666 15.24 99.0226 16.328 98.7346 17.192C98.4466 18.056 98.0306 18.744 97.4866 19.256C96.9586 19.768 96.3026 20.128 95.5186 20.336C94.7346 20.544 93.8386 20.648 92.8306 20.648ZM92.8306 18.008C93.3586 18.008 93.7987 17.944 94.1507 17.816C94.5187 17.688 94.8066 17.472 95.0146 17.168C95.2386 16.848 95.3906 16.424 95.4706 15.896C95.5666 15.368 95.6146 14.712 95.6146 13.928C95.6146 13.144 95.5666 12.488 95.4706 11.96C95.3747 11.432 95.2146 11.008 94.9906 10.688C94.7826 10.368 94.5027 10.144 94.1507 10.016C93.7987 9.872 93.3586 9.8 92.8306 9.8C92.3026 9.8 91.8546 9.872 91.4866 10.016C91.1346 10.144 90.8466 10.368 90.6226 10.688C90.4146 11.008 90.2626 11.432 90.1666 11.96C90.0866 12.488 90.0466 13.144 90.0466 13.928C90.0466 14.712 90.0946 15.368 90.1906 15.896C90.2866 16.424 90.4386 16.848 90.6466 17.168C90.8706 17.472 91.1586 17.688 91.5106 17.816C91.8626 17.944 92.3026 18.008 92.8306 18.008Z" fill="#409eff"/>
<path d="M105.554 20.552C104.802 20.552 104.074 20.512 103.37 20.432C102.666 20.368 102.026 20.272 101.45 20.144V17.24C102.074 17.432 102.73 17.584 103.418 17.696C104.122 17.792 104.77 17.84 105.362 17.84C106.114 17.84 106.658 17.752 106.994 17.576C107.346 17.4 107.522 17.056 107.522 16.544C107.522 16.288 107.49 16.072 107.426 15.896C107.362 15.72 107.234 15.568 107.042 15.44C106.866 15.312 106.618 15.2 106.298 15.104C105.978 14.992 105.554 14.872 105.026 14.744C104.338 14.584 103.77 14.408 103.322 14.216C102.874 14.008 102.522 13.768 102.266 13.496C102.01 13.208 101.834 12.872 101.738 12.488C101.642 12.088 101.594 11.616 101.594 11.072C101.594 10.464 101.682 9.92 101.858 9.44C102.05 8.96 102.354 8.56 102.77 8.24C103.186 7.904 103.722 7.648 104.378 7.472C105.034 7.296 105.834 7.208 106.778 7.208C107.498 7.208 108.178 7.248 108.818 7.328C109.474 7.408 109.978 7.512 110.33 7.64L110.186 10.304C110.01 10.256 109.794 10.208 109.538 10.16C109.282 10.096 109.002 10.04 108.698 9.992C108.41 9.944 108.106 9.904 107.786 9.872C107.482 9.84 107.186 9.824 106.898 9.824C106.098 9.824 105.554 9.912 105.266 10.088C104.994 10.264 104.858 10.576 104.858 11.024C104.858 11.232 104.882 11.4 104.93 11.528C104.994 11.656 105.114 11.768 105.29 11.864C105.466 11.96 105.706 12.056 106.01 12.152C106.33 12.248 106.746 12.36 107.258 12.488C107.962 12.664 108.546 12.864 109.01 13.088C109.474 13.296 109.842 13.552 110.114 13.856C110.386 14.144 110.57 14.504 110.666 14.936C110.778 15.352 110.834 15.856 110.834 16.448C110.834 17.216 110.714 17.864 110.474 18.392C110.234 18.904 109.89 19.32 109.442 19.64C108.994 19.96 108.442 20.192 107.786 20.336C107.13 20.48 106.386 20.552 105.554 20.552Z" fill="#409eff"/>
<path d="M117.512 10.184V15.968C117.512 16.352 117.528 16.664 117.56 16.904C117.608 17.144 117.688 17.336 117.8 17.48C117.912 17.608 118.064 17.704 118.256 17.768C118.448 17.816 118.696 17.84 119 17.84C119.416 17.84 119.76 17.808 120.032 17.744V20.432C119.776 20.464 119.504 20.488 119.216 20.504C118.928 20.536 118.64 20.552 118.352 20.552C117.552 20.552 116.872 20.488 116.312 20.36C115.768 20.232 115.328 20.008 114.992 19.688C114.656 19.368 114.408 18.928 114.248 18.368C114.104 17.808 114.032 17.104 114.032 16.256V10.184H112.328V7.448H114.032V4.376H117.512V7.448H120.2V10.184H117.512Z" fill="#409eff"/>
</svg>
